<?xml version="1.0" encoding="UTF-8"?>
<svg xmlns="http://www.w3.org/2000/svg" viewBox="0 0 8640 8640">
	<style>
		.light {fill: #f0f0f0;}
		.brand {fill: #f0cc90;}
		g > path {transform: translate(-50%,-50%);}
		#outer_ring {animation: clockwise 9s linear infinite;}
		#inner_ring {animation: clockwise 3s linear infinite;}
		#name {animation: clockwise 6s linear infinite;}
		@keyframes clockwise {0% {transform: translate(50%,50%) rotate(0deg);} 100% {transform: translate(50%,50%) rotate(360deg);}}
	</style>
	<g id="outer_ring">
		<path class="brand" d="M4320,0h0V60h0C1967.2,60,60,1967.2,60,4320H0C0,1934,1934,0,4320,0Zm4320,4320c0,2386-1934,4320-4320,4320h0v-60h0c2352.8,0,4260-1907.2,4260-4260h60Z"/>
	</g>
	<g id="name">
		<path class="brand" d="M615.2,4455.2l134.8-135.2-134.8-134.8-135.2,134.8,135.2,135.2Zm5440.4,3140.8l49.6-184.4,184.4,49.6-49.6,184.4-184.4-49.6ZM2350.4,1178.8l49.6-184.4,184.4,49.6-49.2,184.4-184.8-49.6Zm234,6417.2l-49.2-184.4-184.8,49.6,49.6,184.4,184.4-49.6ZM6289.6,1178.8l-49.6-184.4-184.4,49.6,49.6,184.4,184.4-49.6Zm1735.6,3276.4l134.8-135.2-134.8-134.8-135.2,134.8,135.2,135.2Z"/>
		<path class="light" d="M5312.8,7700l22.4,63.2c25.2,69.6,60.8,91.6,121.6,106.8,9.2,2,16.8,7.6,21.6,15.6,6,10.4,12.8,22.8,12.8,22.8,1.2,.8,2,2.4,2.8,2,2.4,.4,3.2,0,4-.4,0,0,27.6-15.2,39.2-21.6,3.6-1.2,7.6-1.6,11.2-.8,57.2,14.4,54.4,30.4,68.4,68.8l17.6,48c10.8,30.8-10.4,41.6-22.8,46l-16.8,6.4c-12.4,4.4-36,9.6-47.2-21.2l-24.8-68.4c-.4-2-2-3.6-3.6-4-1.6,.4-4,.4-4.4,1.6-15.6,16-55.2,59.2-67.6,72-1.2,2.8-2,6-1.2,8.8l6,16s41.6,136,174,88l20.8-7.6c132.4-48,77.6-178.8,77.6-178.8l-16.8-47.2c-30-82.4-52.8-104.8-138.8-121.6-9.2-2-17.6-8.4-21.6-16.8-5.6-9.2-11.2-18.8-11.2-18.8-.8-2-2-2.8-3.6-3.2-.8,.4-2.8,0-3.6,1.2,0,0-24,13.2-34.8,18.8-4.4,2-9.6,2.8-13.2,.8-46.4-13.2-44.4-30.8-54.4-58.8l-21.6-59.2c-11.2-32,8.4-42.4,20.4-46.8l29.2-10.4c11.2-4,34-9.2,45.6,22.8l24.4,67.6c.4,.8,2,2.4,4,2.8,1.2,.4,3.2-.4,4.8-2,14.4-15.6,55.2-58.8,67.6-72,2-2.8,3.2-5.2,2-9.2l-4.8-13.2s-42.8-136.4-174.8-88.8l-32.8,12c-131.6,47.6-77.6,178.8-77.6,178.8h0ZM6706.8,1734.4l44-50.4c48.8-55.6,51.2-97.2,35.2-158-2.8-9.2-1.2-18.4,3.2-26.4,6.4-10.4,14-22,14-22,0-1.6,1.2-2.8,.4-3.6-.8-2-1.6-2.8-2.4-3.6,0,0-26.4-16.4-37.6-23.6-2.8-2.8-5.2-6-6-9.6-15.2-57.2,0-62.4,26.8-92.8l34-38.4c21.6-24.8,41.6-11.2,51.2-2.4l13.6,11.6c9.6,8.8,26,26.8,4,51.6l-48,54.4c-1.2,1.6-2,4-1.6,5.2,1.2,1.2,2.4,3.6,3.6,3.2,21.6,6,78.4,20,95.6,24.4,2.8,0,6.4-.8,8.4-3.2l11.2-12.8s98.8-102-6.8-194.8l-16.8-14.8c-106-92.8-194,18.4-194,18.4l-33.2,37.2c-58,66-66.4,97.2-40,180.4,2.8,8.8,1.6,19.6-3.6,27.2-6,9.2-11.6,18.8-11.6,18.8-1.2,1.6-1.2,3.2-1.2,4.4,.8,.8,1.6,2.8,3.2,2.8,0,0,22.8,14.8,33.2,21.2,3.6,3.2,6.8,7.2,7.2,11.6,10.8,46.8-6,53.6-25.6,76l-41.6,47.2c-22.4,25.6-40.8,13.2-50.4,4.4l-23.6-20.4c-8.8-8-24-25.2-2-50.8l47.6-54c.8-.4,1.2-2.8,.4-4.8,0-1.6-1.6-2.8-3.6-3.2-21.2-5.2-78.4-20-96-24.4-3.6-.4-6.4-.4-8.8,2.4l-9.2,10.8s-98.8,103.2,6.4,195.6l26,23.2c105.2,92.4,194.4-18,194.4-18h0Zm275.2,477.2s.8-24,1.2-39.6c.4-6.8,2.8-13.2,7.2-18.8,23.6-32.8,108-145.6,138.4-186.4,6.4-8.8,17.2-13.2,28.8-12.8,11.2,.4,25.2,.8,25.2,.8,1.6,0,2.8,0,4.4-1.2,.8-.8,.8-2.4,.8-3.6,0,0,2-36,2.4-54.4,.4-7.2,2-14,6.4-19.6,23.2-31.2,103.2-138.8,132.8-177.2,6.8-8.8,16.8-14.4,28.4-14,12.4,.4,26.8,1.2,26.8,1.2,1.2,0,4.4-1.6,4.8-3.6,.8-2,.4-4-1.2-5.6l-138.8-149.2c-1.6-1.6-3.6-2.4-5.6-1.6-2.4,.4-4,3.2-4,4.8,0,0,.4,12-.8,22.4-.4,11.6-5.6,22-14.8,28-42,26.8-155.6,100-189.2,121.6-5.6,4-12.8,5.2-20,4.8-18.4-.8-54.4-1.2-54.4-1.2-1.2,0-2.8,0-3.6,.4-1.2,1.6-1.2,2.8-1.6,4.4,0,0-.4,14-.8,25.6-.4,11.2-5.6,21.6-15.2,27.6-42.4,27.6-160.8,103.6-194.8,125.6-6.4,3.2-12.8,5.2-20,4.8-15.6-.4-39.2-1.2-39.2-1.2-2.8-.4-4.4,1.2-6,2.4-.8,2,0,4.4,1.2,5.6l106,113.6c1.2,1.6,3.2,2,5.6,1.6,1.2-1.6,2.8-2.8,3.6-4.8,0,0-.4-9.2,0-17.6,0-11.2,5.6-21.6,14.8-28,26.8-18,81.6-53.6,99.6-66.8,3.6-2,9.2-1.6,12,1.6l68.8,73.6c3.2,3.6,2.4,8.4,.4,12-14,17.2-53.6,69.2-73.6,94.8-6.8,8.8-17.6,13.2-28.8,12.8-8.4-.4-16.8-.4-16.8-.4-2.8-.4-4.4,1.2-6,2.4-.4,2,0,4.4,1.2,5.6l106,113.6c1.2,1.6,3.2,2,5.6,1.6,1.2-1.2,2.8-2.8,2.8-5.6h0Zm74-313.6c-2,.4-4.8-.8-6.4-2.4l-44-47.6c-1.6-1.6-2.8-4.4-2-6.4,0-2.8,.8-4.8,3.6-6.4,32-21.2,150.8-100.8,195.2-130.8,1.2-1.6,3.2-.8,4.8,.8,.8,.8,1.2,2.8-.4,4-32.4,42.8-120.4,155.2-144.4,185.6-1.2,2.4-3.6,3.2-6.4,3.2h0Zm725.6,321.2c1.2-2,.8-4-.4-5.6l-87.2-128c-1.2-1.6-3.2-2.8-5.6-2.4-1.6,.8-4,2.8-3.6,4.8,0,0-1.6,8.4-4,17.2-2,11.2-8.8,20.8-18.8,25.2-69.6,32.8-350,164-426.4,200.4-.8,.8-3.6,.4-4.4-.8-1.2-1.6-.4-4.4,.4-4.8,61.6-58,285.6-271.6,341.6-324.4,8-8,19.2-10.8,30.4-8.8,9.2,1.2,18,3.6,18,3.6,1.2,.4,4-1.2,5.6-2.4,.8-2,.8-4.4-.4-6l-87.6-128c-1.2-1.6-2.8-2.8-5.2-2.4-1.6,1.2-4,2.8-4.4,4.4,0,0-4.4,24.8-6.8,39.6-1.2,6.8-5.2,13.2-10,18.8-28,28-128.4,126.8-164.8,162.4-8,8-19.2,10.8-30,8.4-12-1.2-26-4-26-4-1.2-.4-2.8-.4-3.6,0-1.6,1.2-2,2.4-2,4,0,0-6.8,34.8-10,52.8-1.6,6.8-4.8,14-10,18.8-27.6,27.2-122,120.8-157.2,154.4-8,8-19.6,12.4-30.4,10.4-12-3.2-25.6-5.6-25.6-5.6-2.4,.4-4.4,.4-5.6,2.4-1.2,2-.8,4.4,.4,6l115.2,168.4c.8,1.6,2.8,2.8,5.2,2.4,2-.4,3.2-2.4,4.4-4.4,0,0,1.6-11.6,4-22,2-11.2,9.2-20.8,19.2-25.2,44.8-19.6,168.8-75.6,204-90.8,6.4-3.2,14.4-4,21.2-2.8,18,3.6,52.8,10,52.8,10,1.6,.4,2.8,.8,4.4-.4,.8-.8,1.2-2,1.6-3.6,0,0,2.4-13.6,5.6-25.6,1.6-10.8,8.4-20.4,18.8-24.8,46.4-20.8,174.8-78.4,211.6-94,6.4-3.2,14-4.4,20.8-3.2,14.4,3.6,38.8,7.6,38.8,7.6,2,.8,4.4-.8,6-2h0Zm-343.2,776.8s8-22.8,13.2-37.6c2-6.4,6.4-12,12-15.6,32.4-24.4,146.4-107.2,187.6-136.8,9.2-6.4,20.8-7.6,31.6-4,10.4,3.6,24,8.4,24,8.4,1.2,.4,2.4,1.2,4.4,0,.8-.4,1.2-1.6,1.6-2.8,0,0,12.8-34,18.8-51.2,2.4-6.8,6-12.8,12-16.8,31.2-22.8,139.6-101.6,179.6-129.6,9.2-6.4,20.4-8.8,30.8-4.8,12,4,25.6,8.8,25.6,8.8,1.2,.4,4.4,0,5.6-1.6,1.6-2,1.6-4,.8-6l-88.4-183.6c-.8-2-2.8-3.2-4.8-3.6-2.4,0-4.8,2.4-5.2,3.6,0,0-3.2,11.6-7.2,21.6-4,10.4-12,18.8-22.8,22-48,12.8-178.4,48.8-216.8,59.6-6.4,2-13.6,.8-20.4-1.2-17.2-6.4-51.6-17.6-51.6-17.6-1.2-.4-2.8-.8-3.6-.4-1.6,.8-2.4,2-2.8,3.6,0,0-4.4,13.2-8.4,24-3.6,10.4-12,18.8-22.8,22-48.8,13.6-184.4,50.8-223.2,61.6-7.2,1.2-14,1.2-20.8-1.2-14.4-5.2-37.2-13.2-37.2-13.2-2.4-.8-4.4,0-6,.8-1.6,2-1.6,4-.8,6l67.2,139.6c.8,2,2.8,3.2,4.8,3.2,2-.8,3.6-1.6,5.2-3.6,0,0,2.4-8.8,5.2-16.8,3.6-10.4,11.6-18.8,22.4-22,30.8-9.2,94-27.2,114.8-34,4-.8,9.2,1.2,11.2,4.8l43.6,90.8c2,4.8,0,9.2-3.2,11.6-18.4,12.4-72,50-98.4,68.4-9.2,6.8-20.8,7.6-31.2,4l-16-5.6c-2.8-1.2-4.4,0-6.4,.8-1.2,1.6-1.2,4-.4,5.6l67.2,140c.8,1.6,2.4,3.2,4.8,3.2,1.6-1.2,3.6-2,4.4-4.4h0Zm164-277.6c-2,0-4.4-2.4-5.2-4l-28-58.8c-.8-1.6-1.2-4.8,0-6.4,.8-2.8,2.4-4.4,5.6-4.8,36.8-11.2,173.6-51.6,225.2-67.2,1.6-.8,3.2,.4,4.4,2.4,.4,.8,.4,2.8-1.6,4-44,30.8-161.6,111.6-193.2,133.6-2,2.4-4.4,2.4-7.2,1.2h0Zm336,566.8c.8-1.2,2-4,1.2-6l-53.6-148.4c-1.2-2.8-3.6-4-5.6-3.2-14.8,0-71.6,.4-92,0-.8,.4-2.8,1.2-4.4,2.8-.4,1.2-1.2,2.4-.4,4.4l18,50c1.2,3.6-1.2,8.8-4.8,10l-134,48.4c-32,11.6-42.8-10-47.2-22l-13.2-36.8c-4.4-12-9.6-34.8,22.4-46.4l378.8-137.2c31.2-11.2,42,9.6,46.4,22l13.2,36.4c4.4,12.4,9.6,36-21.2,47.2l-91.2,32.8c-2,.8-3.6,2.4-4,4.8,.4,.8,.4,2.8,2,4.4,15.6,14.4,58.8,54.4,71.6,66.8,3.2,2,6.4,2.8,9.2,2l38.8-14s136-42,88.4-173.6l-15.6-42c-47.6-132.8-178.8-78-178.8-78l-137.6,49.6c-8.4,3.2-18,2.4-26.4-.8-10.8-6-25.6-12-25.6-12-1.6-.8-2.8-1.2-3.6-.8-2,.4-2.4,2-3.2,3.2,0,0-6.4,14-12,25.6-3.6,7.6-10.4,14.4-19.2,17.6l-136.8,49.2s-135.6,41.6-87.6,174.4l15.2,42.4c47.6,131.6,178.8,76.8,178.8,76.8l174-63.2c8.4-2.8,18-3.2,26,1.2,11.6,5.6,28,13.6,28,13.6,1.2,.4,4.4,.4,6-1.2h0Zm252.4,252.8l24.4,120.4c1.6,8.8,.4,18.4-5.2,25.6-6.8,11.6-17.2,26.8-17.2,26.8-.8,1.2-1.2,3.2,0,5.2,1.6,1.6,3.6,2.4,5.6,2l114.8-23.2c4.8-.8,8-5.6,7.2-9.6l-60.4-300.8c-.4-2-1.6-4-3.6-4.4-2,.4-5.2,.8-5.6,3.2,0,0-9.6,14-16.4,24.8-4.8,6.8-12.8,12.4-21.6,14.4l-228.4,45.6c-8.8,1.6-18.8-.4-26.8-4.8-10.4-7.2-24.4-16.4-24.4-16.4-1.2-.8-2.4-1.6-3.6-1.6-2,.4-2.8,1.6-3.6,2.8,0,0-9.2,14-16.4,24.8-4.4,6.8-12.8,12.8-21.6,14.4l-227.2,45.6c-8.8,1.6-18.4-.4-25.6-5.2-10.8-7.2-24.8-16.4-24.8-16.4-2.4-1.6-4.4-1.2-6.4-.8-1.6,1.2-2.4,3.6-2,5.6l60.4,300.8c.8,4,5.6,7.2,9.2,6.4l115.6-23.2c3.2-.4,4-1.6,4.4-4,.8-2,.4-4-2-4.4,0,0-15.2-11.2-26.8-18.4-7.2-5.6-12.8-12.8-14.8-22.4l-24-119.6c-.4-2,0-5.2,2-6.4,.4-2.4,2-3.6,5.2-4l168.8-34c2.8-.4,4.8,0,6.4,2,2,.4,3.6,3.2,4,5.2l16.8,83.2c1.6,8.8-.4,18.4-4.8,25.6-8,11.6-18.4,26.8-18.4,26.8-1.2,2.4-1.2,4.4,.4,6.4,1.2,1.6,2.4,2.4,4.4,2l152-30.4c2-.4,3.6-1.6,4.4-4,.4-2-.8-3.6-2.4-5.6,0,0-15.2-9.2-26-17.2-6.8-4.8-12.4-12.8-14.4-21.6l-16.8-84.4c-.8-4.8,2-9.6,6-10.4l169.6-34c5.2-.8,8.8,2.4,9.6,7.6h0Zm-434.8,1538.8l65.6,12.4c72.4,14,109.6-5.2,154-49.6,6.4-6.8,15.2-10.4,24.4-10.8,12,.4,26,1.2,26,1.2,1.2-.8,3.2-.4,3.6-1.6,1.2-1.6,1.2-2.8,1.6-3.6,0,0,.8-31.2,1.6-44.4,.4-4,2.4-7.6,4.8-10.4,41.6-42,54-31.2,94-23.6l50,9.6c32.4,6.4,30.8,30.4,28.4,43.2l-3.6,17.6c-2.4,12.8-10,35.6-42,29.6l-71.6-13.6c-2-.4-4,0-5.2,.8-.4,2-2,3.6-1.2,4.8,6.4,21.6,22.8,78,27.6,95.2,1.6,2,4,4.8,7.2,5.2l16.4,3.2s138,33.6,164.8-104.8l4-21.6c26.8-138.4-114-158.4-114-158.4l-48.8-9.2c-86.4-16.8-117.2-8.4-175.6,56.8-6.4,6.8-16.4,10.8-25.6,10.4-10.8-.4-22-.4-22-.4-2-.4-3.2,.4-4.4,1.2,0,1.2-1.6,2.8-.8,4,0,0-1.2,27.2-1.6,39.6-.8,4.8-2.8,9.6-6.4,12-34.8,32.8-48.8,22-78,16.4l-62-12c-33.2-6.4-32-28.4-29.6-41.2l6-30.4c2-12,9.6-34,42.8-27.6l70.4,13.6c.8,.4,3.2-.4,4.4-2,1.2-.8,1.6-2.8,1.2-5.2-6.4-20.4-22.8-77.6-27.6-94.8-1.2-3.2-2.8-5.6-6.8-6.4l-14-2.8s-138.8-32.8-165.6,104.8l-6.4,34.4c-26.4,137.2,114,158.4,114,158.4h0Zm-272,479.2s20.8-11.6,34.8-19.2c6-3.2,12.8-4.4,19.6-3.6,40.4,3.6,180.4,18.8,230.8,24,11.2,1.2,20.4,8.4,26,18,5.2,10,12,22.4,12,22.4,.8,1.2,1.6,2.4,3.6,3.2,.8,.4,2-.4,3.2-1.2,0,0,32-16.4,48-25.6,6.4-3.2,13.2-5.2,20.4-4.4,38.4,4,171.6,18.4,220,24,11.2,1.2,20.8,7.2,26.4,17.2,6,11.2,12.8,23.6,12.8,23.6,.8,1.2,3.2,2.8,5.6,2.8,2-.4,3.6-2.4,4-4l57.6-196c.4-2,0-4-1.6-5.6s-4.8-1.2-6-.8c0,0-10,6.4-19.6,10.8-10,5.6-21.6,6.4-31.6,1.2-44.8-22.4-165.6-82.8-200.8-100.4-6.4-3.2-11.2-8.4-14.8-14.8-8.8-16-26.4-47.6-26.4-47.6-.8-1.2-1.6-2.4-2.4-2.8-2-.4-3.2,.4-4.4,.8,0,0-12.4,6.8-22.4,12.4s-21.6,6-31.6,1.2c-45.6-22.8-171.2-86-207.2-103.6-6.4-4-11.2-8.4-14.4-14.8-7.6-13.6-19.2-34.8-19.2-34.8-1.2-2.4-3.2-2.8-4.8-3.6-2.4,.4-4,2-4.4,4l-43.6,148.8c-.8,2-.4,4,1.2,5.6,2,.4,4,1.2,6,.8,0,0,8-5.2,15.2-9.2,10-5.6,21.6-6,31.6-1.2,29.2,14,88,42.4,108,51.6,3.6,2,6.4,7.2,5.2,10.8l-28.4,96.8c-1.6,4.8-6,6.8-10,6.8-22-3.6-87.2-11.2-119.2-15.2-10.8-1.2-20.4-8.4-25.6-18-4-7.6-8.4-14.8-8.4-14.8-1.2-2.8-3.2-3.2-5.2-3.6-2,.4-3.6,2-4,3.6l-43.6,148.8c-.8,2-.4,4,1.2,5.6,2,.8,4,1.2,6.4,0h0Zm307.6-96.4c-1.6-1.6-1.6-4.8-1.2-6.4l18.4-62.4c.4-2,2.4-4.8,4.4-5.2,2.4-1.2,4.8-1.6,7.2,.4,34.8,16.4,163.6,78,212.4,100.8,2,.4,2.4,2.8,1.6,4.4,0,1.2-1.6,2.8-3.6,2.4-53.6-6.4-194.8-25.2-233.2-30-3.2,0-4.8-1.6-6-4h0Zm94.8,783.6c2.4,0,4-1.6,4.8-3.2l64.4-141.2c.8-1.6,.8-4-.4-5.6-2-.8-4.8-2-6.4-.8,0,0-8,2.8-16.8,5.6-10.4,4-22,2.8-31.2-3.6-64-42.4-321.2-214.8-392-261.6-.8-.4-2-2.8-1.6-4,.8-1.6,3.6-2.8,4.4-2.4,82,23.2,380.4,104.8,454.4,125.6,10.8,2.4,19.2,10.8,23.2,21.2,3.6,8.4,6,17.2,6,17.2,.8,1.6,3.2,2.8,5.2,3.6,2.4,0,4-1.6,4.8-3.2l64.4-141.2c.8-1.6,.8-4-.4-5.6-2-.8-4.8-2-6-1.6,0,0-23.6,8.8-37.6,14.8-6.4,2.4-14,2.4-21.2,1.2-38.4-10-174.8-44.8-224-57.6-10.8-2.8-19.2-10.8-23.2-21.6-4.8-10.8-9.6-24-9.6-24-.4-1.6-1.2-2.8-2-3.2-2-.8-3.2-.4-4.4,.4,0,0-33.2,12-50.4,18.4-6.8,2.8-14.8,3.2-21.6,1.2-37.2-9.2-166-42-213.2-54.4-10.8-2.8-20.4-10.8-24.4-21.2-3.6-11.6-8.4-24.8-8.4-24.8-1.6-1.6-2.8-3.6-5.2-3.2-2,0-4,1.2-4.8,3.2l-84.8,185.6c-.8,1.6-.8,4,.8,5.6,1.2,1.6,3.6,1.6,5.6,1.6,0,0,11.2-4.8,21.2-8,10.8-4,22.4-2.8,31.6,3.6,40,28,151.6,105.6,183.2,127.6,6,4,10.4,10.4,13.2,17.2,6.4,17.2,18.8,50.4,18.8,50.4,.4,1.2,.8,2.4,2.8,3.2,.8,.4,2,0,3.2-.4,0,0,13.6-5.2,24.8-8.4,10.4-4,22.4-3.2,31.6,3.2,41.6,28.8,157.2,109.2,189.2,132.8,6,4,11.2,9.6,13.6,16,4.8,14.4,13.6,37.2,13.6,37.2,.4,2.4,2.8,3.6,4.8,4.4h0Zm-846.8,104.4s23.2-5.2,38.4-8.8c6.8-1.2,13.6-.4,20,2.4,37.6,14.8,167.6,69.2,214.4,88.8,10.4,4,17.6,13.6,20,24.4,2,11.2,5.2,24.8,5.2,24.8,.4,1.6,.4,2.8,2.4,4,.8,.4,2,.4,3.6,0,0,0,35.2-6.8,53.2-10.8,6.8-1.6,14-1.6,20.4,1.6,36,14.4,159.6,66,204.4,85.6,10.4,4,18,12.4,20.4,23.6,2.8,12.4,5.6,26.4,5.6,26.4,.4,1.2,2.4,3.6,4.4,4,2.4,.4,4.4-.8,5.2-2.4l110.8-171.6c1.2-1.6,1.2-3.6,.4-5.6-1.2-2-4.4-2.8-5.6-2.4,0,0-11.6,3.2-22.4,4.8-10.8,2.4-22.4-.4-30.4-8-36.4-34.4-135.2-126.4-164-153.6-5.2-4.8-8-11.2-9.6-18-4-18-12-53.2-12-53.2-.4-1.6-.8-2.8-1.6-3.2-1.6-1.2-3.2-.8-4.4-.8,0,0-14,3.2-24.8,5.6-11.2,2.4-22.8-.4-30.8-8-37.2-34.8-140-130.8-169.2-158.4-4.8-5.6-8.4-11.2-10-18-3.2-15.2-8-38.8-8-38.8-.4-2.8-2.4-3.6-4-4.8-2-.4-4,.8-5.2,2.4l-84,130.4c-1.2,1.6-1.6,3.6-.4,5.6,1.6,1.2,3.6,2.4,5.6,2.4,0,0,8.8-2.4,17.2-4.4,10.8-2.4,22.4,.4,30.4,8,24,21.6,72.4,65.6,89.2,80,2.8,3.2,4,8.4,1.6,12l-54.8,84.8c-2.8,4-7.6,4.4-11.6,3.2-20-9.2-80-35.2-109.6-48.4-10.4-4-17.2-13.6-19.6-24.4-1.6-8.4-3.6-16.8-3.6-16.8-.4-2.4-2.4-3.6-4-4.8-2,0-4,.8-5.2,2.8l-84,130c-1.2,1.6-1.2,4-.4,6,2,.8,3.6,2,6.4,1.6h0Zm322-5.2c-1.2-1.6-.4-4.8,.8-6.4l35.2-54.8c1.2-1.6,3.6-3.6,6-3.2,2.8-.8,4.8-.4,6.8,2,28.8,25.6,134.8,121.6,174.8,157.2,1.6,.8,1.6,3.2,.4,4.8-.4,.8-2.4,2-4,.8-49.6-21.2-180-79.2-215.2-94.8-2.8-.8-4-2.8-4.8-5.6h0Zm-334,584c1.6,0,4.4,0,5.6-1.6l104.4-118.8c2-2,1.6-4.8,0-6.4-6.8-12.8-34.8-62.8-44.4-80.4-.8-.8-2.4-2-4.4-2.4-1.6,0-2.8,0-4.4,1.6l-34.8,39.6c-2.8,3.2-8.4,3.6-11.2,.8l-107.2-94c-25.2-22.4-11.6-42.4-3.2-52l25.6-29.2c8.8-10,26-25.2,51.6-2.8l302.8,266c24.8,21.6,12,41.2,3.2,50.8l-25.6,29.2c-8.8,10-26.8,26-51.6,4l-72.8-64c-1.6-1.2-3.6-1.6-5.6-.8-.8,.8-2.8,1.6-3.2,3.6-5.2,20.8-19.2,77.6-24,95.2-.4,3.6,.8,6.8,2.8,8.8l30.8,27.2s102,98.8,194.4-6.4l30-33.6c92.8-106-18.4-194.4-18.4-194.4l-109.6-96.4c-6.8-6-10.8-14.8-12-24,0-12-2-28-2-28,0-1.6,0-2.8-.8-3.6-1.6-1.2-2.8-1.2-4.4-1.2,0,0-15.6,1.2-28,2-8.4,.4-18-2.4-24.8-8.4l-109.2-96s-102-98.8-195.2,7.2l-29.6,33.6c-92.4,105.2,18.8,193.6,18.8,193.6l139.2,122.4c6.8,6,11.6,14,11.6,23.2,.8,12.8,1.6,31.2,1.6,31.2,.4,1.2,2,4,4,4.4h0Zm-91.2,351.6l-94.4,79.2c-6.8,6-15.6,9.6-24.4,8-13.6-.4-32-2-32-2-1.2,0-3.6,.4-4.4,2.4s-.4,4.4,.8,5.6l75.6,89.6c3.2,4,8.8,4.4,12,1.6l234.4-197.6c1.6-1.2,2.4-3.6,2-5.6-1.2-1.6-3.2-4-5.2-3.2,0,0-17.2-1.6-29.6-2.8-8.4-.4-17.6-4.8-23.2-11.6l-150.4-178.4c-5.6-6.8-8.4-16.4-8.4-25.6,1.2-12.4,2.8-29.6,2.8-29.6,0-1.2,0-2.8-.4-3.6-1.6-1.2-2.8-1.6-4.4-1.6,0,0-16.8-1.6-29.6-2.4-8.4-.8-17.2-5.2-22.8-12l-149.6-177.6c-6-6.8-8.8-16-8-24.8,1.2-12.4,2.8-29.2,2.8-29.2,0-3.2-1.2-4.4-2.4-6-2-.8-4.4-.4-6,.8l-234.8,198c-2.8,2.4-3.2,8-.8,11.2l76,90c2,2.4,3.2,2.4,5.6,2,2-.4,3.6-2,3.2-4,0,0,2-18.8,2.8-32.4,1.6-9.2,4.8-17.2,12.4-23.6l93.6-78.8c1.6-1.2,4.4-2.4,6.4-1.6,2-.4,4,.4,6,2.8l111.2,131.6c2,2.4,2.4,4.4,1.2,6.4,.8,2.4-.8,4.8-2.4,6l-65.2,54.8c-6.8,6-16.4,8.8-24.4,8-14.4-1.2-32.4-2.8-32.4-2.8-2.8,0-4.4,1.2-5.2,3.2-1.2,2-1.2,3.6,0,5.2l100,118.4c1.2,1.2,3.2,2.4,5.2,1.6,2.4-.4,3.2-2.4,4-4.4,0,0,.8-17.6,2.8-31.2,.8-8.4,5.2-17.2,12-23.2l65.6-55.2c4-3.2,9.6-2.8,12,.4l111.6,132c3.2,4,2,8.8-1.6,12h0ZM895.2,3516.8l-65.6-12.4c-72.8-14-110,5.2-154,49.6-6.4,6.8-15.2,10.4-24.4,10.8-12-.4-26-1.2-26-1.2-1.2,.8-3.2,.4-3.6,1.6-1.2,1.6-1.6,2.8-1.6,3.6,0,0-.8,31.2-1.6,44.4-.8,4-2.4,7.6-4.8,10.4-41.6,42-54,31.2-94,23.6l-50-9.6c-32.4-6.4-30.8-30.4-28.4-43.2l3.6-17.6c2.4-12.8,9.6-35.6,42-29.6l71.6,14c2,0,4-.4,5.2-1.2,.4-2,1.6-3.6,.8-4.8-6-21.6-22.4-77.6-27.2-95.2-1.6-2-4-4.8-7.2-5.2l-16.8-3.2s-137.6-33.6-164.4,104.8l-4,21.6c-26.8,138.4,113.6,158.4,113.6,158.4l49.2,9.2c86.4,16.8,117.2,8.4,175.6-56.8,6.4-6.8,16.4-10.8,25.6-10.4,10.8,.4,22,.4,22,.4,2,.4,3.2-.4,4.4-1.2,0-1.2,1.6-2.8,.8-4,0,0,1.2-27.2,1.2-39.6,1.2-4.8,3.2-9.6,6.4-12,35.2-32.8,49.2-22,78.4-16.4l62,12c33.2,6.4,32,28.4,29.6,41.2l-6,30.4c-2,12-9.6,34-42.8,27.6l-70.4-13.6c-1.2,0-3.2,.4-4.4,2-1.2,.8-1.6,2.8-1.2,5.2,6.4,20.4,22.8,77.6,27.6,94.8,1.2,3.2,2.8,5.6,6.8,6.4l13.6,2.8s139.2,32.8,165.6-104.8l6.8-34.4c26.4-137.2-114-158.4-114-158.4h0Zm288-474.8s-21.2,10.8-35.2,17.6c-6.4,2.8-13.2,4-20,2.4-40-5.2-179.2-27.2-229.2-34.8-11.2-1.6-20.4-9.2-25.2-19.2-5.2-10.4-11.2-23.2-11.2-23.2-.8-1.2-1.2-2.4-3.2-3.2-.8,0-2,.4-3.6,1.2,0,0-32.4,14.8-49.2,23.2-6.4,2.8-13.2,4.8-20,3.2-38.4-5.6-170.8-26-218.8-34.4-11.2-1.6-20.4-8-25.6-18.4-5.6-11.2-11.6-24-11.6-24-.8-1.2-3.2-3.2-5.6-2.8-2,0-3.6,1.6-4.4,3.6l-66.8,192.8c-.4,2-.4,4,1.2,5.6s4.8,1.6,6,1.2c0,0,10.8-6,20.4-10,10.4-4.8,22-5.2,31.6,.4,43.6,24.4,161.2,90.8,196,110,6,3.2,10.4,9.2,13.6,15.6,8,16.4,24.4,48.4,24.4,48.4,.8,1.6,1.2,2.8,2.4,3.2,1.6,.4,2.8,0,4.4-.8,0,0,12.4-6,22.8-11.2,10-4.8,22-5.2,31.6,.4,44.4,24.8,166.8,94,202,113.6,6,4,10.8,8.8,14,15.2,6.8,14,17.2,35.6,17.2,35.6,1.2,2.4,2.8,3.2,4.8,4,2.4-.4,4-2,4.4-4l50.8-146.4c.8-2,.4-4-1.2-5.6-2-.8-3.6-1.2-6-1.2,0,0-8,4.8-15.6,8.4-10,5.2-21.6,5.2-31.6-.4-28.4-15.2-85.6-46.4-105.6-56.4-3.2-2.4-5.6-7.6-4.4-11.2l33.2-95.6c1.6-4.4,6.4-6,10.4-5.6,21.6,4,86.4,14.8,118,20.4,11.2,2,20,9.2,24.8,19.2,3.6,8,7.6,15.6,7.6,15.6,1.2,2.4,3.2,3.2,4.8,3.6,2.4,0,4-1.6,4.4-3.6l50.8-146.4c.8-2,.4-4-1.2-6-1.6-.4-3.6-1.2-6.4,0h0Zm-311.6,81.6c1.6,1.6,1.6,4.8,.8,6.8l-21.2,61.2c-.8,2-2.8,4.4-4.8,4.8-2.4,1.2-4.8,1.6-7.2-.4-34-18-159.6-86-207.2-110.8-2-.8-2.4-3.2-1.6-4.8,.4-1.2,2-2.8,4-2,52.8,8.8,193.2,34.4,231.2,40.8,3.2,.4,4.8,2,6,4.4h0Zm-96.4-769.6c-2,0-4,1.2-4.8,3.2l-64.4,140.8c-.8,2-.8,4,.8,6,1.6,.8,4.4,2,6,.4,0,0,8-2.8,16.8-5.2,10.4-4,22.4-3.2,31.6,3.2,63.6,42.4,320.8,214.8,391.6,261.6,.8,.4,2,3.2,1.6,4-.8,2-3.6,2.8-4.4,2.4-81.6-22.8-380.4-104.8-454.4-125.2-10.8-2.8-19.2-11.2-23.2-21.6-3.6-8.4-6-17.2-6-17.2-.4-1.2-3.2-2.4-5.2-3.2-2,0-4,1.2-4.8,3.2l-64.4,140.8c-.8,2-.8,4,.8,6,1.6,.8,4.4,2,5.6,1.6,0,0,24-9.2,37.6-14.8,6.4-2.8,14-2.4,21.2-1.2,38.4,9.6,174.8,44.8,224.4,57.2,10.8,2.8,18.8,11.2,22.8,21.6,4.8,11.2,9.6,24.4,9.6,24.4,.8,1.2,1.2,2.4,2,2.8,2,.8,3.2,.4,4.4,0,0,0,33.2-12.4,50.4-18.8,6.8-2.4,14.8-3.2,21.6-1.2,37.2,9.6,166.4,42,213.2,54.8,10.8,2.8,20.4,10.4,24.4,20.8,3.6,11.6,8.4,24.8,8.4,24.8,1.6,2,2.8,3.6,5.2,3.6,2,0,4-1.6,4.8-3.2l84.8-185.6c.8-2,.8-4-.8-6-1.2-1.6-3.6-1.6-5.6-1.6,0,0-11.2,5.2-21.2,8-10.8,4-22.4,3.2-31.6-3.2-40-28.4-151.6-105.6-183.2-128-6-3.6-10.4-10.4-13.2-16.8-6.4-17.2-18.4-50.4-18.4-50.4-.8-1.2-1.2-2.8-2.8-3.6-1.2-.4-2.4,0-3.6,.8,0,0-13.2,4.8-24.8,8.4-10.4,4-22.4,2.8-31.2-3.6-42-28.8-157.6-109.2-189.6-132.8-6-3.6-11.2-9.2-13.6-16-4.4-14-13.6-37.2-13.6-37.2,0-2-2.8-3.2-4.8-4h0Zm852.8-101.2s-23.2,5.2-38.4,8.4c-7.2,1.6-13.6,.8-20-2.4-37.6-14.8-167.6-68.8-214.4-88.4-10.4-4.4-17.6-13.6-20-24.8-2.4-10.8-5.2-24.8-5.2-24.8-.4-1.2-.8-2.8-2.4-4-.8-.4-2,0-3.6,.4,0,0-35.2,6.8-53.2,10.4-7.2,1.6-14.4,1.6-20.8-1.2-35.6-14.8-159.6-66.4-204-85.6-10.4-4.4-18-12.8-20.4-24-2.8-12.4-5.6-26-5.6-26-.4-1.6-2.4-4-4.4-4.4-2.4,0-4.4,1.2-5.2,2.8l-110.8,171.2c-1.2,1.6-1.6,4-.4,6,1.2,2,4.4,2.8,5.6,2.4,0,0,11.6-3.2,22-4.8,11.2-2.4,22.8,0,30.8,8,36.4,34,134.8,126.4,164,153.6,5.2,4.4,8,11.2,9.6,18,4,18,12,53.2,12,53.2,.4,1.2,.8,2.8,1.6,3.2,1.6,1.2,3.2,.8,4.4,.4,0,0,14-2.8,24.8-5.2,11.2-2.4,22.4,0,30.8,8,37.2,34.4,139.6,130.8,169.2,158,4.8,5.6,8.4,11.2,9.6,18.4,3.6,15.2,8.4,38.4,8.4,38.4,.4,2.8,2,4,4,5.2,2,0,4-1.2,5.2-2.8l84-130c1.2-1.6,1.2-4,.4-6-2-1.2-3.6-2-5.6-2.4,0,0-8.8,2.8-17.2,4.4-10.8,2.4-22.4,0-30.4-7.6-24-21.6-72.4-66-89.2-80.4-2.8-2.8-4-8.4-1.6-11.6l54.8-84.8c2.8-4.4,7.6-4.8,11.2-3.6,20.4,9.6,80.4,35.2,110,48.4,10,4.4,17.2,13.6,19.6,24.8,1.6,8,3.6,16.4,3.6,16.4,.4,2.8,2,4,4,4.8,2,.4,4-.8,5.2-2.4l84-130.4c1.2-1.6,1.2-3.6,0-5.6-1.6-1.2-3.2-2-6-1.6h0Zm-322,4.8c.8,2,0,5.2-.8,6.8l-35.6,54.4c-.8,1.6-3.2,3.6-5.6,3.6-2.8,.4-4.8,.4-6.8-2.4-28.8-25.6-134.8-121.2-174.8-156.8-1.6-1.2-1.6-3.2-.4-5.2,.4-.8,2.4-2,4-.8,49.6,21.2,180,79.2,215.2,94.8,2.8,.8,4,2.8,4.8,5.6h0Zm339.2-580c-1.2,.4-4,.4-5.6,2l-104,118.8c-2,2-2,4.8-.4,6.4,7.2,12.8,34.8,62.4,44.8,80.4,.4,.4,2,2,4.4,2.4,1.2,0,2.8,0,4-1.6l34.8-40c2.8-2.8,8.4-3.2,11.6-.4l106.8,94c25.6,22.4,12,42.4,3.2,52l-25.6,29.2c-8.4,10-26,25.2-51.6,2.8l-302.8-266c-24.8-22-11.6-41.2-3.2-50.8l25.6-29.6c8.8-9.6,26.8-25.6,51.6-4l72.8,64c1.6,1.6,3.6,2,6,1.2,.4-.8,2.4-1.6,3.2-3.6,4.8-20.8,19.2-78,23.6-95.2,.4-3.6-.4-7.2-2.8-9.2l-30.8-26.8s-102-99.2-194.4,6l-29.6,34c-93.2,106,18,194.4,18,194.4l110,96.4c6.4,6,10.4,14.8,12,23.6,0,12.4,1.6,28.4,1.6,28.4,0,1.6,.4,2.8,1.2,3.6,1.2,1.2,2.8,1.2,4,1.2,0,0,15.6-1.2,28.4-2,8.4-.8,17.6,2.4,24.4,8.4l109.2,96s102,98.8,195.2-7.2l29.6-33.6c92.4-105.2-18.8-193.6-18.8-193.6l-139.2-122.4c-6.8-6-11.6-14-11.2-23.2-.8-12.8-2-31.2-2-31.2,0-1.2-1.6-4-4-4.8h0Zm96.4-346.4l94-79.2c6.8-6,15.6-9.6,24.8-8,13.6,.4,31.6,2,31.6,2,1.6,0,3.6-.4,4.8-2.4,.8-2,0-4.4-1.2-5.6l-75.2-89.6c-3.2-4-8.8-4.4-12-1.6l-234.8,197.6c-1.6,1.6-2.4,3.6-2,5.6,1.6,1.6,3.2,4,5.6,3.2,0,0,16.8,1.6,29.6,2.8,8.4,.4,17.2,4.8,23.2,11.6l150,178.4c6,6.8,8.4,16.4,8.4,25.6-1.2,12.4-2.4,29.6-2.4,29.6,0,1.2-.4,2.8,.4,3.6,1.2,1.2,2.8,1.6,4,1.6,0,0,16.8,1.6,29.6,2.4,8.4,.8,17.2,5.2,23.2,12l149.6,177.6c5.6,6.8,8.4,16,7.6,24.8-.8,12.4-2.4,29.6-2.4,29.6-.4,2.8,1.2,4,2.4,5.6,2,1.2,4,.4,5.6-.8l234.8-198c3.2-2.4,3.6-8,.8-11.2l-75.6-90c-2-2.4-3.6-2.4-5.6-2-2.4,.8-3.6,2-3.2,4,0,0-2.4,19.2-2.8,32.4-1.6,9.2-5.2,17.2-12.8,23.6l-93.2,78.8c-1.6,1.2-4.4,2.4-6.8,1.6-2,.4-4-.4-6-2.8l-110.8-131.6c-2-2.4-2.4-4.4-1.6-6.4-.4-2,1.2-4.8,2.8-6l64.8-54.8c6.8-6,16.4-8.8,24.8-8,14,1.2,32.4,2.8,32.4,2.8,2.8,0,4.4-1.2,5.2-3.2,.8-2,.8-3.6-.4-5.2l-99.6-118.4c-1.2-1.2-3.6-2.4-5.6-1.6-2,.4-3.2,2.4-4,4.4,0,0-.8,18-2.4,31.2-.8,8.4-5.2,17.2-12,23.2l-66,55.2c-3.6,3.2-9.2,2.8-12-.4l-111.2-132c-3.2-4-2.4-8.8,1.6-12h0Zm1544.4-376.4l-22.4-63.2c-25.2-69.6-60.8-91.6-121.6-106.8-9.2-2-16.8-7.6-21.6-15.6-6-10.4-12.8-22.8-12.8-22.8-1.2-.8-1.6-2.4-2.8-2-2-.4-3.2,0-4,.4,0,0-27.6,15.2-39.2,21.6-3.6,1.2-7.6,1.6-11.2,.8-57.2-14.4-54.4-30.4-68.4-68.8l-17.2-48c-11.2-30.8,10.4-41.6,22.4-46l17.2-6.4c12-4.4,35.6-9.6,46.8,21.2l24.8,68.4c.8,2,2.4,3.6,3.6,4,2-.4,4-.4,4.8-1.6,15.2-16,55.2-59.2,67.2-72,1.2-2.4,2.4-6,1.2-8.8l-5.6-16s-42-136-174.4-88l-20.8,7.6c-132.4,48-77.6,178.8-77.6,178.8l16.8,47.2c30,82.4,52.8,104.8,138.8,121.6,9.2,2,18,8.4,22,16.8,5.6,9.2,11.2,18.8,11.2,18.8,.4,2,1.6,2.8,3.2,3.2,.8-.4,3.2,0,3.6-1.2,0,0,24-13.2,34.8-18.8,4.4-2,9.6-2.8,13.6-.8,46,13.2,44,30.8,54,58.8l21.6,59.2c11.6,32-8.4,42.4-20.4,46.8l-29.2,10.4c-11.2,4-34,9.2-45.6-22.8l-24.4-67.6c-.4-.8-2-2.4-4-2.8-1.2-.4-3.2,.4-4.8,2-14.4,15.6-55.2,58.8-67.6,72-2,2.8-3.2,5.2-2,9.2l4.8,13.2s43.2,136.4,174.8,88.8l32.8-12c131.6-47.6,77.6-178.8,77.6-178.8h0Zm556.8,9.6s-20-13.2-32.8-22c-6-4-10-9.2-12.4-15.6-15.6-37.6-67.2-168.4-86-215.6-4-10.4-2.4-22,4-31.6,6.4-9.2,14-21.2,14-21.2,.8-1.2,1.6-2.4,1.2-4,0-1.2-1.2-2-2.4-2.8,0,0-29.6-20.4-44.8-30.8-6-4-11.2-8.8-13.6-15.6-14-36-63.6-160.8-80.8-206-4-10.4-3.2-22,2.8-31.2,7.2-10.8,15.2-22.4,15.2-22.4,.8-1.2,.8-4.4-.4-6-1.2-2-3.6-2.4-5.6-2l-200,40c-2,.4-3.6,1.6-4.4,4-.4,2,1.2,4.8,2.4,5.6,0,0,10.4,6,18.8,12.4,9.2,6.4,15.6,16.4,15.6,27.6,.8,49.6,3.2,184.8,4,224.4,.4,7.2-2,13.6-6,19.6-10.4,15.2-29.6,45.6-29.6,45.6-.8,1.2-1.6,2.4-1.6,3.6,.4,2,1.6,2.8,2.8,3.6,0,0,12,7.6,21.2,14,9.6,6.4,15.6,16.4,15.6,27.6,1.2,50.8,3.6,191.2,4.8,231.6-.8,7.2-2.4,13.6-6.4,19.6-8.8,12.8-22,32.8-22,32.8-1.6,2.4-1.2,4.4-.8,6.4,1.2,1.6,3.6,2.4,5.6,2l152-30.4c2-.4,3.6-2,4-4-.4-2-.8-4-2-5.6,0,0-8-4.8-15.2-9.2-9.2-6.4-15.2-16.4-15.6-27.6-1.2-32-3.2-97.6-4.4-119.6,0-4,3.2-8.8,7.2-9.6l99.2-19.6c4.8-1.2,8.4,2,10,6,7.6,20.8,30.8,82,42,112,4,10.4,2.4,22-4,31.2-4.8,7.2-9.2,14.4-9.2,14.4-1.6,2.4-1.2,4-.8,6,1.2,2,3.2,2.4,5.2,2l152-30.4c2-.4,4-1.6,4.4-4-.4-1.6-.8-3.6-3.2-5.2Zm-228-228c-.4,2.4-3.2,4-5.2,4.4l-63.6,12.8c-2,.4-5.2,0-6.8-2-2.4-1.6-3.6-3.2-3.2-6.4-1.6-38.4-6.8-181.2-9.2-234.8-.4-2,1.2-3.2,3.2-3.6,1.2-.4,3.2,.4,3.6,2.4,19.2,50,68.4,184,82,220,1.2,2.8,.8,5.2-.8,7.2h0Zm617.2-470.8c-1.2-2-3.2-2.8-5.2-2.4l-154.4,15.2c-2,.4-4,1.6-4.8,3.6,.4,2,.8,4.8,2.8,5.6,0,0,6.4,5.6,13.2,12,8.8,6.8,13.6,17.6,12.8,28.8-4.4,76.4-24,385.6-28.4,470,0,1.2-2,3.2-2.8,3.2-2,.4-4.4-1.2-4.4-2.4-21.2-82-101.2-381.2-120.4-455.6-3.2-10.8-.4-22,6.8-30.8,5.2-7.2,11.6-14,11.6-14,.8-1.2,.8-4,.4-6-1.2-2-3.2-2.8-5.2-2.4l-154.4,15.2c-2,0-3.6,1.2-4.4,3.6,0,2,.4,4.8,1.6,5.6,0,0,19.6,16,31.6,24.8,5.2,4.8,9.2,11.2,11.6,18,10.8,38.4,49.6,173.6,63.6,222.4,2.8,10.8,0,22.4-7.2,30.8-7.2,10-16,20.8-16,20.8-.8,1.2-1.6,2-1.6,3.2,0,2,1.2,2.8,2.4,3.6,0,0,27.2,22.4,41.6,34,5.2,4.8,10,11.2,11.6,18,10.8,37.2,47.6,164.8,60.4,212,2.8,10.4,1.2,22.8-6,31.6-8,8.8-17.2,19.6-17.2,19.6-.8,2.4-1.6,4.4-.4,6.4,1.2,1.6,3.2,2.4,5.2,2.4l203.2-20.4c2,0,4-1.2,4.8-3.2,.8-2-.4-4-1.6-6,0,0-10-7.2-17.6-14.4-8.8-7.2-14-17.6-12.8-28.8,4-48.8,14.8-184,18-222.4,.4-7.2,3.6-14.4,8-20,11.6-14.4,34-41.6,34-41.6,.8-1.2,2-2,1.6-4,0-1.2-1.2-2-2.4-2.8,0,0-10.8-9.2-19.6-17.2-8.8-7.2-14-17.6-12.8-28.8,4-50.8,15.2-191.2,19.2-230.8,.4-6.8,2.4-14.4,7.2-19.6,10-11.2,24.8-30.4,24.8-30.4,2-1.2,1.6-4.4,1.6-6.4Zm516.8,686.8s-16-17.6-26.4-29.2c-4.8-5.2-7.6-11.2-8.4-18.4-6-40-24.4-179.6-31.2-230-1.6-10.8,2.8-21.6,11.2-29.2,8.4-7.6,18.8-17.2,18.8-17.2,1.2-1.2,2.4-2,2.4-4,0-.8-.8-2-2-3.2,0,0-23.6-27.2-36-40.4-4.8-5.6-8.4-11.6-9.2-18.8-5.2-38-23.2-171.2-28.8-219.6-1.6-10.8,2-21.6,10.4-29.2,9.2-8.8,20-18.4,20-18.4,.8-.8,2-3.6,1.2-6-1.2-2-2.8-2.8-4.8-3.2l-204-9.2c-2-.4-4,.8-5.2,2.8-.8,1.6,0,4.8,.8,6,0,0,8.8,8.4,15.2,16.8,7.6,8,11.2,19.2,8.8,30.4-11.2,48.4-41.6,180-50.4,218.8-1.2,6.8-5.6,12.8-10.8,17.6-13.6,12.4-39.6,37.2-39.6,37.2-1.2,.8-2.4,1.6-2.4,2.8,0,2,.8,3.2,2,4,0,0,9.6,10.4,17.2,18.8s10.8,19.6,8.4,30.4c-11.2,49.6-42.8,186.8-51.6,226-2.4,7.2-5.6,12.8-10.8,17.6-11.6,10.4-29.2,26.4-29.2,26.4-2,2-2,4-2.4,6,1.2,2,2.8,3.2,5.2,3.2l154.8,7.2c2,0,4-.8,4.8-2.8,.4-2,.4-4-.4-6,0,0-6.8-6.4-12.4-12.4-8-8.4-11.2-19.6-8.8-30.4,6.4-31.6,20.4-95.6,24.4-117.2,1.2-4,5.6-7.6,9.6-7.6l100.8,4.8c4.8,0,7.6,4,8.4,8.4,2,22,10,86.8,13.6,118.8,1.6,11.2-2.8,22-11.2,29.6-6.4,5.6-12.8,11.2-12.8,11.2-2,2-2,4-2,6,.8,2,2.8,3.2,4.8,3.2l154.8,7.2c2,0,4-.8,5.2-2.8,0-2,0-4-2-6h0Zm-166.4-276c-.8,2-4,2.8-6,2.8l-64.8-3.2c-2,0-5.2-1.2-6-3.2-2-2-2.8-4.4-1.6-7.2,7.6-37.6,37.2-177.6,47.6-230,.4-2,2.4-2.8,4.4-2.8,.8,0,2.8,1.2,2.8,3.2,6.4,53.2,22,195.2,26,233.6,.8,2.8,0,4.8-2.4,6.8Zm671.2,.8c-.8-1.2-2.4-3.6-4.4-4l-155.2-30c-2.8-.4-5.2,1.2-5.6,3.2-7.6,12.4-36.4,61.6-46.8,79.2-.4,.8-.8,2.8,0,4.8,.8,1.2,1.6,2.4,3.6,2.8l52,10c4,.8,7.2,5.6,6.4,9.6l-27.2,140c-6.4,33.2-30.4,31.6-43.2,28.8l-38.4-7.2c-12.8-2.4-34.8-9.6-28.4-42.8l76.4-396c6.4-32.4,29.2-31.2,42-28.4l38.4,7.2c12.8,2.4,35.6,10,29.6,42.4l-18.4,95.2c-.4,2,.4,4,2,5.6,.8,0,2.8,1.6,4.8,.8,20.8-6.4,76.8-22.8,94-27.6,3.2-1.6,6-4,6.4-7.2l8-40s33.6-138.4-104-164.8l-44-8.4c-138.4-26.8-158.4,114-158.4,114l-27.6,143.6c-2,8.8-7.6,16.8-14.8,22.4-10.4,6-23.2,16-23.2,16-1.2,.4-2.4,1.2-2.8,2.4,0,2,.4,3.2,1.2,4.4,0,0,8.8,12.8,16,23.2,4.8,6.8,7.2,16.4,5.2,25.6l-27.2,142.8s-34,138,104.8,164.4l44,8.4c137.6,26.8,157.6-114,157.6-114l34.8-182c1.6-8.8,6.4-17.2,14.4-21.6,10.4-7.2,25.6-17.2,25.6-17.2,1.2-.8,2.8-3.6,2.4-5.6Zm343.6-92.8l116.4,40.4c8.4,2.8,16,8.4,19.2,17.2,6.8,11.6,14.8,28.4,14.8,28.4,.4,1.2,2,2.8,4.4,2.4,2-.4,3.6-2,4.4-3.6l38.4-110.8c1.6-4.4-.8-9.6-4.8-10.8l-290-100.8c-2-.4-4,0-5.6,1.2-.8,2-1.6,4.8-.4,6.4,0,0,7.6,15.2,13.2,26.8,3.6,7.6,4.4,17.6,1.6,26l-76.4,220c-2.8,8.8-9.6,16-17.6,20.4-11.2,5.6-26.8,13.2-26.8,13.2-1.2,.4-2.4,1.2-2.8,2-.4,2,0,3.2,.8,4.4,0,0,7.2,15.2,12.8,26.8,3.6,7.6,4.4,17.6,1.6,26l-76,219.2c-2.8,8.4-9.6,15.6-17.2,19.2-11.6,5.6-26.8,13.2-26.8,13.2-2.4,1.2-3.2,3.2-3.6,4.8,0,2.4,1.6,4,3.6,4.8l290,100.4c4,1.2,8.8-1.2,10.4-5.2l38.4-111.2c1.2-2.8,.4-4-1.2-5.6-1.6-1.6-3.6-2.4-5.2-.8,0,0-17.2,7.6-29.2,14.4-8.4,3.2-17.2,4-26.8,.8l-115.2-40c-2-.4-4.4-2.4-4.8-4.4-1.6-1.6-2-4-.8-6.8l56.4-162.8c.8-2.8,2.4-4,4.8-4.4,1.6-1.6,4.8-1.6,6.4-.8l80.4,27.6c8.4,3.2,15.6,9.6,19.6,17.2,6,12.8,14,29.2,14,29.2,1.2,2.8,3.2,3.2,5.6,2.8,2,0,3.2-.8,4-2.8l50.8-146c.4-2,.4-4.4-1.2-6-1.6-1.6-4-1.2-6-.8,0,0-15.6,8.4-28,13.6-7.6,3.6-17.6,4.4-26,1.6l-81.2-28c-4.8-2-7.2-6.8-6-10.8l56.8-163.2c1.6-4.8,6.4-6.4,10.8-4.8h0Zm-843.2,7099.6s20,13.2,33.2,21.6c5.6,4,10,9.2,12,16,15.6,37.2,67.6,168,86,215.6,4.4,10.4,2.4,22-4,31.2-6,9.6-14,21.2-14,21.2-.8,1.2-1.6,2.4-1.2,4.4,.4,.8,1.6,1.6,2.8,2.4,0,0,29.6,20.8,44.8,30.8,6,4,10.8,9.2,13.2,15.6,14.4,36,63.6,160.8,81.2,206.4,4,10.4,3.2,21.6-3.2,31.2-6.8,10.4-14.8,22.4-14.8,22.4-.8,.8-1.2,4,0,6,1.6,1.6,3.6,2.4,5.6,2l200-40c2-.4,4-2,4.4-4,.8-2.4-.8-4.8-2-5.6,0,0-10.4-6.4-18.8-12.8-9.6-6-15.6-16-16-27.2-.8-50-3.2-185.2-4-224.8-.4-6.8,2.4-13.6,6.4-19.6,10-15.2,29.6-45.6,29.6-45.6,.8-1.2,1.6-2.4,1.2-3.2-.4-2-1.6-2.8-2.8-3.6,0,0-11.6-8-21.2-14.4-9.2-6-15.2-16-15.6-27.2-.8-50.8-3.6-191.6-4.4-232,.4-7.2,2.4-13.6,6.4-19.6,8.4-12.8,22-32.8,22-32.8,1.6-2,1.2-4,.8-6-1.6-2-3.6-2.4-5.6-2l-152,30.4c-2,.4-3.6,1.6-4.4,4,.4,1.6,.8,3.6,2,5.6,0,0,8.4,4.4,15.2,9.2,9.6,6,15.6,16,15.6,27.2,1.6,32.4,3.2,97.6,4.8,119.6-.4,4.4-3.6,8.8-7.2,9.6l-99.2,20c-4.8,.8-8.8-2.4-10.4-6-7.2-21.2-30.8-82-41.6-112.4-4.4-10.4-2.4-22,3.6-31.2,4.8-7.2,9.6-14,9.6-14,1.6-2.4,1.2-4.4,.8-6.4-1.6-1.6-3.6-2.4-5.6-2l-152,30.4c-2,.4-3.6,1.6-4.4,4,.4,2,.8,4,3.2,5.6h0Zm228,227.6c.8-2.4,3.6-3.6,5.6-4l63.6-12.8c2-.4,5.2,0,6.4,1.6,2.4,1.6,3.6,3.2,3.6,6.4,1.2,38.4,6.4,181.2,9.2,234.8,.4,2-1.6,3.6-3.6,4-.8,0-3.2-.4-3.6-2.4-19.2-50.4-68.4-184.4-81.6-220.4-1.6-2.8-.8-4.8,.4-7.2h0Zm-651.2,455.2c1.2,2,3.2,2.8,5.2,2.8l154.8-7.6c2-.4,4-1.2,4.8-3.6,0-2,0-4.8-2.4-5.6,0,0-6-5.6-12.4-12.4-8.4-7.6-12.8-18.4-11.6-29.2,8.4-76.4,42.8-384,51.6-468.4,0-1.2,2-3.2,2.8-3.2,2,0,4,1.6,4,2.8,17.2,82.8,82.8,385.6,98.4,460.8,2.8,10.8-.8,22-8.4,30.4-5.6,7.2-12.4,13.6-12.4,13.6-.8,.8-.8,4-.8,6,1.2,2,3.2,2.8,5.2,2.8l154.8-8c2,0,4-1.2,4.8-3.2,0-2,0-4.8-1.2-6,0,0-18.8-16.8-30.4-26.4-5.2-4.8-8.4-11.6-10.8-18.4-9.2-38.4-40.8-175.6-52.4-225.2-2.4-10.8,.8-22,8.4-30.4,7.6-9.2,17.2-20,17.2-20,.8-.8,1.6-2,1.6-2.8,0-2-1.2-3.2-2-4,0,0-26.4-23.6-40-36-5.2-4.8-9.6-11.6-10.8-18.4-8.8-37.6-39.6-167.2-50-214.4-2.4-11.2,0-23.2,7.6-31.6,8.4-8.4,18-18.8,18-18.8,.8-2,1.6-4.4,.8-6-1.2-2-3.2-3.2-5.2-2.8l-204,10c-2,.4-3.6,1.2-4.8,3.2-.8,2.4,.4,4,1.6,6,0,0,9.2,7.6,16.8,15.2,8.4,7.6,12.8,18.4,11.2,29.6-6.4,48.4-23.6,183.2-28.8,221.2-.8,7.2-4.4,14.4-9.2,19.6-12,13.6-36,40-36,40-.8,.8-1.6,2-1.6,4,0,1.2,1.2,2,2,2.8,0,0,10.4,9.6,19.2,18,8.4,7.6,12.8,18.4,11.2,29.6-6.4,50.4-24.4,190-30.4,229.2-.8,7.2-3.2,14.4-8,19.6-10.4,10.4-26.4,29.2-26.4,29.2-2,1.2-2,4-2,6h0Zm-483.2-693.6s15.2,18.4,25.2,30.4c4.4,5.2,6.8,11.6,7.2,18.8,4.4,40,16,180.4,20.4,230.8,.8,11.2-4,22-12.8,29.2s-19.6,16-19.6,16c-1.2,.8-2.4,2-2.4,4,0,.8,.8,2,1.6,3.2,0,0,22.4,28,34.4,42.4,4.4,5.2,7.6,11.6,8,18.8,3.6,38.4,14.8,172,18.4,220.8,.8,10.8-3.2,21.6-12,28.8-9.6,8-20.4,17.2-20.4,17.2-1.2,.8-2.4,3.6-1.6,6,.8,2,2.4,3.2,4.4,3.2l203.2,19.2c2,.4,4-.4,5.2-2.4s.4-4.8-.4-6c0,0-8-8.8-14.4-17.6-7.2-8.4-10-20-7.2-30.8,13.6-48,50-178,60.8-216,1.6-6.8,6.4-12.4,11.6-17.2,14.4-11.6,41.6-35.2,41.6-35.2,1.2-.8,2-1.6,2.4-2.8,0-2-.8-3.2-1.6-4,0,0-9.2-10.8-16.4-19.6s-10-20-7.2-30.8c14-49.2,51.6-184.4,62.4-223.6,2.8-6.4,6.4-12.4,11.6-16.8,12-10,30.8-25.2,30.8-25.2,2-1.6,2.4-3.6,2.4-5.6-.8-2-2.8-3.2-4.8-3.6l-154.4-14.4c-1.6-.4-4,.4-5.2,2.4,0,2-.4,4,.4,6,0,0,6.4,6.8,12,13.2,7.2,8.4,10,20,7.2,30.8-8,31.2-25.2,94.4-30,116-1.6,3.6-6,7.2-10,6.8l-100.4-9.6c-5.2-.4-7.6-4.4-8.4-8.4-.8-22.4-5.6-87.6-7.6-119.6-.8-11.2,4-22,12.8-28.8,6.4-5.6,13.2-10.8,13.2-10.8,2-2,2.4-4,2.4-6-.8-2-2.8-3.2-4.8-3.2l-154-14.8c-2,0-4.4,.8-5.6,2.4,0,2-.4,4,1.6,6.4h0Zm152.8,283.6c1.2-2,4.4-2.8,6.4-2.4l64.8,6c2,.4,4.8,1.6,5.6,3.6,1.6,2.4,2.4,4.4,1.2,7.2-9.6,37.2-45.6,175.6-58.8,227.6,0,2-2,2.8-4,2.4-1.2,0-3.2-1.2-2.8-3.2-4-53.6-12.4-196-14.8-234.4-.8-3.2,.4-5.2,2.4-6.8h0Zm-672.8-16.4c.8,1.2,2.4,3.6,4.4,4l153.6,37.2c2.8,.8,5.2-.8,5.6-2.4,8-12.4,39.2-60.4,50.8-77.2,0-.8,.4-2.8,0-4.8-.8-1.2-1.6-2.4-3.2-3.2l-51.6-12.4c-4-.8-6.8-5.6-6-9.6l33.6-138.4c8-32.8,32-30.4,44.8-27.2l37.6,9.2c12.8,3.2,34.4,11.6,26.4,44.4l-94.8,391.6c-8,32-30.8,29.6-43.6,26.8l-38-9.2c-12.4-3.2-35.2-12-27.6-44l23.2-94c.4-2,0-4.4-2-5.6-.8-.4-2.4-1.6-4.8-1.2-20.8,5.2-77.6,19.2-95.2,23.2-3.2,1.2-6,3.6-6.8,6.4l-9.6,40s-40,136.4,96,169.2l43.6,10.8c137.2,33.2,163.6-106.4,163.6-106.4l34.4-142c2.4-8.8,8.4-16.4,15.6-21.6,10.8-5.6,24.4-14.8,24.4-14.8,1.2-.8,2.4-1.6,2.4-2.4,.4-2,0-3.2-.8-4.4,0,0-8.4-13.2-14.8-24-4.4-7.2-6.4-16.8-4-25.6l34-141.6s40.4-136-96.8-169.2l-43.6-10.8c-136-32.8-162.8,106.4-162.8,106.4l-43.6,180.4c-2,8.4-7.2,16.8-15.2,20.8-10.8,6.8-26.8,16-26.8,16-1.2,.8-2.8,3.6-2.4,5.6h0Zm-326.4,99.2l-116-40.4c-8.8-2.8-16-8.8-19.6-17.2-6.4-12-14.4-28.4-14.4-28.4-.8-1.2-2.4-2.8-4.4-2.4-2.4,0-4,1.6-4.4,3.6l-38.4,110.4c-1.6,4.8,.8,10,4.8,11.2l290,100.4c2,.8,4,.4,5.6-1.2,.8-1.6,1.6-4.4,0-6,0,0-7.2-15.6-12.8-26.8-3.6-7.6-4.8-17.6-1.6-26l76-220.4c3.2-8.4,10-15.6,17.6-20,11.6-5.6,26.8-13.2,26.8-13.2,1.2-.4,2.8-1.2,2.8-2,.8-2,.4-3.2-.4-4.4,0,0-7.6-15.6-12.8-26.8-4-7.6-4.8-17.6-1.6-26l75.6-219.2c3.2-8.4,10-15.6,17.6-19.6,11.2-5.6,26.4-12.8,26.4-12.8,2.8-1.2,3.2-3.2,4-5.2-.4-2-2-3.6-3.6-4.4l-290.4-100.4c-3.6-1.2-8.8,1.2-10,4.8l-38.4,111.6c-1.2,2.8-.4,4,1.2,5.6s3.2,2.4,4.8,.8c0,0,17.6-7.6,29.2-14.4,8.8-3.2,17.6-4.4,26.8-.8l115.6,39.6c1.6,.8,4.4,2.8,4.4,4.8,1.6,1.6,2,3.6,1.2,6.8l-56.4,162.8c-1.2,2.8-2.8,4-4.8,4.4-1.6,1.6-4.8,1.6-6.8,.8l-80.4-27.6c-8.4-3.2-15.6-10-19.2-17.2-6.4-12.8-14.4-29.2-14.4-29.2-1.2-2.8-3.2-3.2-5.2-3.2-2.4,.4-3.6,1.2-4,2.8l-50.8,146.4c-.8,2-.4,4,1.2,5.6s3.6,1.6,6,1.2c0,0,15.6-8.4,28-13.6,7.6-3.6,17.2-4.4,26-1.6l81.2,28c4.8,1.6,7.2,6.8,6,10.8l-56.8,163.2c-1.6,4.8-6.4,6.4-11.2,4.8h0Zm-1100.4-1165.2l-44,50c-48.8,55.6-51.2,97.6-35.2,158,2.8,9.2,1.2,18.4-3.2,26.4-6.4,10.4-14,22-14,22,0,1.6-1.2,3.2-.4,3.6,.8,2,1.6,2.8,2.4,3.6,0,0,26.4,16.8,37.6,23.6,2.8,2.8,5.2,6,6.4,9.6,14.8,57.2-.4,62.4-27.2,93.2l-34,38c-21.6,24.8-41.6,11.2-51.2,2.8l-13.6-12c-9.6-8.4-26-26.8-4-51.2l48-54.8c1.2-1.6,2-3.6,1.6-5.2-1.2-1.2-2.4-3.2-3.6-3.2-21.6-5.6-78.4-20-95.6-24.4-2.8,0-6.4,1.2-8.4,3.2l-11.2,12.8s-98.8,102,7.2,195.2l16.4,14.4c106,93.2,194.4-18,194.4-18l32.8-37.6c58-66,66.4-96.8,40-180.4-2.8-8.8-1.2-19.6,3.6-27.2,6-9.2,11.6-18.8,11.6-18.8,1.2-1.6,1.2-2.8,1.2-4.4-.8-.8-1.6-2.8-3.2-2.8,0,0-22.8-14.8-33.2-21.2-3.6-3.2-6.8-7.2-7.2-11.6-10.8-46.8,6-53.2,25.6-75.6l41.6-47.6c22.4-25.2,40.8-13.2,50.4-4.4l23.6,20.4c8.8,8,24,25.2,2,50.8l-47.6,54c-.8,.8-1.2,2.8-.4,4.8,0,1.6,1.6,2.8,4,3.6,20.8,4.8,78.4,19.6,95.6,24.4,3.6,.4,6.4,0,8.8-2.8l9.2-10.8s98.8-103.2-6-195.6l-26.4-23.2c-105.2-92.4-194.4,18.4-194.4,18.4h0Zm-272-480.8s-.8,24-1.2,39.6c-.4,6.8-2.8,13.2-7.2,18.8-23.6,32.8-107.6,145.6-138.4,186.4-6.4,8.8-17.2,13.2-28.4,12.8-11.6-.4-25.6-.8-25.6-.8-1.6,0-2.8,0-4.4,1.2-.8,.8-.8,2.4-.8,3.6,0,0-2,36-2.4,54.4-.4,7.2-2,14-6.4,19.6-23.2,31.2-103.2,138.8-132.8,177.2-6.8,8.8-16.8,14.4-28.4,14-12.4-.4-26.8-1.2-26.8-1.2-1.2,0-4,1.6-4.8,3.6s-.4,4,1.2,5.6l138.8,149.2c1.6,1.6,3.6,2.4,5.6,1.6,2.4-.4,4-3.2,4-4.8,0,0-.4-12,.8-22.4,.4-11.6,5.6-22,15.2-28,41.6-26.8,155.6-100,188.8-121.6,5.6-4,12.8-5.2,20-4.8,18.4,.8,54.4,1.2,54.4,1.2,1.2,0,2.8,0,3.6-.4,1.2-1.6,1.6-2.8,1.6-4.4,0,0,.4-14,.8-25.2,.4-11.6,5.6-22,15.2-28,42.4-27.6,160.8-103.6,194.8-125.6,6.4-3.2,12.8-5.2,20-4.8,15.6,.4,39.2,1.2,39.2,1.2,2.8,.4,4.4-1.2,6-2.4,.8-2,0-4.4-1.2-5.6l-106-113.6c-1.2-1.2-3.2-2-5.6-1.6-1.2,1.6-2.8,2.8-3.6,4.8,0,0,.4,9.2,0,17.6,0,11.2-5.6,21.6-14.8,28-26.8,18-81.2,54-99.6,66.8-3.6,2-9.2,1.6-12-1.6l-68.8-73.6c-3.2-3.6-2.4-8.4-.4-12,14-17.2,54-69.2,73.6-94.8,6.8-8.8,17.6-13.2,28.8-12.8,8.4,.4,16.8,.4,16.8,.4,2.8,.4,4.4-1.2,6-2.4,.8-2,0-4.4-1.2-5.6l-106-113.6c-1.2-1.2-3.2-2-5.6-1.6-1.2,1.6-2.8,2.8-2.8,5.6h0Zm-74,313.6c2-.4,4.8,.8,6.4,2.4l44,47.6c1.6,1.6,2.8,4.4,2,6.4,0,2.8-.8,4.8-3.6,6.4-32,21.2-150.8,100.8-194.8,130.8-1.6,1.6-3.6,.8-5.2-.8-.8-.8-1.2-2.8,.4-4,32.4-42.8,120.4-155.2,144.4-185.6,1.2-2.4,3.6-3.2,6.4-3.2h0Zm-720.4-325.6c-.8,2-.4,4,.4,5.6l87.6,128c1.2,2,3.2,2.8,5.2,2.4,1.6-.8,4.4-2.8,4-4.8,0,0,1.6-8.4,4-17.2,2-11.2,8.8-20.8,18.8-25.2,69.6-32.8,350-164,426.4-200.4,.8-.8,3.6,0,4.4,.8,.8,1.6,.4,4.4-.4,4.8-62,58-286,271.6-341.6,324.4-8,8-19.6,10.8-30.4,8.8-9.2-1.2-18-3.6-18-3.6-1.6-.4-4,1.6-5.6,2.4-1.2,2-.8,4.4,.4,6l87.2,128c1.2,1.6,3.2,2.8,5.6,2.4,1.6-1.2,4-2.8,4.4-4,0,0,4.4-25.2,6.4-40,1.2-6.8,5.6-13.2,10-18.8,28.4-28,128.8-126.8,164.8-162.4,8-7.6,19.6-10.8,30.4-8.4,12,1.6,26,4,26,4,1.2,.4,2.8,.4,3.6,0,1.6-1.2,2-2.4,2-4,0,0,6.8-34.8,10-52.8,1.2-6.8,4.8-14,10-18.8,27.2-27.2,122-120.8,156.8-154.4,8-8,19.6-12.4,30.8-10.4,11.6,3.2,25.6,5.6,25.6,5.6,2.4,0,4.4-.4,5.6-2.4,.8-2,.8-4.4-.4-6l-115.2-168.4c-1.2-1.6-3.2-2.8-5.2-2.4-2.4,.4-3.2,2.4-4.4,4.4,0,0-1.6,12-4.4,22-2,11.2-8.8,20.8-18.8,25.2-44.8,19.6-168.8,75.6-204,91.2-6.4,2.8-14.4,3.6-21.2,2.4-18.4-3.6-53.2-10-53.2-10-1.2-.4-2.4-.4-4.4,.4-.8,.8-.8,2-1.2,3.6,0,0-2.4,13.6-5.6,25.6-2,10.8-8.8,20.4-18.8,24.8-46.4,20.8-175.2,78.4-211.6,94-6.4,3.2-14,4.4-20.8,3.2-14.8-3.6-38.8-7.2-38.8-7.2-2-1.2-4.4,.4-6.4,1.6h0Zm349.6-780s-8,22.4-13.2,37.2c-2.4,6.8-6.4,12-12.4,16-32,24.4-146,106.8-187.2,136.4-9.2,6.8-20.8,8-31.6,4-10.4-3.6-24-8.4-24-8.4-1.2-.4-2.4-.8-4.4,0-.8,.4-1.2,1.6-2,3.2,0,0-12.4,33.6-18.4,51.2-2.4,6.4-6,12.8-12,16.8-31.2,22.4-140,101.2-179.6,129.2-9.2,6.8-20.4,8.8-30.8,5.2-12-4.4-25.6-9.2-25.6-9.2-1.2-.4-4.4,0-5.6,2-1.6,1.6-1.6,4-.8,5.6l88.4,184c.8,1.6,2.8,3.2,4.8,3.2,2.4,0,4.4-2.4,5.2-3.6,0,0,3.2-11.6,7.2-21.2,4-10.8,12-19.2,22.8-22,48-13.2,178.4-49.2,216.4-59.6,6.8-2.4,14-1.2,20.8,1.2,17.2,6,51.6,17.2,51.6,17.2,1.2,.4,2.8,1.2,3.6,.4,1.6-.8,2-2,2.8-3.2,0,0,4.4-13.6,8.4-24,3.6-10.8,12-19.2,22.8-22,48.8-13.6,184.4-51.2,223.2-62,7.2-1.2,14-1.2,20.4,1.2,14.8,5.2,37.6,13.2,37.6,13.2,2.4,.8,4.4,0,6-.8,1.6-1.6,1.6-4,.8-5.6l-67.2-140c-.8-1.6-2.8-3.2-4.8-3.2-2,.8-3.6,2-5.2,3.6,0,0-2.4,8.8-5.2,16.8-3.6,10.8-11.6,19.2-22.4,22-30.8,9.2-94,27.2-114.8,34-4.4,.8-9.6-.8-11.2-4.4l-43.6-91.2c-2.4-4.4,0-8.8,3.2-11.6,18.4-12,72-50,98.4-68.4,9.2-6.4,20.8-7.6,31.2-3.6,8,2.8,16,5.6,16,5.6,2.8,.8,4.4,0,6.4-.8,1.2-2,1.2-4,.4-6l-67.2-139.6c-.8-2-2.4-3.2-4.8-3.2-1.6,.8-3.6,1.6-4.4,4.4h0Zm-164.4,277.2c2.4,0,4.8,2.4,5.6,4l28,58.8c.8,1.6,1.2,4.8,0,6.8-1.2,2.4-2.4,4.4-5.6,4.8-36.8,10.8-174,51.2-225.2,66.8-1.6,1.2-3.6-.4-4.4-2-.4-1.2-.4-3.2,1.6-4,43.6-31.2,161.2-112,193.2-134,2-2,4.4-2,6.8-1.2h0Zm-327.2-589.6c-.8,1.2-2,3.6-1.6,5.6l46.4,150.8c.8,3.2,3.2,4.4,5.2,3.6,14.8,.8,71.6,3.2,92,4.4,.8-.4,2.8-.8,4.4-2.4,.8-1.2,1.6-2.4,.8-4.4l-15.6-50.8c-1.2-3.6,1.6-8.8,5.6-10l136-41.6c32.4-10,42.4,12.4,46,24.8l11.6,37.2c3.6,12.4,7.6,35.2-24.8,45.2l-385.6,118c-31.6,9.6-41.2-11.6-44.8-24l-11.6-37.2c-3.6-12.4-7.6-36.4,23.6-46l92.8-28.4c2-.4,3.6-2,4-4.4-.4-.8,0-3.2-1.6-4.8-14.8-15.2-56-56.8-68.4-70-2.8-2.4-6-3.2-9.2-2.4l-39.2,12s-137.6,34.8-96.8,168.8l13.2,42.8c41.2,135.2,175.2,86.8,175.2,86.8l139.6-42.8c8.4-2.4,18-1.2,26.4,2.4,10.4,6.4,25.2,13.2,25.2,13.2,1.2,.8,2.4,1.2,3.2,1.2,2-.8,2.8-2,3.2-3.2,0,0,7.6-13.6,13.2-24.8,4-7.6,11.6-14,20-16.8l139.2-42.4s137.6-34.8,96.4-169.6l-13.2-43.2c-40.8-133.6-174.4-85.6-174.4-85.6l-177.2,54.4c-8.8,2.4-18,2-26-2.8-11.2-6-27.2-14.8-27.2-14.8-1.2-.4-4.4-.4-6,1.2h0Zm-250-233.2l-24-120.8c-2-8.8-.8-18.4,4.8-25.6,7.2-11.6,17.2-26.8,17.2-26.8,.8-1.2,1.6-3.2,0-5.2-1.2-1.6-3.6-2.4-5.6-2l-114.4,23.2c-5.2,.8-8.4,5.6-7.6,9.6l60.4,300.8c.4,2,1.6,4,4,4.4,2-.4,4.8-.8,5.2-3.2,0,0,9.6-14,16.8-24.4,4.4-7.2,12.4-12.8,21.6-14.8l228.4-45.6c8.8-1.6,18.4,.4,26.4,4.8,10.4,7.2,24.8,16.8,24.8,16.8,1.2,.8,2.4,1.6,3.2,1.2,2-.4,2.8-1.6,3.6-2.8,0,0,9.2-14,16.4-24.8,4.8-6.8,12.8-12.4,21.6-14.4l227.6-45.6c8.8-1.6,18.4,.4,25.2,5.2,10.8,7.2,24.8,16.4,24.8,16.4,2.4,1.6,4.4,1.2,6.4,.8,1.6-1.2,2.4-3.6,2-5.2l-60.4-301.2c-.8-4-5.2-7.2-9.2-6.4l-115.6,23.2c-2.8,.8-3.6,1.6-4.4,4-.4,2,0,4,2,4.8,0,0,15.6,11.2,27.2,18,6.8,5.6,12.4,12.8,14.4,22.4l24,119.6c.4,2,0,5.2-2,6.4-.4,2.4-2,3.6-4.8,4.4l-169.2,33.6c-2.8,.8-4.8,0-6.4-1.6-2-.8-3.6-3.6-4-5.6l-16.8-83.2c-1.6-8.8,.4-18.4,5.2-25.6,7.6-11.6,18-26.8,18-26.8,1.6-2.4,1.2-4.4-.4-6-1.2-2-2.4-2.8-4.4-2.4l-151.6,30.4c-2,.4-4,1.6-4.4,4-.8,2,.8,4,2,5.6,0,0,15.2,9.2,26,17.2,7.2,4.8,12.8,12.8,14.4,21.6l16.8,84.4c1.2,4.8-2,9.6-6,10.4l-169.6,34c-4.8,.8-8.8-2.4-9.6-7.2h0Z"/>
	</g>
	<g id="inner_ring">
		<path class="brand" d="M4320,1140c1756.4,0,3180,1423.6,3180,3180h-60c0-1723.2-1396.8-3120-3120-3120h0v-60h0Zm0,6360h0c-1756.4,0-3180-1423.6-3180-3180h60c0,1723.2,1396.8,3120,3120,3120h0v60Z"/>
	</g>
	<path class="brand" d="M3367.2,3450h-405.2l-128.4-310c164,6.8,264.8,9.6,430-21.2,330.4-60.8,630-203.6,858-453.6,76.4-83.2,142-184.8,198.4-290,56,105.2,122,206.8,198,290,228.4,250,527.6,392.4,858.4,453.6,165.2,30.8,266,28,430,21.2l-128.4,310h-404.8c-18.8,110-28.4,189.6-36.8,300h642l441.6-1066c-234.8,86-398.4,160.8-661.2,160.8-76.8,0-153.6-7.2-228-20.8-288.4-53.2-521.2-174.8-691.2-361.2-200.4-219.2-328.8-652.4-330-656.8l-89.6-306-89.6,306c-1.2,4.4-129.6,437.6-330,656.8-170.4,186.4-402.8,308-691.6,361.2-218.4,40.4-445.6,22-654.4-54.4l-234.4-85.6,441.6,1066h642c-8.4-110.4-18-190-36.4-300h0Zm2752.4,545.6c-311.6-54.4-607.6-76.4-908.4-18.4-20.4,118.4-30.8,200-39.6,316,225.6-54.4,433.6-64,665.2-38.4,2,93.2-1.6,186.4-12,278.8,103.2-7.2,205.6-24,305.2-51.6,11.6-164.8,4-319.2-10.4-486.4h0Zm-1097.2,842.4l-2008.8,1840.8,202.8,221.2,1974.8-1809.6c-50-8.4-99.6-17.2-149.6-25.6-6.4-75.6-13.2-151.2-19.2-226.8h0Zm438.8-162c-6.4-95.2-6-185.6,1.2-278.8-118.8,9.2-188.4,25.6-302,52.8-5.6,162.4,6.8,324.8,20.8,486.4,505.6,87.6,1054,79.6,1497.6-211.2-110.8,385.6-432,679.6-825.2,756.4,88.4-112,158-239.6,211.2-372-114,18.4-227.6,26.8-343.2,27.6-172.4,316.8-458.8,498.8-852,422.4,537.2,370.4,1225.2,306.4,1705.2-119.2,480.4-440.4,576-1144,267.2-1688.4,84.8,808.4-764.8,962-1380.8,924h0Zm-2940.8-680.4c311.6-54.4,607.6-76.4,908.4-18.4,20.4,118.4,30.8,200,39.6,316-225.6-54.4-433.6-64-665.2-38.4-2,93.2,1.6,186.4,12,278.8-102.8-7.2-205.6-24-305.2-51.6-11.6-164.8-4-319.2,10.4-486.4h0Zm1097.2,842.4l591.2,542-222,203.2-538-492.8c50-8.4,99.6-17.2,149.6-25.6,6.4-75.6,13.2-151.2,19.2-226.8Zm1035.6,948.8l973.2,892-202.8,221.2-992.4-909.6,222-203.6Zm-1474.4-1110.8c6.4-95.2,6-185.6-1.2-278.8,118.8,9.2,188.4,25.6,302,52.8,6,162.4-6.8,324.8-20.8,486.4-505.6,87.6-1054,79.6-1497.6-211.2,110.8,385.6,432,679.6,825.2,756.4-88.4-112-158-239.6-211.2-372,114,18.4,227.6,26.8,343.2,27.6,172.4,316.8,458.8,498.8,852,422.4-537.2,370.4-1225.2,306.4-1705.2-119.2-480.4-440.4-576-1144-267.2-1688.4-84.8,808.4,764.8,962,1380.8,924h0Z"/>
</svg>