<?xml version="1.0" encoding="UTF-8"?>
<svg xmlns="http://www.w3.org/2000/svg" viewBox="0 0 8640 8640">
	<style>circle {fill: #f0cc90;} path {fill: #202020;}</style>
	<circle cx="4320" cy="4320" r="4320"/>
	<path d="M3176.33,3179.94h-486.06l-153.8-372.02c196.53,8.22,317.47,11.5,515.97-25.31,396.67-73.29,755.88-244.51,1029.64-544.23,91.36-100.24,170.57-221.83,237.94-348.36,67.37,126.53,146.57,248.12,237.94,348.03,274.09,300.05,632.96,471.27,1029.64,544.56,198.83,36.81,319.44,33.52,516.3,25.31l-154.13,372.02h-486.06c-22.02,132.11-33.85,227.42-44.04,360.19h770.67l529.77-1279.07c-281.97,102.86-477.85,192.58-793.34,192.58-92.35,0-184.37-8.22-273.76-24.98-346.06-63.76-625.08-209.67-829.16-433.48-240.57-262.91-395.03-782.83-396.34-788.08l-107.14-367.09-107.47,367.09c-1.64,5.26-155.78,525.17-396.34,788.41-204.09,223.48-483.43,369.39-829.82,433.15-262.26,48.64-535.03,26.62-785.13-65.07l-281.65-102.54,530.1,1279.07h770.67c-10.19-132.77-22.02-228.08-44.37-360.19h0Zm3303.18,654.98c-373.67-65.4-729.26-92.02-1090.11-22.02-24.32,141.97-36.81,239.91-47.32,378.92,270.8-65.07,520.24-76.57,797.94-46.01,2.63,111.74-1.64,223.81-14.13,334.89,123.57-9.2,246.81-28.92,366.11-62.11,14.13-198.17,4.6-383.2-12.49-583.67h0Zm-1316.21,1010.57l-2410.92,2209.13,243.2,265.54,2369.84-2171.67c-59.81-9.86-119.63-20.38-179.44-30.89-7.89-90.71-15.77-181.41-22.68-272.12Zm526.16-194.23c-7.56-114.04-7.23-222.82,1.64-334.89-142.63,11.5-226.11,31.22-362.16,63.76-7.23,194.88,7.89,389.77,24.65,583.67,606.67,104.84,1264.61,95.63,1797.01-253.38-132.77,462.4-518.27,815.69-990.2,907.71,105.82-134.41,189.63-287.56,253.38-446.62-136.72,22.35-273.1,32.54-411.46,33.19-207.37,379.91-551.13,598.46-1022.73,507.09,644.8,444,1470.34,367.42,2046.13-143.29,576.77-528.46,691.13-1373.07,321.08-2025.75,101.55,969.82-917.9,1154.19-1657.34,1108.51h0Zm-3528.96-816.35c373.67-65.4,729.26-92.02,1090.43-22.02,23.99,141.97,36.48,239.91,47.32,378.92-270.8-65.07-520.24-76.57-798.27-46.01-2.3,111.74,1.97,223.81,14.13,334.89-123.57-9.2-246.81-28.92-366.11-62.11-14.13-198.17-4.6-383.2,12.49-583.67h0Zm1316.54,1010.57l709.87,650.38-266.53,244.18-645.78-591.56c60.14-9.86,119.63-20.38,179.44-30.89,7.89-90.71,16.1-181.41,23-272.12h0Zm1242.6,1138.74l1168.32,1070.39-243.19,265.54-1191.33-1091.75,266.2-244.18h0Zm-1768.75-1332.97c7.56-114.04,6.9-222.82-1.97-334.89,142.96,11.5,226.11,31.22,362.49,63.76,7.23,194.88-8.22,389.77-24.65,583.67-606.67,104.84-1264.61,95.63-1797.34-253.38,132.77,462.4,518.27,815.69,990.53,907.71-106.15-134.41-189.96-287.56-253.71-446.62,136.72,22.35,273.1,32.54,411.79,33.19,207.04,379.91,550.8,598.46,1022.41,507.09-644.8,444-1470.34,367.42-2046.13-143.29-576.77-528.46-691.13-1373.07-320.75-2025.75-101.88,969.82,917.9,1154.19,1657.34,1108.51h0Z"/>
</svg>