<?xml version="1.0" encoding="UTF-8"?>
<svg xmlns="http://www.w3.org/2000/svg" viewBox="0 0 8640 8640">
	<style>circle {fill: #f0cc90;} path {fill: #202020;}</style>
	<circle cx="4320" cy="4320" r="4320"/>
	<path d="M3176.55,3180.12h-486.23l-154.03-372.02c196.78,7.83,317.84,11.42,516.25-25.45,396.49-73.1,755.45-244.42,1029.56-544.32,91.37-100.18,170.34-221.91,237.89-348.2,67.55,126.29,146.52,248.01,237.89,347.87,273.79,299.9,633.08,471.23,1029.56,544.65,198.73,36.88,319.47,33.29,516.25,25.45l-154.03,372.02h-485.9c-22.19,131.84-34.26,227.13-44.38,359.95h770.79l529.96-1279.23c-281.95,103.12-478.07,192.86-793.63,192.86-92.02,0-184.05-8.48-273.46-25.13-346.23-63.63-625.24-209.51-829.53-433.37-240.5-262.7-394.53-782.87-396.16-788.09l-107.04-367.12-107.69,367.12c-1.31,5.22-155.66,525.4-396.16,788.42-204.28,223.54-483.29,369.41-829.53,433.04-262.37,48.95-535.18,26.43-785.47-64.94l-281.29-102.8,529.63,1279.23h770.79c-10.12-132.82-22.19-228.11-44.05-359.95h0Zm3302.76,654.62c-373.65-65.27-729.02-91.7-1089.93-21.86-24.15,141.95-36.88,239.85-47.32,378.87,270.85-64.94,520.17-76.69,797.87-46.01,2.61,111.61-1.63,223.86-14.03,334.82,123.35-8.81,246.7-28.72,366.14-62,14.03-198.08,4.57-383.12-12.73-583.81h0Zm-1316.08,1010.65l-2410.91,2209.28,243.11,265.31,2369.79-2171.42c-59.72-9.79-119.44-20.56-179.15-31-7.83-90.72-15.99-181.44-22.84-272.16Zm526.04-194.17c-7.51-114.22-7.18-222.89,1.63-334.82-142.61,11.42-225.82,31-362.22,63.96-7.18,194.49,8.16,389.64,24.8,583.48,606.64,104.75,1264.52,95.62,1797.09-253.23-132.82,462.09-518.21,815.18-990.41,907.53,106.06-134.78,189.92-287.5,253.56-446.75-136.73,22.19-273.14,32.63-411.5,32.96-207.22,380.18-550.84,598.82-1022.71,507.45,644.82,444.14,1470.43,367.45,2046.4-143.26,576.62-528.66,690.84-1373.21,320.78-2025.88,101.81,969.86-917.96,1154.24-1657.42,1108.55h0Zm-3528.58-816.49c373.65-65.27,729.02-91.7,1089.93-21.86,24.47,141.95,36.87,239.85,47.64,378.87-270.85-64.94-520.17-76.69-798.2-46.01-2.61,111.61,1.96,223.86,14.36,334.82-123.68-8.81-247.03-28.72-366.47-62-14.03-198.08-4.57-383.12,12.73-583.81h0Zm1316.41,1010.65l709.76,650.71-266.61,244.1-645.48-591.64c59.72-9.79,119.44-20.56,179.48-31,7.51-90.72,15.66-181.44,22.84-272.16Zm1242.66,1138.9l1167.93,1070.37-243.11,265.31-1191.42-1091.58,266.61-244.1h0Zm-1769.02-1333.07c7.51-114.22,7.18-222.89-1.63-334.82,142.61,11.42,226.15,31,362.22,63.96,7.18,194.49-8.16,389.64-24.8,583.48-606.64,104.75-1264.52,95.62-1797.09-253.23,132.82,462.09,518.21,815.18,990.4,907.53-106.06-134.78-189.92-287.5-253.56-446.75,136.73,22.19,273.14,32.63,411.83,32.96,207.22,380.18,550.84,598.82,1022.39,507.45-644.82,444.14-1470.43,367.45-2046.08-143.26-576.95-528.66-691.16-1373.21-321.11-2025.88-101.49,969.86,918.29,1154.24,1657.42,1108.55h0Z"/>
</svg>