<?xml version="1.0" encoding="UTF-8"?>
<svg xmlns="http://www.w3.org/2000/svg" viewBox="0 0 8640 8640">
	<style>
		.dark {fill: #202020;}
		.light {fill: #f0f0f0;}
		.brand {fill: #f0cc90;}
	</style>
	<polygon class="dark" points="0 0 8640 0 8640 8640 0 8640 0 0"/>
	<path class="brand" d="M1701.12,4053.36h-144l-45.6-110.28c58.2,2.4,94.08,3.36,152.88-7.44,117.48-21.72,223.92-72.48,305.16-161.4,27-29.52,50.4-65.64,70.44-103.08,19.92,37.44,43.44,73.44,70.44,103.08,81.24,88.92,187.56,139.68,305.04,161.4,58.92,10.8,94.68,9.84,153,7.44l-45.6,110.28h-144c-6.6,39.12-10.08,67.32-13.08,106.68h228.36l156.96-379.08c-83.52,30.6-141.6,57.24-235.08,57.24-27.36,0-54.6-2.52-81.12-7.44-102.48-18.96-185.28-62.16-245.76-128.52-71.28-77.88-116.88-231.96-117.36-233.52l-31.8-108.72-31.8,108.72c-.48,1.56-46.08,155.64-117.48,233.64-60.48,66.24-143.16,109.44-245.76,128.4-77.76,14.4-158.52,7.8-232.68-19.32l-83.4-30.48,156.96,379.08h228.36c-3-39.36-6.48-67.56-13.08-106.68h0Zm978.72,193.92c-110.76-19.32-216.12-27.24-323.04-6.48-7.2,42.12-10.92,71.16-14.04,112.32,80.28-19.32,154.2-22.68,236.52-13.68,.72,33.12-.6,66.36-4.2,99.24,36.6-2.64,73.08-8.52,108.48-18.36,4.2-58.68,1.32-113.52-3.72-173.04h0Zm-390,299.52l-714.36,654.6,72,78.6,702.24-643.44c-17.76-2.88-35.4-6-53.16-9.12-2.28-26.88-4.68-53.76-6.72-80.64h0Zm155.88-57.48c-2.28-33.84-2.16-66.12,.48-99.24-42.24,3.36-66.96,9.12-107.28,18.84-2.16,57.72,2.4,115.44,7.32,172.92,179.64,31.08,374.64,28.32,532.44-75-39.36,136.92-153.6,241.56-293.4,268.8,31.32-39.84,56.16-85.08,75.12-132.24-40.56,6.6-81,9.6-122.04,9.72-61.32,112.68-163.2,177.48-303,150.36,191.16,131.52,435.72,108.84,606.36-42.48,170.88-156.6,204.72-406.8,95.04-600.24,30.12,287.4-272.04,342-491.04,328.56h0Zm-1045.56-242.04c110.76-19.32,216.12-27.24,323.04-6.48,7.2,42.12,10.92,71.16,14.04,112.32-80.28-19.32-154.2-22.68-236.52-13.68-.72,33.12,.6,66.36,4.2,99.24-36.6-2.64-73.08-8.52-108.48-18.36-4.2-58.68-1.32-113.52,3.72-173.04h0Zm390,299.52l210.36,192.72-78.96,72.36-191.28-175.32c17.76-2.88,35.4-6,53.16-9.12,2.28-26.88,4.68-53.76,6.72-80.64h0Zm368.28,337.44l346.08,317.16-72,78.6-353.04-323.52,78.96-72.24Zm-524.16-394.92c2.28-33.84,2.16-66.12-.48-99.24,42.24,3.36,66.96,9.12,107.28,18.84,2.16,57.72-2.4,115.44-7.32,172.92-179.64,31.08-374.64,28.32-532.44-75,39.36,136.92,153.6,241.56,293.4,268.8-31.32-39.84-56.16-85.08-75.12-132.24,40.56,6.6,81,9.6,122.04,9.72,61.32,112.68,163.2,177.48,303,150.36-191.16,131.52-435.72,108.84-606.36-42.48-170.88-156.6-204.72-406.8-95.04-600.24-30.12,287.4,272.04,342,491.04,328.56h0Z"/>
	<path class="light" d="M3984.84,4326.72v-107.04c0-118.32-41.64-170.88-124.8-226.92-12.84-7.92-20.88-20.76-24-35.16-3.24-18.96-6.48-41.28-6.48-41.28-1.56-1.68-1.56-4.8-3.12-4.8-3.24-1.68-4.8-1.68-6.48-1.68,0,0-49.56,8.04-70.32,11.28-6.48,0-12.84-1.68-17.64-4.8-78.36-52.8-65.64-75.24-65.64-140.64v-81.6c0-52.44,38.4-57.24,59.28-57.24h28.8c20.76,0,59.16,4.8,59.16,57.24v116.64c0,3.12,1.56,6.36,3.24,7.92,3.12,0,6.36,1.68,7.92,0,32.04-15.96,115.2-58.92,140.88-71.76,3.12-3.12,6.36-7.92,6.36-12.72v-27.24s11.16-226.92-214.44-226.92h-35.16c-225.6,0-214.44,226.92-214.44,226.92v80.04c0,140.52,22.44,186.6,142.44,258.6,12.84,8.04,22.44,22.44,24,36.84,3.24,17.28,6.36,34.92,6.36,34.92,0,3.24,1.68,4.8,3.24,6.36,1.56,0,4.8,1.68,6.36,0,0,0,43.2-6.36,62.4-9.6,8.04,0,16.08,1.68,20.88,6.48,62.4,44.76,49.56,70.32,49.56,118.08v100.8c0,54.12-35.16,58.92-56.04,58.92h-49.56c-19.2,0-56.04-4.8-56.04-58.92v-114.96c0-1.56-1.56-4.8-4.8-6.36-1.56-1.56-4.8-1.56-7.92,0-30.48,15.96-115.2,58.92-140.88,71.76-4.8,3.24-7.92,6.36-7.92,12.84v22.32s-9.6,228.6,214.32,228.6h56.04c224.04,0,214.44-226.92,214.44-226.92h0Zm819.96,212.52s-27.24-27-44.76-44.52c-8.04-8.04-12.84-17.64-14.4-28.8-12.84-63.48-52.8-285.12-67.2-365.16-3.24-17.52,3.12-35.16,15.96-48,12.84-12.72,28.8-28.8,28.8-28.8,1.56-1.56,3.24-3.12,3.24-6.36,0-1.56-1.68-3.24-3.24-4.8,0,0-39.96-41.64-60.84-62.4-7.92-8.04-14.4-17.64-15.96-28.8-11.16-60.84-49.56-272.04-62.4-348.84-3.24-17.52,1.56-35.16,14.4-48l30.36-30.36c1.68-1.56,3.24-6.36,1.68-9.6-1.68-3.24-4.8-4.8-8.04-4.8h-326.4c-3.24,0-6.36,1.56-8.04,4.8-1.56,3.24,0,8.04,1.68,9.6,0,0,14.4,12.84,25.56,25.56,12.84,12.84,19.2,30.48,15.96,48-14.4,78.48-52.8,291.24-63.96,353.64-1.56,11.16-8.04,20.76-15.96,28.8-20.88,20.76-60.84,62.4-60.84,62.4-1.56,1.56-3.24,3.24-3.24,4.8,0,3.24,1.68,4.8,3.24,6.36,0,0,15.96,16.08,28.8,28.8,12.84,12.84,19.2,30.48,15.96,48-14.4,80.04-54.36,301.68-65.52,365.16-3.24,11.16-8.04,20.76-16.08,28.8-17.52,17.52-44.76,44.52-44.76,44.52-3.24,3.12-3.24,6.36-3.24,9.6,1.68,3.12,4.8,4.8,8.04,4.8h248.04c3.12,0,6.36-1.68,7.92-4.8,0-3.24,0-6.48-1.56-9.6,0,0-11.16-9.6-20.76-19.2-12.84-12.6-19.2-30.12-16.08-47.76,8.04-51,25.68-154.2,30.48-189.36,1.56-6.36,7.92-12.48,14.4-12.48h161.52c8.04,0,12.84,6.12,14.4,12.48,4.8,35.16,22.44,138.36,30.48,189.36,3.12,17.64-3.24,35.16-16.08,47.76l-19.2,19.2c-3.12,3.12-3.12,6.36-3.12,9.6,1.56,3.12,4.8,4.8,7.92,4.8h248.04c3.24,0,6.36-1.68,8.04-4.8,0-3.24,0-6.48-3.24-9.6h0Zm-286.44-428.88c-1.56,3.24-6.36,4.8-9.6,4.8h-103.92c-3.24,0-8.04-1.56-9.6-4.8-3.24-3.12-4.8-6.36-3.24-11.16,9.6-60.84,46.44-286.44,59.16-371.16,0-3.24,3.24-4.8,6.48-4.8,1.56,0,4.8,1.56,4.8,4.8,14.4,84.72,49.56,310.32,59.16,371.16,1.56,4.8,0,8.04-3.24,11.16h0Zm997.68-625.56c-1.68-3.24-4.8-4.8-8.04-4.8h-248.04c-3.12,0-6.36,1.56-7.92,4.8,0,3.24,0,8.04,3.12,9.6,0,0,9.6,9.6,19.2,20.76,12.84,12.6,19.2,30.12,16.08,47.76-19.2,121.32-99.24,610.2-120,744.24,0,1.68-3.24,4.8-4.8,4.8-3.24,0-6.48-3.12-6.48-4.8-20.76-134.04-100.8-622.92-120-744.24-3.12-17.64,3.24-35.16,16.08-48,9.6-10.92,20.76-20.52,20.76-20.52,1.56-1.56,1.56-6.36,1.56-9.6-1.56-3.24-4.8-4.8-7.92-4.8h-248.04c-3.24,0-6.36,1.56-8.04,4.8,0,3.24,0,8.04,1.68,9.6,0,0,28.8,28.56,46.32,44.52,8.04,8.04,12.84,19.2,16.08,30.36,11.16,62.4,51.12,284.28,65.52,364.32,3.24,17.64-3.12,35.16-15.96,47.76-12.84,14.4-28.8,30.36-28.8,30.36-1.56,1.56-3.24,3.24-3.24,4.8,0,3.24,1.68,4.8,3.24,6.36,0,0,39.96,40.08,60.84,60.84,7.92,8.04,14.4,19.2,15.96,30.36,11.16,60.6,49.56,269.88,62.4,346.68,3.24,17.64-1.56,36.84-14.4,49.68-14.4,12.72-30.36,28.8-30.36,28.8-1.68,3.12-3.24,6.36-1.68,9.6,1.68,3.12,4.8,4.8,8.04,4.8h326.4c3.24,0,6.36-1.68,8.04-4.8,1.56-3.24,0-6.48-1.68-9.6,0,0-14.4-12.84-25.56-25.68-12.84-12.72-19.2-30.36-15.96-48,14.4-76.8,52.8-290.88,63.96-351.48,1.56-11.16,8.04-22.32,15.96-30.36,20.88-20.76,60.84-60.84,60.84-60.84,1.56-1.56,3.24-3.12,3.24-6.36,0-1.56-1.68-3.24-3.24-4.8,0,0-15.96-15.96-28.8-30.36-12.84-12.6-19.2-30.12-15.96-47.76,14.4-80.04,54.36-301.92,67.2-364.32,1.56-11.16,6.36-22.32,14.4-30.36,17.52-15.96,44.76-44.52,44.76-44.52,3.24-1.56,3.24-6.36,3.24-9.6h0Zm703.2,1054.44s-27.24-27-44.88-44.52c-7.92-8.04-12.72-17.64-14.4-28.8-12.72-63.48-52.8-285.12-67.2-365.16-3.12-17.52,3.24-35.16,16.08-48l28.8-28.8c1.56-1.56,3.12-3.12,3.12-6.36,0-1.56-1.56-3.24-3.12-4.8,0,0-40.08-41.64-60.84-62.4-8.04-8.04-14.4-17.64-15.96-28.8-11.28-60.84-49.68-272.04-62.4-348.84-3.24-17.52,1.56-35.16,14.4-48l30.36-30.36c1.56-1.56,3.24-6.36,1.56-9.6-1.56-3.24-4.8-4.8-7.92-4.8h-326.4c-3.24,0-6.48,1.56-8.04,4.8s0,8.04,1.56,9.6c0,0,14.4,12.84,25.68,25.56,12.72,12.84,19.2,30.48,15.96,48-14.4,78.48-52.8,291.24-63.96,353.64-1.68,11.16-8.04,20.76-16.08,28.8-20.76,20.76-60.72,62.4-60.72,62.4-1.68,1.56-3.24,3.24-3.24,4.8,0,3.24,1.56,4.8,3.24,6.36,0,0,15.96,16.08,28.8,28.8,12.72,12.84,19.2,30.48,15.96,48-14.4,80.04-54.36,301.68-65.64,365.16-3.12,11.16-7.92,20.76-15.96,28.8-17.64,17.52-44.76,44.52-44.76,44.52-3.24,3.12-3.24,6.36-3.24,9.6,1.56,3.12,4.8,4.8,8.04,4.8h247.92c3.24,0,6.48-1.68,8.04-4.8,0-3.24,0-6.48-1.56-9.6,0,0-11.28-9.6-20.88-19.2-12.72-12.6-19.2-30.12-15.96-47.76,8.04-51,25.56-154.2,30.36-189.36,1.68-6.36,8.04-12.48,14.4-12.48h161.64c8.04,0,12.84,6.12,14.4,12.48,4.8,35.16,22.44,138.36,30.36,189.36,3.24,17.64-3.12,35.16-15.96,47.76l-19.2,19.2c-3.24,3.12-3.24,6.36-3.24,9.6,1.68,3.12,4.8,4.8,8.04,4.8h248.04c3.12,0,6.36-1.68,7.92-4.8,0-3.24,0-6.48-3.12-9.6h0Zm-286.44-428.88c-1.56,3.24-6.36,4.8-9.6,4.8h-104.04c-3.12,0-7.92-1.56-9.6-4.8-3.12-3.12-4.8-6.36-3.12-11.16,9.6-60.84,46.32-286.44,59.16-371.16,0-3.24,3.24-4.8,6.36-4.8,1.68,0,4.8,1.56,4.8,4.8,14.4,84.72,49.68,310.32,59.28,371.16,1.56,4.8,0,8.04-3.24,11.16h0Zm975.24-163.2c-1.68-1.56-4.8-4.8-8.04-4.8h-252.84c-4.8,0-7.92,3.24-7.92,6.48-8.04,22.08-38.4,108.24-49.68,138.6,0,1.68,0,4.8,1.68,8.04,1.56,1.56,3.12,3.24,6.36,3.24h84.84c6.36,0,12.72,6.36,12.72,12.72v228c0,54.12-38.4,58.92-59.16,58.92h-62.4c-20.76,0-57.6-4.8-57.6-58.92v-645c0-52.8,36.84-57.6,57.6-57.6h62.4c20.76,0,59.16,4.8,59.16,57.6v155.16c0,3.24,1.68,6.36,4.8,8.04,1.68,0,4.8,1.56,8.04,0,30.36-16.08,113.64-59.28,139.2-72,4.8-3.24,8.04-8.04,8.04-12.84v-65.64s11.16-227.16-212.88-227.16h-72c-225.6,0-214.32,227.16-214.32,227.16v233.64c0,14.4-6.48,28.56-16.08,39.72-14.4,12.84-31.92,32.04-31.92,32.04-1.68,1.56-3.24,3.12-3.24,4.8,0,3.12,1.56,4.8,3.24,6.36,0,0,17.52,17.64,31.92,31.8,9.6,9.6,16.08,24,16.08,38.4v232.8s-11.28,226.92,214.32,226.92h72c224.04,0,212.88-226.92,212.88-226.92v-296.64c0-14.4,4.8-28.8,15.96-38.4,14.4-14.4,35.16-34.92,35.16-34.92,1.68-1.56,3.24-6.36,1.68-9.6h0Zm367.2-310.32h196.8c14.4,0,28.8,4.8,38.4,15.96,15.96,14.4,36.72,35.16,36.72,35.16,1.68,1.68,4.8,3.24,8.04,1.68,3.24-1.68,4.8-4.8,4.8-8.04v-187.2c0-8.04-6.36-14.4-12.84-14.4h-491.16c-3.24,0-6.36,1.56-8.04,4.8,0,3.24,0,8.04,3.24,9.6,0,0,19.2,19.2,33.6,33.6,9.6,9.6,15.96,24,15.96,38.4v372.84c0,14.4-6.36,28.8-15.96,39.96l-33.6,33.6c-1.56,1.56-3.24,3.24-3.24,4.8,0,3.24,1.68,4.8,3.24,6.36,0,0,19.2,19.2,33.6,33.6,9.6,9.6,15.96,24,15.96,38.4v371.28c0,14.4-6.36,28.8-15.96,38.4l-33.6,33.6c-3.24,3.12-3.24,6.36-3.24,9.6,1.68,3.12,4.8,4.8,8.04,4.8h491.16c6.48,0,12.84-6.48,12.84-12.84v-188.52c0-4.8-1.56-6.36-4.8-8.04-3.24-1.56-6.36-1.56-8.04,1.68,0,0-22.32,20.76-36.72,36.72-11.28,9.36-24,15.72-40.08,15.72h-195.12c-3.24,0-8.04-1.56-9.6-4.8-3.24-1.56-4.8-4.44-4.8-9.24v-275.76c0-4.8,1.56-7.8,4.8-9.36,1.56-3.24,6.36-4.8,9.6-4.8h135.96c14.4,0,28.8,6.36,38.4,15.72,15.96,15.96,36.84,36.84,36.84,36.84,3.12,3.12,6.36,3.12,9.6,1.56,3.12-1.56,4.8-3.24,4.8-6.36v-247.8c0-3.12-1.68-6.36-4.8-7.92-3.24-1.68-6.48,0-9.6,1.56,0,0-19.2,20.76-35.28,35.16-9.6,9.6-24,16.08-38.4,16.08h-137.52c-8.04,0-14.4-6.48-14.4-12.84v-276.84c0-7.92,6.36-12.72,14.4-12.72h0Z"/>
	<path class="light" d="M3756.84,4851.96s3.6-82.56-78-82.56h-125.4c-1.2,0-2.4,.6-3,1.8,0,1.2,0,2.4,1.2,3.6,0,0,6.6,6.48,11.4,11.88,4.2,3.6,6,8.4,6,13.8v328.32c0,5.4-1.8,10.8-6,14.4-4.8,4.8-11.4,12-11.4,12-1.2,.6-1.2,1.8-1.2,3,.6,1.2,1.8,1.8,3,1.8h125.4c81.6,0,78-82.68,78-82.68v-225.36h0Zm-58.8,230.16c0,19.68-13.2,21.48-20.4,21.48h-45c-2.4,0-4.8-2.4-4.8-4.8v-267.72c0-1.2,.6-2.4,1.2-3.6,1.2-1.08,2.4-1.08,3.6-1.08h45c7.2,0,20.4,1.8,20.4,20.88v234.84h0Zm426.6-255.72h71.4c5.4,0,10.8,1.8,14.4,5.4,5.4,5.4,12.6,13.2,12.6,13.2,1.2,.6,2.4,1.2,3.6,.6,1.2-.6,1.8-1.8,1.8-3v-68.4c0-2.4-2.4-4.8-4.8-4.8h-178.8c-1.2,0-2.4,.6-3,1.8,0,1.2,0,2.4,1.2,3.6l12,12c3.6,3.6,6,9,6,13.8v328.2c0,5.4-2.4,10.2-6,13.8-5.4,5.4-12,12.6-12,12.6-1.2,.6-1.2,1.8-1.2,3,.6,1.2,1.8,1.8,3,1.8h178.8c2.4,0,4.8-1.8,4.8-4.8v-68.88c0-1.2-.6-1.8-1.8-2.4-1.2-.6-2.4-.6-3.6,.6,0,0-7.2,7.8-13.2,13.2-3.6,3.48-8.4,5.88-13.8,5.88h-71.4c-1.2,0-3-.6-3.6-1.8-1.2-.6-1.8-1.68-1.8-3.48v-100.44c0-2.88,3-4.68,5.4-4.68h49.2c5.4,0,10.8,1.8,14.4,5.88l13.2,13.2c.6,.6,2.4,1.2,3,.6,1.2-.6,2.4-1.8,2.4-3v-89.88c0-1.2-1.2-2.4-2.4-3-.6,0-2.4,0-3,1.2l-12.6,12.6c-3.6,3.6-9,5.4-14.4,5.4h-49.8c-3,0-5.4-1.8-5.4-4.8v-100.2c0-3,2.4-4.8,5.4-4.8h0Zm560.4,250.92v-38.88c0-46.2-17.4-64.8-52.2-87h-.6c-3-1.8-35.4-20.88-35.4-20.88-33-21-27.6-28.8-27.6-53.28v-30c0-19.08,13.8-20.88,21.6-20.88h10.2c7.8,0,21.6,1.8,21.6,20.88v42.48c0,1.2,.6,1.8,1.2,2.4,1.2,.6,2.4,.6,3,0,11.4-5.4,42-21.48,51-25.68,1.8-1.2,3-3,3-4.8v-9.6s3.6-82.68-78.6-82.68h-12.6c-82.2,0-78.6,82.68-78.6,82.68v28.8c0,53.88,9.6,69.36,60,98.76l33,19.8c27.6,18.6,22.8,27.6,22.8,46.08v36.6c0,19.68-13.8,21.48-21,21.48h-18c-7.2,0-20.4-1.8-20.4-21.48v-41.28c0-1.2-.6-2.4-1.8-3-.6-.6-1.8-.6-2.4,0-11.4,6-42.6,21.48-51.6,26.28-1.8,.6-3,2.4-3,4.2v9s-3.6,82.68,78,82.68h20.4c81.6,0,78-82.68,78-82.68h0Zm361.2,65.88c-3.6-3.6-6-9-6-14.4v-328.32c0-5.4,2.4-10.2,6-13.8,4.8-5.28,12-11.88,12-11.88,.6-1.2,1.2-2.4,.6-3.6-.6-1.2-1.8-1.8-3-1.8h-90c-1.2,0-2.4,.6-3,1.8,0,1.2,0,2.4,1.2,3.6,0,0,6.6,6.6,11.4,11.88,4.2,3.6,6,8.4,6,13.8v328.32c0,5.4-1.8,10.8-6,14.4-4.8,4.8-11.4,12-11.4,12-1.2,.6-1.2,1.8-1.2,3,.6,1.2,1.8,1.8,3,1.8h90c1.2,0,2.4-.6,3-1.8s0-2.4-.6-3l-12-12Zm495-203.4c-.6-1.2-1.2-1.8-2.4-1.8h-92.4c-1.2,0-2.4,.6-3,1.8-3,8.28-13.8,39.36-18,50.76,0,1.8,.6,3.6,3,3.6h30.6c3,0,4.8,2.4,4.8,5.4v82.56c0,19.68-13.8,21.48-21,21.48h-23.4c-7.2,0-20.4-1.8-20.4-21.48v-234.72c0-19.2,13.2-21,20.4-21h23.4c7.2,0,21,1.8,21,21v56.4c0,1.2,.6,2.4,1.8,2.4,.6,.6,1.8,.6,3,.6,11.4-6,41.4-21.6,51-26.4,1.2-1.2,2.4-2.4,2.4-4.8v-23.4s4.2-82.8-77.4-82.8h-26.4c-81.6,0-78,82.8-78,82.8v225.12s-3.6,82.68,78,82.68h26.4c81.6,0,77.4-82.68,77.4-82.68v-107.64c0-5.4,2.4-10.2,6-14.4,5.4-5.4,12.6-12.48,12.6-12.48,.6-.6,1.2-1.8,.6-3h0Zm487.8,203.4c-3.6-3.6-5.4-9-5.4-14.4v-328.32c0-5.4,1.8-10.8,5.4-14.4,5.4-4.68,12-11.88,12-11.88,1.2-.6,1.2-1.8,.6-3-.6-1.2-1.2-1.8-2.4-1.8h-90.6c-1.2,0-1.8,.6-2.4,1.8-.6,1.2,0,2.4,.6,3,0,0,6.6,7.2,12,12.48,3.6,3.6,6,8.4,6,13.8v192.36c0,.6-.6,1.8-1.8,1.8s-1.8-.6-2.4-1.2c-12-39-51-159.36-63.6-197.76-2.4-6.6-.6-14.28,4.8-19.68l1.8-1.8c.6-.6,1.2-1.8,.6-3-.6-1.2-1.8-1.8-3-1.8h-90c-1.2,0-2.4,.6-3,1.8,0,1.2,0,2.4,1.2,3,0,0,6.6,7.2,12,11.88,3.6,4.2,5.4,9,5.4,14.4v328.32c0,5.4-1.8,10.2-5.4,13.8-5.4,5.4-12,12.6-12,12.6-1.2,.6-1.2,1.8-1.2,3,.6,1.2,1.8,1.8,3,1.8h90c1.2,0,2.4-.6,3-1.8s0-2.4-.6-3c0,0-6.6-7.2-12-12-3.6-3.6-6-9-6-14.4v-198.96c0-1.2,.6-1.8,1.8-2.4,1.2,0,1.8,.6,2.4,1.8,12.6,37.2,55.2,159.48,68.4,198.36,3,7.2,1.2,15-4.2,20.4l-7.2,7.2c-.6,.6-1.2,1.8-.6,3,.6,1.2,1.2,1.8,2.4,1.8h90.6c1.2,0,1.8-.6,2.4-1.8,.6-1.2,.6-2.4-.6-3,0,0-6.6-7.2-12-12h0Z"/>
	<rect class="brand" x="3219.96" y="3240" width="60" height="2160"/>
	<path class="light" d="M4533.36,6820.32c-.36-.24-.84-.24-1.2,.24,0,0-2.16,2.16-3.84,3.72-1.2,1.2-3,2.04-4.8,2.04h-27.36c-.84,0-1.56-.84-1.56-1.56v-7.8c0-7.08,0-13.8,12-21.36,30-19.44,27.12-25.56,27.12-43.56v-9.6s1.2-27.48-25.92-27.48h-5.4c-27.24,0-26.04,27.48-26.04,27.48v9.84c0,.84,.24,1.2,.84,1.56,3.12,1.56,13.32,6.84,17.16,8.76,.36,0,.84,0,.96-.12,.48,0,.48-.48,.48-.84v-20.76c0-6.36,4.56-6.96,7.2-6.96h4.32c2.4,0,7.08,.6,7.08,6.96v9.96c0,12.36-1.68,17.76-14.88,26.4-16.32,10.92-24.6,13.92-24.6,41.28v24.96c0,1.08,.84,1.68,1.68,1.68h55.56c.96,0,1.8-.6,1.8-1.68v-22.32c0-.48-.36-.6-.6-.84Zm161.16-77.88s1.2-27.48-25.92-27.48h-10.68c-27.12,0-25.92,27.48-25.92,27.48v75.12s-1.2,27.6,25.92,27.6h10.68c27.12,0,25.92-27.6,25.92-27.6v-75.12Zm-19.56,76.68c0,6.6-4.44,7.2-6.84,7.2h-9.72c-2.4,0-6.84-.6-6.84-7.2v-78.24c0-6.6,4.44-7.2,6.84-7.2h9.72c2.4,0,6.84,.6,6.84,7.2v78.24Zm175.8,1.2c-.36-.24-.84-.24-1.2,.24,0,0-2.16,2.16-3.84,3.72-1.2,1.2-3,2.04-4.8,2.04h-27.36c-.84,0-1.56-.84-1.56-1.56v-7.8c0-7.08,0-13.8,12-21.36,30-19.44,27.12-25.56,27.12-43.56v-9.6s1.2-27.48-25.92-27.48h-5.4c-27.24,0-26.04,27.48-26.04,27.48v9.84c0,.84,.24,1.2,.84,1.56,3.12,1.56,13.32,6.84,17.16,8.76,.36,0,.84,0,.96-.12,.48,0,.48-.48,.48-.84v-20.76c0-6.36,4.56-6.96,7.2-6.96h4.32c2.4,0,7.08,.6,7.08,6.96v9.96c0,12.36-1.68,17.76-14.88,26.4-16.32,10.92-24.6,13.92-24.6,41.28v24.96c0,1.08,.84,1.68,1.68,1.68h55.56c.96,0,1.8-.6,1.8-1.68v-22.32c0-.48-.36-.6-.6-.84Zm161.16-77.88s1.2-27.48-25.92-27.48h-10.68c-27.12,0-25.92,27.48-25.92,27.48v75.12s-1.2,27.6,25.92,27.6h10.68c27.12,0,25.92-27.6,25.92-27.6v-75.12Zm-19.56,76.68c0,6.6-4.44,7.2-6.84,7.2h-9.72c-2.4,0-6.84-.6-6.84-7.2v-78.24c0-6.6,4.44-7.2,6.84-7.2h9.72c2.4,0,6.84,.6,6.84,7.2v78.24Z"/>
	<path class="light" d="M3669.48,6733.92h23.76c1.8,0,3.6,.6,4.8,1.8,1.8,1.8,4.2,4.44,4.2,4.44,.36,.12,.84,.36,1.2,.12,.36-.12,.6-.6,.6-.96v-22.8c0-.84-.84-1.56-1.56-1.56h-59.64c-.36,0-.84,.12-.96,.6,0,.36,0,.72,.36,1.2,0,0,2.16,2.16,3.96,3.96,1.2,1.2,2.04,3,2.04,4.56v109.44c0,1.8-.84,3.36-2.04,4.56-1.8,1.8-3.96,4.2-3.96,4.2-.36,.24-.36,.6-.36,1.08,.12,.36,.6,.6,.96,.6h59.64c.72,0,1.56-.6,1.56-1.68v-22.92c0-.48-.24-.6-.6-.84s-.84-.24-1.2,.24c0,0-2.4,2.52-4.44,4.32-1.2,1.2-2.76,2.04-4.56,2.04h-23.76c-.48,0-1.08-.24-1.2-.6-.48-.24-.6-.6-.6-1.2v-33.48c0-.96,.96-1.56,1.8-1.56h16.32c1.8,0,3.6,.6,4.8,2.04,1.8,1.8,4.44,4.32,4.44,4.32,.24,.24,.84,.48,.96,.24,.48-.24,.84-.6,.84-.96v-30c0-.36-.36-.84-.84-.96-.12,0-.72,0-.96,.36,0,0-2.4,2.4-4.2,4.2-1.2,1.2-3,1.8-4.8,1.8h-16.56c-1.08,0-1.8-.6-1.8-1.56v-33.48c0-.96,.72-1.56,1.8-1.56h0Zm186.72,83.64v-12.96c0-15.48-5.76-21.6-17.4-29.04h-.12c-1.08-.6-11.88-6.96-11.88-6.96-10.92-6.96-9.12-9.6-9.12-17.76v-9.96c0-6.36,4.56-6.96,7.2-6.96h3.36c2.64,0,7.2,.6,7.2,6.96v14.16c0,.36,.24,.6,.36,.84,.48,.12,.84,.12,1.08,0,3.72-1.8,13.92-7.2,16.92-8.64,.6-.36,1.08-.96,1.08-1.56v-3.24s1.2-27.48-26.28-27.48h-4.2c-27.36,0-26.16,27.48-26.16,27.48v9.6c0,18,3.24,23.16,20.04,33l10.92,6.48c9.24,6.24,7.68,9.24,7.68,15.36v12.24c0,6.6-4.68,7.2-7.08,7.2h-6c-2.4,0-6.72-.6-6.72-7.2v-13.8c0-.36-.24-.72-.6-.96-.24-.24-.6-.24-.84,0-3.84,2.04-14.16,7.2-17.16,8.76-.6,.24-1.08,.84-1.08,1.44v3s-1.2,27.6,26.04,27.6h6.84c27.12,0,25.92-27.6,25.92-27.6h0Zm150-102.6h-58.92c-1.08,0-1.8,.72-1.8,1.56v22.8c0,.36,.12,.72,.6,.96,.36,.24,.72,0,1.2-.24,0,0,2.4-2.52,4.2-4.32,1.2-1.2,3-1.8,4.8-1.8h9c.96,0,1.8,.6,1.8,1.56v99.24c0,1.8-.84,3.6-2.04,4.8-1.8,1.56-3.96,3.96-3.96,3.96-.48,.24-.48,.6-.24,1.08,0,.36,.36,.6,.84,.6h30c.36,0,.72-.24,.96-.6,.24-.48,0-.84-.24-1.08,0,0-2.16-2.4-3.96-3.96-1.2-1.2-2.04-3-2.04-4.8v-99.24c0-.96,.84-1.56,1.8-1.56h9c1.8,0,3.6,.6,4.8,1.8,1.8,1.8,4.2,4.32,4.2,4.32,.48,.24,.84,.48,1.2,.24,.48-.24,.6-.6,.6-.96v-22.8c0-.96-.96-1.56-1.8-1.56Zm158.88,27.48s1.2-27.48-26.04-27.48h-41.76c-.48,0-.84,.12-1.08,.6,0,.36,0,.72,.48,1.2,0,0,2.16,2.16,3.72,3.96,1.44,1.2,2.04,2.76,2.04,4.56v109.44c0,1.8-.6,3.6-2.04,4.8-1.56,1.56-3.72,3.96-3.72,3.96-.48,.24-.48,.6-.48,1.08,.24,.36,.6,.6,1.08,.6h41.76c27.24,0,26.04-27.6,26.04-27.6v-75.12h0Zm-19.68,76.68c0,6.6-4.32,7.2-6.72,7.2h-15c-.84,0-1.68-.84-1.68-1.56v-89.28c0-.36,.24-.84,.48-1.2,.36-.36,.72-.36,1.2-.36h15c2.4,0,6.72,.6,6.72,6.96v78.24Z"/>
	<polygon class="brand" points="4323.48 6813.96 4357.44 6780 4323.48 6746.04 4289.52 6780 4323.48 6813.96"/>
</svg>