<?xml version="1.0" encoding="UTF-8"?>
<svg xmlns="http://www.w3.org/2000/svg" viewBox="0 0 8640 8640">
	<style>
		.dark {fill: #202020;}
		.light {fill: #f0f0f0;}
		.brand {fill: #f0cc90;}
	</style>
	<rect class="dark" x="0" y="0" width="8640" height="8640"/>
	<path class="brand" d="M1701.12,4053.36h-144l-45.6-110.28c58.2,2.4,94.08,3.36,152.88-7.44,117.48-21.72,223.92-72.48,305.16-161.28,27-29.64,50.4-65.76,70.44-103.2,19.92,37.44,43.44,73.44,70.44,103.08,81.24,88.92,187.56,139.68,305.04,161.4,58.92,10.8,94.68,9.84,153,7.44l-45.6,110.28h-144c-6.6,39.12-10.08,67.32-13.08,106.68h228.36l156.96-379.08c-83.52,30.6-141.6,57.24-235.08,57.24-27.36,0-54.6-2.52-81.12-7.44-102.48-18.96-185.28-62.16-245.76-128.52-71.28-77.88-116.88-231.96-117.36-233.52l-31.8-108.72-31.8,108.72c-.48,1.56-46.08,155.64-117.48,233.64-60.48,66.24-143.16,109.44-245.76,128.4-77.76,14.4-158.52,7.8-232.68-19.32l-83.4-30.48,156.96,379.08h228.36c-3-39.36-6.48-67.56-13.08-106.68h0Zm978.72,193.92c-110.76-19.32-216.12-27.12-323.04-6.48-7.2,42.12-10.92,71.16-14.04,112.32,80.28-19.32,154.2-22.68,236.52-13.68,.72,33.12-.6,66.36-4.2,99.24,36.6-2.64,73.08-8.52,108.48-18.36,4.2-58.68,1.32-113.52-3.72-173.04h0Zm-390,299.52l-714.36,654.6,72,78.6,702.24-643.44c-17.76-2.88-35.4-6-53.16-9.12-2.28-26.88-4.68-53.76-6.72-80.64h0Zm155.88-57.48c-2.28-33.84-2.16-66.12,.48-99.24-42.24,3.36-66.96,9.12-107.28,18.84-2.16,57.72,2.4,115.44,7.32,172.92,179.64,31.08,374.64,28.32,532.44-75-39.36,136.92-153.6,241.56-293.4,268.8,31.32-39.84,56.16-85.08,75.12-132.24-40.56,6.6-81,9.6-122.04,9.72-61.32,112.68-163.2,177.48-303,150.36,191.16,131.52,435.72,108.84,606.36-42.48,170.88-156.6,204.72-406.8,95.04-600.24,30.12,287.4-272.04,342-491.04,328.56h0Zm-1045.56-242.04c110.76-19.32,216.12-27.12,323.04-6.48,7.2,42.12,10.92,71.16,14.04,112.32-80.28-19.32-154.2-22.68-236.52-13.68-.72,33.12,.6,66.36,4.2,99.24-36.6-2.64-73.08-8.52-108.48-18.36-4.2-58.68-1.32-113.52,3.72-173.04h0Zm390,299.52l210.36,192.72-78.96,72.36-191.28-175.32c17.76-2.88,35.4-6,53.16-9.12,2.28-26.88,4.68-53.76,6.72-80.64h0Zm368.28,337.44l346.08,317.16-72,78.6-353.04-323.4,78.96-72.36h0Zm-524.16-394.92c2.28-33.84,2.16-66.12-.48-99.24,42.24,3.36,66.96,9.12,107.28,18.84,2.16,57.72-2.4,115.44-7.32,172.92-179.64,31.08-374.64,28.32-532.44-75,39.36,136.92,153.6,241.56,293.4,268.8-31.32-39.84-56.16-85.08-75.12-132.24,40.56,6.6,81,9.6,122.04,9.72,61.32,112.68,163.2,177.48,303,150.36-191.16,131.52-435.72,108.84-606.36-42.48-170.88-156.6-204.72-406.8-95.04-600.24-30.12,287.4,272.04,342,491.04,328.56h0Z"/>
	<rect class="brand" x="3210" y="3240" width="60" height="2160"/>
	<path class="light" d="M3824.64,4052.16c-13.2-14.28-28.56-24-28.56-42.72v-138.48s5.76-134.64-128.28-134.64h-204.24c-14.4,0,6.6,19.56,16.2,28.32,6.6,5.76,9.48,14.28,9.48,22.8v222c0,27.72-37.8,40.2-28.56,49.44,12.48,12.24,28.56,22.92,28.56,42.6v222c0,24.96-46.92,50.28-25.68,50.28h204.24c134.04,0,128.28-134.76,128.28-134.76v-137.52c0-30,38.04-39.84,28.56-49.32h0Zm-283.44,848.52l-52.32-283.92h51.36l27.12,196.08,27.12-196.08h51.36l-52.32,283.92h-52.32Zm1108.56-46.44c18.6,0,40.44,4.32,40.44-22.68v-145.68c0-26.76-21.12-22.68-40.44-22.68v191.04h0Zm-16.2-237.48c45,0,105.72-7.56,105.72,63.6v156.72c0,76.8-72.84,63.6-137.88,63.6v-283.92h32.16Zm-905.88,0v283.92h-48.36v-283.92h48.36Zm118.32,286.92c-60,0-71.16-38.16-71.16-85.32l48.24-.48c0,15.6-2.88,38.28,22.8,38.28s22.08-26.4,22.08-47.4c0-40.08-93-29.28-93-111.12,0-46.92,11.04-83.88,70.56-83.88s69.36,39.96,69.36,85.92l-48.24,.6c0-15.48,3-39.36-21.12-39.36-33.96,0-21.84,50.04-16.08,56.16,23.76,25.2,87,25.68,87,92.88,0,44.76-2.28,93.72-70.44,93.72h0Zm182.16,0c-43.68,0-67.8-27.84-67.8-71.64v-215.28h48.6v216.6c0,29.76,38.64,29.4,38.64,0v-216.6h48.72v215.28c0,43.92-24.36,71.64-68.16,71.64Zm94.56-3l67.68-283.92h34.08l67.8,283.92h-48.12l-8.76-44.04h-56.04l-8.64,44.04h-48Zm103.8-89.4l-19.08-96.72-19.08,96.72h38.16Zm106.92,89.4v-283.92h48.36v237.48h73.92v46.44h-122.28Zm460.68,0v-283.92h126.12v47.28h-77.64v72h67.92v47.04h-67.92v70.44h77.64v47.16h-126.12Zm238.68,3c-60,0-71.28-38.16-71.28-85.32l48.24-.48c0,15.6-2.88,38.28,22.92,38.28s22.08-26.4,22.08-47.4c0-40.08-93-29.28-93-111.12,0-46.92,11.04-83.88,70.56-83.88s69.24,39.96,69.24,85.92l-48.24,.6c0-15.48,3.12-39.36-21-39.36-33.96,0-21.96,50.04-16.2,56.16,23.88,25.2,87,25.68,87,92.88,0,44.76-2.28,93.72-70.32,93.72h0Zm165.84-286.92v283.92h-48.48v-283.92h48.48Zm121.44,130.68h71.4c0,34.56,4.68,98.28-8.4,123.24-26.16,50.28-133.44,48.72-133.44-36.36v-147.24c0-89.88,105.24-90.6,131.16-40.56,9.84,18.84,8.28,38.64,8.28,60.24h-49.8c0-17.76,4.08-43.92-19.32-43.92-14.28,0-21.12,10.44-21.12,24.24v147.24c0,27.6,45.12,27.48,45.12-1.56v-38.88h-23.88v-46.44h0Zm122.4,153.12v-283.8h38.04l61.56,174.72v-174.72h44.04v283.8h-38.4l-60.96-165v165h-44.28Zm198.6,.12v-283.92h126.12v47.28h-77.76v72h68.04v47.04h-68.04v70.44h77.76v47.16h-126.12Zm218.76-166.56c49.56,0,45.48,1.92,45.48-50.4,0-25.56-23.64-20.64-45.48-20.64v71.04Zm-25.8-117.6c48.48,0,121.08-9,121.08,64.44,0,35.88,5.04,73.8-33.96,92.04l42,127.68h-51.96l-35.04-120.12h-16.32v120.12h-47.4v-284.16h21.6Zm-2133.96-369.84c0,32.16-21.84,34.92-34.2,34.92h-73.08c-4.8,0-7.56-4.68-7.56-8.52,0-42.48-3.12-435.36,1.8-441.96l78.84-1.68c12.36,0,34.2,2.88,34.2,34.08v383.16h0Zm2057.76-7.68c0-92.88,9.36-144.12-74.16-198.24-24.36-15.72-10.32-50.28-23.64-49.2-12.96,1.08-42,10.8-52.32,3.84-46.56-31.44-38.88-44.64-38.88-83.52,0-72.72-6-82.44,52.2-82.44,61.8,0,23.64,94.56,37.08,108,1.92,0,3.72,.96,4.68,0,20.52-14.88,87.48-36.36,87.48-50.16,0-15.48,9.12-150.96-127.32-150.96h-20.88c-141.24,0-127.32,138.12-127.32,182.28,0,83.4,13.32,110.76,84.48,153.6,20.16,12.24,13.8,40.08,20.04,46.32,19.56,0,42.48-11.04,53.16-1.92,37.08,26.64,29.4,41.88,29.4,70.2,0,96.24,6.12,94.8-62.64,94.8-63.36,0-15.6-119.88-40.92-107.04-97.56,50.16-87.72,36.48-88.32,63.48,0,0-5.64,135.72,127.32,135.72h33.24c132.96,0,127.32-134.76,127.32-134.76h0Zm-1743.24-409.56h116.88c26.28,0,41.28,35.4,49.32,31.32,6.6-3.24,2.88-102.48,2.88-115.92,0-4.68-3.84-8.52-7.56-8.52h-291.72c-21.36,0,26.64,26.4,26.64,51.36v221.28c0,29.4-38.88,40.92-29.4,50.4,11.04,11.16,29.4,24.24,29.4,42.72v220.44c0,24.72-47.88,51.24-26.64,51.24h291.72c3.72,0,7.56-3.72,7.56-7.56v-111.96c0-22.44-26.52,27.36-53.16,27.36h-115.92c-4.32,0-8.52-3.96-8.52-8.4v-163.68l8.52-8.4c100.32,0,84.6-9.6,125.4,31.2,3.48,3.48,8.52,.48,8.52-2.88v-147c0-22.08-27.48,26.52-52.2,26.52h-81.72c-4.8,0-8.52-3.72-8.52-7.56v-164.4c0-4.68,3.72-7.56,8.52-7.56h0Zm590.88,516.84c-5.64-6.72-9.48-14.28-9.48-22.8v-222.96c0-26.52,38.76-40.32,29.4-49.32-10.08-9.6-29.4-22.92-29.4-41.76v-222.96c0-24.24,47.04-50.16,25.68-50.16-244.44,0-120.72-5.28-120.72,51.12v313.08c0,3.48-4.68,5.88-6.6,.96-19.92-62.52-83.64-259.8-103.56-321.6-16.8-51,95.16-43.56-140.64-43.56-21.24,0,25.68,23.88,25.68,51.12v221.04c0,29.52-38.52,40.32-28.56,50.4,13.2,13.08,28.56,22.8,28.56,42.6v221.04c0,24.24-45.84,51.24-25.68,51.24,247.2,0,121.68,4.8,121.68-51.24v-324.48c0-3.36,4.44-5.88,6.6-.96,20.88,60.84,90.24,260.04,112.08,323.52,10.44,30.96-24.6,40.92-19.92,50.28,.96,1.92,1.92,2.88,4.68,2.88,175.8,0,167.04,9.36,130.2-27.48h0Zm215.64,0c-5.64-6.72-9.48-14.28-9.48-22.8v-222c0-19.56,20.64-34.56,29.4-42.6v-6.72c-11.04-11.04-29.4-24.24-29.4-42.72v-222c0-23.76,46.68-51.12,25.68-51.12h-147.24c-14.52,0,6.72,19.68,16.08,28.32,6.72,5.76,9.48,14.28,9.48,22.8v222c0,27.72-37.68,40.2-28.44,49.44,12.6,12.6,28.44,23.04,28.44,42.6v222c0,24.96-46.92,50.28-25.56,50.28h147.24c16.8,0-10.68-21.96-16.2-27.48h0Zm364.8-107.28c0-92.88,9.36-144.12-74.04-198.24-24.36-15.72-10.44-50.28-23.76-49.2-12.96,1.08-41.88,10.8-52.32,3.84-46.56-31.44-38.88-44.64-38.88-83.52,0-72.72-5.88-82.44,52.2-82.44,61.8,0,23.64,94.56,37.08,108,1.92,0,3.84,.96,4.68,0,20.64-14.88,87.48-36.36,87.48-50.16,0-15.48,9.12-150.96-127.32-150.96h-20.88c-141.24,0-127.32,138.12-127.32,182.28,0,83.4,13.32,110.76,84.6,153.6,20.04,12.24,13.68,40.08,19.92,46.32,19.56,0,42.48-11.04,53.16-1.92,37.08,26.64,29.52,41.88,29.52,70.2,0,96.24,6,94.8-62.76,94.8-63.24,0-15.6-119.88-40.8-107.04-97.68,50.16-87.84,36.48-88.44,63.48,0,0-5.64,135.72,127.32,135.72h33.24c133.08,0,127.32-134.76,127.32-134.76Zm912,9.6c-9.6-4.92-24.6,33-51.24,33h-93.12c-3.84,0-7.68-3.72-7.68-8.52v-172.56c0-18.6,21.48-34.32,29.52-41.64v-7.68c-8.04-7.32-29.52-23.16-29.52-41.76v-222c0-25.2,47.04-51.12,25.68-51.12h-147.24c-21.24,0,25.68,24.24,25.68,51.12v222c0,28.08-38.52,39.48-28.56,49.44,12,11.76,28.56,23.04,28.56,41.64v222c0,25.92-46.08,51.24-25.68,51.24h267.96c3.72,0,8.52-2.88,8.52-7.56v-113.88c0-1.92-.96-3.72-2.88-3.72h0Zm401.88-196.44c-13.2-14.28-28.56-24-28.56-42.72v-222c0-27,32.4-35.88,29.52-48.24,0-1.92-1.92-2.88-3.84-2.88h-147.24c-21.96,0,25.68,25.8,25.68,51.12v459.24c0,43.8-38.52,34.92-81.72,34.92-11.4,0-33.24-2.76-33.24-34.92v-459.24c0-23.88,46.68-51.12,25.68-51.12h-147.24c-14.52,0,6.6,19.56,16.08,28.32,6.72,5.76,9.48,14.28,9.48,22.8v222c0,27.72-37.8,40.2-28.44,49.44,12.36,12.24,28.44,23.04,28.44,42.6v137.52s-5.64,134.76,127.32,134.76h51.36c133.92,0,128.16-134.76,128.16-134.76v-137.52c0-30,38.04-39.84,28.56-49.32Zm410.4-38.4c-.96-.96-2.88-2.88-4.8-2.88h-150.12c-2.76,0-4.68,1.92-4.68,3.84-4.68,26.64-41.28,88.92-24.72,88.92,25.56,0,57.96-4.92,57.96,7.68,0,180.84,14.4,170.28-72.24,170.28-12.36,0-34.2-2.76-34.2-34.92v-383.04c0-41.64,36.24-34.2,71.28-34.2,12.36,0,35.16,2.88,35.16,34.2,0,10.32-3,95.52,2.88,96.84,6.84,1.68,81.36-39.24,87.36-42.72,8.4-4.92,4.32-26.64,4.8-46.56,0,0,6.6-134.88-126.36-134.88h-42.84c-196.32,0-97.2,257.04-136.8,297.24-26.76,27.24-27.96,16.68,0,44.4,5.76,5.76,9.6,14.28,9.6,22.8v138.24s-6.72,134.76,127.2,134.76h42.84c132.96,0,126.36-134.76,126.36-134.76v-176.04c0-27.24,36.12-39.6,31.32-49.2h0Zm189,332.52c-5.64-6.72-9.48-14.28-9.48-22.8v-222c0-19.56,20.76-34.56,29.52-42.6,0-19.32-29.52-21.84-29.52-49.44v-222c0-23.76,46.68-51.12,25.68-51.12h-147.24c-14.52,0,6.72,19.68,16.08,28.32,6.72,5.76,9.6,14.28,9.6,22.8v222c0,27.72-37.8,40.2-28.56,49.44,12.6,12.6,28.56,23.04,28.56,42.6v222c0,24.96-47.04,50.28-25.68,50.28h147.24c16.8,0-10.56-21.96-16.2-27.48h0Zm438.96,0c-5.76-6.72-9.48-14.28-9.48-22.8v-222.96c0-26.52,38.76-40.32,29.4-49.32-10.08-9.6-29.4-22.92-29.4-41.76v-222.96c0-24.24,47.04-50.16,25.56-50.16-244.32,0-120.6-5.28-120.6,51.12v313.08c0,3.48-4.68,5.88-6.6,.96-20.04-62.52-83.64-259.8-103.56-321.6-16.8-51,95.16-43.56-140.64-43.56-21.24,0,25.68,23.88,25.68,51.12v221.04c0,29.52-38.52,40.32-28.56,50.4,13.2,13.08,28.56,22.8,28.56,42.6v221.04c0,24.24-45.96,51.24-25.68,51.24,247.08,0,121.56,4.8,121.56-51.24v-324.48c0-3.36,4.56-5.88,6.72-.96,20.88,60.84,90.24,260.04,112.08,323.52,10.44,30.96-24.72,40.92-19.92,50.28,.96,1.92,1.8,2.88,4.68,2.88,175.8,0,167.04,9.36,130.2-27.48h0Z"/>
	<rect class="brand" x="4299.45" y="6756" width="48" height="48" transform="translate(-3527.87 5042.96) rotate(-45)"/>
	<path class="light" d="M3559.68,6851.04v-142.08h63.12v23.64h-38.88v36.12h33.96v23.52h-33.96v35.16h38.88v23.64h-63.12Zm916.08,0v-22.2l28.56-49.8c4.44-7.56,7.56-14.28,9.6-20.28,2.04-5.88,3-11.04,3-15.36v-1.8c0-3.48-.6-6-1.92-7.68-1.32-1.68-3.36-2.52-6.24-2.52-3.24,0-5.52,.96-6.96,3.12-1.56,2.04-2.28,5.28-2.28,9.72v5.16h-24.6v-5.16c0-12.36,2.76-21.6,8.28-27.6,5.52-6.12,13.8-9.12,25.08-9.12s19.56,2.88,25.08,8.52c5.4,5.64,8.16,14.16,8.16,25.56v1.92c0,5.16-1.08,11.16-3.36,18s-5.76,14.52-10.44,23.16l-22.56,42.48h36.24v23.88h-65.64Zm214.56,1.44c-10.32,0-18.48-3-24.12-8.88-5.76-6-8.64-14.4-8.64-25.32v-76.56c0-10.8,2.88-19.32,8.64-25.2,5.76-6,13.8-9,24.12-9s18.48,3,24.24,9c5.76,5.88,8.64,14.4,8.64,25.2v76.56c0,10.92-2.88,19.32-8.64,25.32-5.64,5.88-13.8,8.88-24.24,8.88Zm0-23.88c2.76,0,4.8-.84,6.36-2.64,1.56-1.92,2.28-4.44,2.28-7.68v-76.56c0-3.24-.72-5.76-2.28-7.56-1.56-1.92-3.6-2.76-6.36-2.76-2.52,0-4.68,.84-6.24,2.76-1.56,1.8-2.28,4.32-2.28,7.56v76.56c0,3.24,.72,5.76,2.28,7.68,1.56,1.8,3.6,2.64,6.24,2.64Zm149.64,22.44v-22.2l28.56-49.8c4.44-7.56,7.68-14.28,9.6-20.28,2.04-5.88,3-11.04,3-15.36v-1.8c0-3.48-.6-6-1.92-7.68-1.32-1.68-3.36-2.52-6.24-2.52-3.24,0-5.52,.96-6.96,3.12-1.44,2.04-2.28,5.28-2.28,9.72v5.16h-24.6v-5.16c0-12.36,2.88-21.6,8.28-27.6,5.52-6.12,13.92-9.12,25.08-9.12s19.56,2.88,25.08,8.52c5.52,5.64,8.16,14.16,8.16,25.56v1.92c0,5.16-1.08,11.16-3.36,18s-5.76,14.52-10.32,23.16l-22.56,42.48h36.12v23.88h-65.64Zm214.68,1.44c-10.44,0-18.6-3-24.24-8.88-5.76-6-8.64-14.4-8.64-25.32v-76.56c0-10.8,2.88-19.32,8.64-25.2,5.76-6,13.8-9,24.24-9s18.36,3,24.12,9c5.76,5.88,8.64,14.4,8.64,25.2v76.56c0,10.92-2.88,19.32-8.52,25.32-5.76,5.88-13.8,8.88-24.24,8.88h0Zm0-23.88c2.64,0,4.68-.84,6.24-2.64,1.56-1.92,2.28-4.44,2.28-7.68v-76.56c0-3.24-.72-5.76-2.28-7.56-1.56-1.92-3.6-2.76-6.24-2.76s-4.8,.84-6.24,2.76c-1.56,1.8-2.4,4.32-2.4,7.56v76.56c0,3.24,.72,5.76,2.28,7.68,1.56,1.8,3.6,2.64,6.36,2.64Zm-1285.08,23.88c-7.44,0-13.92-1.44-19.2-4.2s-9.36-6.72-12.24-11.88c-2.76-5.28-4.2-11.52-4.2-18.96v-7.68l24.12-.12v7.56c0,3.6,.96,6.36,3,8.52,2.04,2.04,4.8,3,8.4,3s6.24-.96,8.16-3,2.88-4.8,2.88-8.28v-12.48c0-2.88-.84-5.4-2.64-7.32-1.68-2.04-3.96-3.72-6.84-5.4-2.88-1.56-5.88-3.12-9.24-4.8-3.24-1.68-6.48-3.48-9.72-5.52-3.36-1.92-6.36-4.44-9-7.2-2.76-2.88-4.92-6.36-6.6-10.44-1.56-4.08-2.4-9-2.4-14.88v-7.32c0-10.92,3-19.44,9.24-25.44,6.12-6.12,14.76-9.12,26.04-9.12s19.32,3.12,25.44,9.24,9.12,14.64,9.12,25.8v7.92l-24.12,.36v-8.16c0-3.6-.84-6.48-2.76-8.52-1.8-2.04-4.44-3.12-7.68-3.12-3.6,0-6.24,.96-8.28,2.88-1.92,1.8-2.76,4.32-2.76,7.68v9.36c0,3.36,.96,6.12,2.88,8.16,2.04,2.16,4.56,4.08,7.68,5.64,3.24,1.56,6.6,3.36,10.08,5.16,3.12,1.56,6.12,3.24,9.12,5.16,3,1.8,5.76,3.96,8.28,6.6s4.56,5.88,6.12,9.72c1.44,3.72,2.28,8.52,2.28,14.16v11.88c0,11.04-3.12,19.68-9.24,25.8-6.12,6.12-14.76,9.24-25.92,9.24h0Zm166.8-1.44v-118.8h-23.4v-23.28h71.04v23.28h-23.4v118.8h-24.24Zm183.96-23.28h10.08c3.24,0,5.76-.96,7.56-3,1.68-2.04,2.64-4.8,2.64-8.28v-72.96c0-3.48-.96-6.36-2.64-8.28-1.8-2.04-4.32-3-7.56-3h-10.08v95.52Zm-8.04-118.8h20.52c10.32,0,18.24,2.88,23.88,8.4,5.64,5.64,8.4,13.44,8.4,23.52v78.24c0,6.72-1.32,12.48-3.84,17.16-2.52,4.8-6.24,8.52-11.04,10.92-4.8,2.52-10.68,3.84-17.52,3.84h-36.6v-142.08h16.2Z"/>
</svg>