<?xml version="1.0" encoding="UTF-8"?>
<svg xmlns="http://www.w3.org/2000/svg" viewBox="0 0 8640 8640">
	<style>
		.dark {fill: #202020;}
		.light {fill: #f0f0f0;}
		.brand {fill: #f0cc90;}
	</style>
	<rect class="dark" width="8640" height="8640"/>
	<path class="brand" d="M1701.03,4053.19h-143.96l-45.67-110.04c58.22,2.14,94.28,3.2,153.04-7.48,117.51-21.9,223.81-72.65,305-161.32,27.24-29.65,50.48-65.7,70.51-103.36,20.03,37.66,43.53,73.71,70.51,103.09,81.19,88.94,187.49,139.68,305,161.32,59.02,10.95,94.55,9.88,153.04,7.75l-45.67,110.04h-143.96c-6.68,39.26-10.15,67.3-13.09,106.83h228.35l157.04-378.98c-83.6,30.45-141.82,57.15-235.3,57.15-27.24,0-54.48-2.67-80.92-7.48-102.56-18.96-185.35-62.23-245.71-128.46-71.31-77.99-116.98-232.09-117.51-233.43l-31.78-108.97-31.78,108.97c-.53,1.34-46.2,155.44-117.51,233.43-60.36,66.24-143.15,109.5-245.71,128.46-77.72,14.42-158.64,7.75-232.63-19.23l-83.33-30.45,156.78,378.98h228.35c-2.94-39.53-6.41-67.57-13.09-106.83Zm978.84,194.17c-110.84-19.5-216.07-27.24-323.17-6.68-7.21,42.2-10.68,71.31-13.89,112.44,80.12-19.5,154.1-22.7,236.36-13.62,.8,33.12-.53,66.24-4.27,99.09,36.59-2.67,73.18-8.55,108.7-18.43,4.01-58.49,1.34-113.51-3.74-172.8h0Zm-390.2,299.4l-714.17,654.61,72.11,78.52,702.15-643.39c-17.89-2.94-35.52-6.14-53.15-9.08-2.4-26.97-4.81-53.68-6.94-80.66Zm155.97-57.42c-2.14-33.92-2.14-66.24,.53-99.35-42.2,3.47-67.04,9.08-107.37,18.96-2.14,57.69,2.4,115.38,7.21,172.8,180.01,30.98,374.71,28.31,532.56-75.05-39.26,137.01-153.57,241.71-293.25,268.95,31.25-39.79,56.09-85.2,75.05-132.2-40.6,6.41-80.92,9.61-122.06,9.61-61.43,112.71-163.19,177.34-302.87,150.37,190.96,131.67,435.61,108.7,606.27-42.47,170.93-156.51,204.58-406.76,95.08-600.13,30.18,287.11-272.15,341.86-491.16,328.51h0Zm-1045.61-241.97c110.84-19.5,216.07-27.24,323.17-6.68,7.21,42.2,10.95,71.31,13.89,112.44-80.12-19.5-154.1-22.7-236.36-13.62-.8,33.12,.53,66.24,4.27,99.09-36.59-2.67-73.18-8.55-108.43-18.43-4.27-58.49-1.6-113.51,3.47-172.8h0Zm390.2,299.4l210.19,192.83-78.79,72.11-191.5-175.2c17.89-2.94,35.52-6.14,53.15-9.08,2.4-26.97,4.81-53.68,6.94-80.66h0Zm368.03,337.32l346.13,317.29-71.84,78.52-353.08-323.43,78.79-72.38h0Zm-524.01-394.74c2.14-33.92,2.14-66.24-.53-99.35,42.47,3.47,67.04,9.08,107.37,18.96,2.14,57.69-2.4,115.38-7.21,172.8-179.74,30.98-374.71,28.31-532.56-75.05,39.26,137.01,153.57,241.71,293.52,268.95-31.52-39.79-56.35-85.2-75.32-132.2,40.6,6.41,80.92,9.61,122.06,9.61,61.43,112.71,163.19,177.34,302.87,150.37-190.96,131.67-435.61,108.7-606.27-42.47-170.66-156.51-204.58-406.76-95.08-600.13-29.91,287.11,272.15,341.86,491.16,328.51h0Z"/>
	<rect class="brand" x="3219.9" y="3239.93" width="60.09" height="2159.87"/>
	<path class="light" d="M3984.82,4386.5v-106.83c0-118.32-41.66-170.93-124.99-227.02-12.55-8.01-20.57-20.83-23.77-34.99-3.2-18.96-6.41-41.4-6.41-41.4-1.6-1.6-1.6-4.81-3.2-4.81-3.2-1.6-4.81-1.6-6.41-1.6,0,0-49.68,8.01-70.51,11.22-6.41,0-12.82-1.6-17.63-4.81-78.25-52.88-65.43-75.32-65.43-140.48v-81.73c0-52.61,38.19-57.42,59.02-57.42h28.84c20.83,0,59.29,4.81,59.29,57.42v116.45c0,3.2,1.6,6.41,3.2,8.01,3.2,0,6.41,1.6,8.01,0,31.78-16.02,115.11-58.76,140.75-71.58,3.2-3.2,6.41-8.01,6.41-12.82v-27.24s11.22-227.02-214.46-227.02h-35.25c-225.41,0-214.2,227.02-214.2,227.02v80.12c0,140.48,22.17,186.42,142.35,258.53,12.82,8.01,22.43,22.43,24.04,36.86,2.94,17.36,6.14,34.99,6.14,34.99,0,3.2,1.6,4.81,3.2,6.41,1.6,0,4.81,1.6,6.41,0,0,0,43.27-6.41,62.5-9.61,8.01,0,16.02,1.6,20.83,6.41,62.5,44.6,49.68,70.24,49.68,118.05v100.69c0,54.22-35.25,59.02-56.09,59.02h-49.68c-19.23,0-55.82-4.81-55.82-59.02v-114.84c0-1.6-1.6-4.81-4.81-6.41-1.6-1.6-4.81-1.6-8.01,0-30.45,16.02-115.38,59.02-140.75,71.84-4.81,3.2-8.01,6.41-8.01,12.82v22.17s-9.61,228.62,214.2,228.62h56.09c224.08,0,214.46-227.02,214.46-227.02h0Zm819.93,212.59s-27.24-26.97-44.87-44.6c-8.01-8.01-12.82-17.63-14.42-28.58-12.82-63.56-52.61-285.24-67.04-365.1-3.2-17.63,3.2-35.25,16.02-48.07,12.55-12.82,28.58-28.84,28.58-28.84,1.6-1.6,3.2-3.2,3.2-6.41,0-1.6-1.6-3.2-3.2-4.81,0,0-39.79-41.66-60.63-62.23-8.01-8.01-14.42-17.63-16.02-28.84-11.22-60.89-49.68-272.15-62.5-348.8-3.2-17.63,1.6-35.25,14.42-48.07l30.45-30.45c1.6-1.6,3.2-6.41,1.6-9.61-1.6-3.2-4.81-4.81-8.01-4.81h-326.37c-3.2,0-6.41,1.6-8.01,4.81s0,8.01,1.6,9.61c0,0,14.42,12.82,25.64,25.64,12.82,12.82,19.23,30.45,16.02,48.07-14.42,78.25-52.88,291.12-64.1,353.61-1.6,11.22-8.01,20.83-16.02,28.84-20.83,20.57-60.63,62.23-60.63,62.23-1.6,1.6-3.2,3.2-3.2,4.81,0,3.2,1.6,4.81,3.2,6.41,0,0,15.76,16.02,28.58,28.84,12.82,12.82,19.23,30.45,16.02,48.07-14.42,79.86-54.22,301.53-65.43,365.1-3.2,10.95-8.01,20.57-16.02,28.58-17.63,17.63-44.87,44.6-44.87,44.6-3.2,3.2-3.2,6.41-3.2,9.61,1.6,3.2,4.81,4.81,8.01,4.81h248.12c2.94,0,6.14-1.6,7.75-4.81,0-3.2,0-6.41-1.6-9.61,0,0-10.95-9.61-20.57-19.23-12.82-12.55-19.23-30.18-16.02-47.54,8.01-51.01,25.64-154.37,30.45-189.36,1.34-6.41,7.75-12.55,14.16-12.55h161.58c8.01,0,12.82,6.14,14.42,12.55,4.81,34.99,22.43,138.35,30.45,189.36,3.2,17.36-3.2,34.99-16.02,47.54-9.61,9.61-19.23,19.23-19.23,19.23-3.2,3.2-3.2,6.41-3.2,9.61,1.6,3.2,4.81,4.81,8.01,4.81h248.12c3.2,0,6.41-1.6,8.01-4.81,0-3.2,0-6.41-3.2-9.61h0Zm-286.31-428.66c-1.6,3.2-6.41,4.81-9.61,4.81h-104.16c-3.2,0-8.01-1.6-9.61-4.81-3.2-3.2-4.81-6.41-3.2-11.22,9.61-60.89,46.47-286.58,59.29-371.24,0-3.2,3.2-4.81,6.41-4.81,1.6,0,4.81,1.6,4.81,4.81,14.42,84.66,49.68,310.35,59.29,371.24,1.6,4.81,0,8.01-3.2,11.22h0Zm997.54-625.77c-1.6-3.2-4.81-4.81-8.01-4.81h-248.12c-3.2,0-6.41,1.6-8.01,4.81,0,3.2,0,8.01,3.2,9.61,0,0,9.61,9.61,19.23,20.83,12.82,12.55,19.23,30.18,16.02,47.81-19.23,121.25-99.09,610.01-119.92,744.08,0,1.6-3.2,4.81-4.81,4.81-3.2,0-6.41-3.2-6.41-4.81-20.83-134.07-100.96-622.83-119.92-744.08-3.2-17.63,3.2-35.25,15.76-48.07,9.61-10.95,20.83-20.57,20.83-20.57,1.6-1.6,1.6-6.41,1.6-9.61-1.6-3.2-4.81-4.81-8.01-4.81h-247.85c-3.2,0-6.41,1.6-8.01,4.81,0,3.2,0,8.01,1.6,9.61,0,0,28.84,28.58,46.47,44.6,8.01,8.01,12.82,19.23,15.76,30.45,11.22,62.23,51.28,284.17,65.7,364.3,3.2,17.63-3.2,34.99-16.02,47.54-12.82,14.42-28.84,30.45-28.84,30.45-1.6,1.6-3.2,3.2-3.2,4.81,0,3.2,1.6,4.81,3.2,6.41l60.89,60.89c8.01,8.01,14.42,19.23,16.02,30.45,11.22,60.36,49.68,269.75,62.5,346.67,3.2,17.36-1.6,36.59-14.42,49.41-14.42,12.82-30.45,28.84-30.45,28.84-1.6,3.2-3.2,6.41-1.6,9.61,1.6,3.2,4.81,4.81,8.01,4.81h326.37c3.2,0,6.41-1.6,8.01-4.81,1.6-3.2,0-6.41-1.6-9.61,0,0-14.42-12.82-25.64-25.64-12.82-12.82-19.23-30.45-16.02-47.81,14.42-76.92,52.88-291.12,64.1-351.48,1.6-11.22,8.01-22.43,16.02-30.45,20.57-20.83,60.63-60.89,60.63-60.89,1.6-1.6,3.2-3.2,3.2-6.41,0-1.6-1.6-3.2-3.2-4.81,0,0-16.02-16.02-28.84-30.45-12.55-12.55-18.96-29.91-15.76-47.54,14.16-80.12,54.22-302.07,67.04-364.3,1.6-11.22,6.41-22.43,14.42-30.45,17.63-16.02,44.87-44.6,44.87-44.6,3.2-1.6,3.2-6.41,3.2-9.61h0Zm703.22,1054.43s-27.24-26.97-44.87-44.6c-8.01-8.01-12.82-17.63-14.42-28.58-12.82-63.56-52.88-285.24-67.3-365.1-3.2-17.63,3.2-35.25,16.02-48.07,12.82-12.82,28.84-28.84,28.84-28.84,1.6-1.6,3.2-3.2,3.2-6.41,0-1.6-1.6-3.2-3.2-4.81,0,0-40.06-41.66-60.89-62.23-7.75-8.01-14.16-17.63-15.76-28.84-11.22-60.89-49.68-272.15-62.5-348.8-3.2-17.63,1.6-35.25,14.42-48.07l30.45-30.45c1.6-1.6,3.2-6.41,1.6-9.61-1.6-3.2-4.81-4.81-8.01-4.81h-326.37c-3.2,0-6.41,1.6-8.01,4.81s0,8.01,1.6,9.61c0,0,14.42,12.82,25.64,25.64,12.55,12.82,18.96,30.45,15.76,48.07-14.16,78.25-52.61,291.12-63.83,353.61-1.6,11.22-8.01,20.83-16.02,28.84-20.83,20.57-60.89,62.23-60.89,62.23-1.6,1.6-3.2,3.2-3.2,4.81,0,3.2,1.6,4.81,3.2,6.41,0,0,16.02,16.02,28.84,28.84,12.82,12.82,19.23,30.45,16.02,48.07-14.42,79.86-54.48,301.53-65.7,365.1-3.2,10.95-8.01,20.57-16.02,28.58-17.36,17.63-44.6,44.6-44.6,44.6-3.2,3.2-3.2,6.41-3.2,9.61,1.6,3.2,4.81,4.81,8.01,4.81h247.85c3.2,0,6.41-1.6,8.01-4.81,0-3.2,0-6.41-1.6-9.61,0,0-11.22-9.61-20.83-19.23-12.82-12.55-19.23-30.18-16.02-47.54,8.01-51.01,25.64-154.37,30.45-189.36,1.6-6.41,8.01-12.55,14.42-12.55h161.58c8.01,0,12.82,6.14,14.42,12.55,4.81,34.99,22.43,138.35,30.45,189.36,3.2,17.36-3.2,34.99-16.02,47.54-9.61,9.61-19.23,19.23-19.23,19.23-3.2,3.2-3.2,6.41-3.2,9.61,1.6,3.2,4.81,4.81,8.01,4.81h248.12c3.2,0,6.41-1.6,8.01-4.81,0-3.2,0-6.41-3.2-9.61h0Zm-286.58-428.66c-1.6,3.2-6.41,4.81-9.61,4.81h-103.89c-3.2,0-8.01-1.6-9.61-4.81-3.2-3.2-4.81-6.41-3.2-11.22,9.61-60.89,46.47-286.58,59.29-371.24,0-3.2,3.2-4.81,6.41-4.81,1.6,0,4.81,1.6,4.81,4.81,14.42,84.66,49.41,310.35,59.02,371.24,1.6,4.81,0,8.01-3.2,11.22h0Zm975.37-163.19c-1.6-1.6-4.81-4.81-8.01-4.81h-252.92c-4.81,0-8.01,3.2-8.01,6.41-8.01,21.9-38.46,108.17-49.68,138.61,0,1.6,0,4.81,1.6,8.01,1.6,1.6,3.2,3.2,6.41,3.2h84.93c6.41,0,12.82,6.41,12.82,12.82v227.82c0,54.22-38.46,59.02-59.29,59.02h-62.23c-20.83,0-57.69-4.81-57.69-59.02v-645c0-52.88,36.86-57.69,57.69-57.69h62.23c20.83,0,59.29,4.81,59.29,57.69v155.17c0,3.2,1.6,6.41,4.81,8.01,1.6,0,4.81,1.6,8.01,0,30.45-16.02,113.51-59.29,139.15-71.84,4.81-3.2,8.01-8.01,8.01-12.82v-65.7s11.22-227.28-212.86-227.28h-71.84c-225.68,0-214.46,227.28-214.46,227.28v233.69c0,14.42-6.41,28.31-16.02,39.53-14.42,12.82-32.05,32.05-32.05,32.05-1.6,1.6-3.2,3.2-3.2,4.81,0,3.2,1.6,4.81,3.2,6.41,0,0,17.63,17.63,32.05,31.78,9.61,9.61,16.02,24.04,16.02,38.46v232.63s-11.22,227.02,214.46,227.02h71.84c224.08,0,212.86-227.02,212.86-227.02v-296.46c0-14.42,4.81-28.84,16.02-38.46,14.42-14.42,35.25-34.72,35.25-34.72,1.6-1.6,3.2-6.41,1.6-9.61Zm366.97-310.61h196.84c14.42,0,28.84,4.81,38.46,16.02,16.02,14.42,36.86,35.25,36.86,35.25,1.6,1.6,4.81,3.2,8.01,1.6,3.2-1.6,4.81-4.81,4.81-8.01v-187.22c0-8.01-6.41-14.42-12.82-14.42h-491.16c-3.2,0-6.41,1.6-8.01,4.81,0,3.2,0,8.01,3.2,9.61,0,0,19.23,19.23,33.65,33.65,9.61,9.61,15.76,24.04,15.76,38.46v372.84c0,14.42-6.14,28.58-15.76,39.79-14.42,14.42-33.65,33.65-33.65,33.65-1.6,1.6-3.2,3.2-3.2,4.81,0,3.2,1.6,4.81,3.2,6.41,0,0,19.23,19.23,33.65,33.65,9.61,9.61,15.76,24.04,15.76,38.46v371.24c0,14.16-6.14,28.58-15.76,38.19-14.42,14.42-33.65,33.65-33.65,33.65-3.2,3.2-3.2,6.41-3.2,9.61,1.6,3.2,4.81,4.81,8.01,4.81h491.16c6.41,0,12.82-6.41,12.82-12.82v-188.56c0-4.81-1.6-6.41-4.81-8.01s-6.41-1.6-8.01,1.6c0,0-22.43,20.83-36.86,36.86-11.22,9.35-24.04,15.76-40.06,15.76h-195.23c-3.2,0-7.75-1.6-9.35-4.81-3.2-1.6-4.81-4.54-4.81-9.35v-275.63c0-4.81,1.6-7.75,4.81-9.35,1.6-3.2,6.14-4.81,9.35-4.81h136.21c14.42,0,28.84,6.41,38.19,15.76,16.02,16.02,36.86,36.59,36.86,36.59,3.2,3.2,6.41,3.2,9.61,1.6s4.81-3.2,4.81-6.41v-247.58c0-3.2-1.6-6.41-4.81-8.01-3.2-1.6-6.41,0-9.61,1.6,0,0-19.23,20.83-35.25,35.25-9.61,9.61-23.77,16.02-38.19,16.02h-137.81c-7.75,0-14.16-6.41-14.16-12.82v-276.96c0-8.01,6.41-12.82,14.16-12.82Z"/>
	<path class="light" d="M3608.24,5047.79h20.3c6.41,0,11.48-1.87,14.96-5.88,3.47-4.27,5.34-9.61,5.34-16.83v-145.56c0-7.21-1.87-12.82-5.34-16.83-3.47-4.01-8.55-5.88-14.96-5.88h-20.3v190.96h0Zm-16.02-237.43h41.13c20.3,0,36.32,5.61,47.54,16.83,11.22,10.95,16.83,26.71,16.83,46.74v156.78c0,13.35-2.4,24.57-7.48,34.19s-12.55,16.83-22.17,21.9c-9.61,5.07-21.37,7.48-34.99,7.48h-73.18v-283.9h32.32Zm297.26,283.9v-283.9h126.06v47.27h-77.72v72.11h68.11v47.01h-68.11v70.24h77.72v47.27h-126.06Zm375.51,2.94c-14.96,0-27.78-2.67-38.46-8.28-10.68-5.61-18.7-13.35-24.3-23.77-5.61-10.68-8.55-23.24-8.55-37.93v-15.22l48.34-.53v15.22c0,7.21,1.87,12.82,5.88,17.09,4.01,4.01,9.61,6.14,16.83,6.14s12.55-2.14,16.29-6.14c4.01-4.01,5.88-9.61,5.88-16.56v-24.84c0-5.88-1.87-10.95-5.34-14.69-3.47-4.01-8.01-7.75-13.62-10.95-5.88-3.2-12.02-6.41-18.7-9.61-6.41-3.2-12.82-6.94-19.23-10.95-6.68-4.01-12.82-8.81-18.16-14.42-5.34-5.88-9.61-12.82-13.09-20.83-3.2-8.28-4.81-18.16-4.81-29.65v-14.69c0-21.9,6.14-38.99,18.43-51.01s29.65-18.16,52.08-18.16,38.73,6.14,50.74,18.43c12.29,12.29,18.43,29.38,18.43,51.55v16.02l-48.07,.53v-16.29c0-7.21-1.87-12.82-5.61-17.09-3.74-4.01-9.08-6.14-15.49-6.14-7.21,0-12.55,1.87-16.56,5.61-3.74,3.74-5.61,8.81-5.61,15.49v18.7c0,6.68,1.87,12.29,5.88,16.56,4.01,4.01,9.08,7.75,15.49,10.95,6.41,3.2,13.09,6.68,20.03,10.42,6.14,3.2,12.29,6.68,18.16,10.15,6.14,3.74,11.75,8.28,16.83,13.35,4.81,5.34,8.81,11.75,12.02,19.23,2.94,7.75,4.54,17.36,4.54,28.58v23.77c0,22.17-6.14,39.26-18.43,51.55-12.29,12.29-29.65,18.43-51.81,18.43h0Zm302.6-286.84v283.9h-48.61v-283.9h48.61Zm258.27,130.6h71.31v84.93c0,14.96-2.94,27.78-8.28,38.46-5.61,10.68-13.62,18.7-24.04,24.57-10.42,5.34-23.24,8.28-38.19,8.28s-27.51-2.67-38.19-8.01c-10.95-5.61-18.96-13.62-24.57-23.77-5.88-10.42-8.55-22.97-8.55-37.39v-147.43c0-15.22,2.67-28.58,8.28-39.53,5.61-10.68,13.62-19.23,24.3-24.84,10.42-5.88,23.24-8.81,37.66-8.81s26.97,2.67,37.39,8.28c10.15,5.61,18.16,13.89,23.5,24.3,5.61,10.68,8.28,23.5,8.28,38.46v21.9h-49.94v-21.9c0-6.94-1.6-12.29-5.07-16.02-3.47-4.01-8.28-5.88-14.16-5.88-6.68,0-11.75,2.14-15.49,6.41s-5.61,10.42-5.61,17.63v147.43c0,6.14,1.87,10.95,5.88,14.69,4.01,3.47,9.35,5.34,16.29,5.34s12.82-1.87,16.83-5.88c4.27-3.74,6.14-9.08,6.14-15.76v-38.99h-23.77v-46.47h0Zm259.07,153.3v-283.9h37.93l61.7,174.67v-174.67h44.07v283.9h-38.46l-60.89-165.05v165.05h-44.33Z"/>
	<path class="light" d="M3559.63,6850.84v-141.82h63.03v23.5h-38.73v36.06h33.92v23.5h-33.92v35.25h38.73v23.5h-63.03Zm209.92,1.6c-7.48,0-13.89-1.6-19.23-4.27s-9.35-6.68-12.29-12.02c-2.67-5.07-4.27-11.48-4.27-18.96v-7.48l24.3-.27v7.75c0,3.47,.8,6.41,2.94,8.28,1.87,2.14,4.81,3.2,8.28,3.2,3.74,0,6.41-1.07,8.28-2.94,1.87-2.14,2.94-4.81,2.94-8.55v-12.29c0-2.94-.8-5.34-2.67-7.48-1.6-1.87-4.01-3.74-6.94-5.34-2.94-1.6-5.88-3.2-9.08-4.81-3.2-1.6-6.68-3.47-9.88-5.34-3.2-2.14-6.14-4.54-9.08-7.48-2.67-2.67-4.81-6.14-6.41-10.15-1.6-4.27-2.4-9.08-2.4-14.96v-7.21c0-10.95,2.94-19.5,9.08-25.64,6.14-6.14,14.96-9.08,26.17-9.08s19.23,3.2,25.37,9.35c6.14,5.88,9.35,14.69,9.35,25.64v8.01l-24.3,.27v-8.01c0-3.74-.8-6.68-2.67-8.55-1.87-2.14-4.54-3.2-7.75-3.2-3.74,0-6.41,1.07-8.28,2.94-1.87,1.87-2.94,4.27-2.94,7.48v9.61c0,3.2,1.07,5.88,3.2,8.01,1.87,2.14,4.54,4.01,7.48,5.61,3.2,1.6,6.68,3.47,10.15,5.34,2.94,1.6,6.14,3.2,9.08,5.07s5.88,4.01,8.28,6.68c2.67,2.4,4.54,5.61,6.14,9.61,1.6,3.74,2.14,8.55,2.14,14.16v11.75c0,11.22-2.94,19.76-9.08,25.91-6.14,6.14-14.96,9.35-25.91,9.35h0Zm166.66-1.6v-118.58h-23.24v-23.24h71.04v23.24h-23.5v118.58h-24.3Zm184.02-23.24h10.15c3.2,0,5.61-1.07,7.48-2.94,1.87-2.14,2.67-4.81,2.67-8.28v-72.91c0-3.47-.8-6.41-2.67-8.28-1.87-2.14-4.27-2.94-7.48-2.94h-10.15v95.35h0Zm-8.01-118.58h20.57c10.15,0,18.16,2.67,23.77,8.28,5.61,5.61,8.55,13.35,8.55,23.5v78.25c0,6.68-1.34,12.29-4.01,17.09-2.4,4.81-6.14,8.55-10.95,10.95-4.81,2.4-10.68,3.74-17.36,3.74h-36.59v-141.82h16.02Z"/>
	<rect class="brand" x="4299.39" y="6755.9" width="48" height="48" transform="translate(-3527.82 5042.88) rotate(-45)"/>
	<path class="light" d="M4475.71,6850.84v-22.17l28.58-49.68c4.27-7.75,7.48-14.42,9.61-20.3,1.87-5.88,2.94-10.95,2.94-15.49v-1.87c0-3.47-.53-5.88-1.87-7.48-1.34-1.87-3.47-2.67-6.41-2.67-3.2,0-5.34,1.07-6.94,3.2-1.34,2.14-2.14,5.34-2.14,9.88v5.07h-24.57v-5.07c0-12.55,2.67-21.63,8.28-27.78,5.34-6.14,13.89-9.08,25.11-9.08s19.5,2.94,24.84,8.55c5.61,5.61,8.28,14.16,8.28,25.64v1.87c0,5.07-1.07,11.22-3.2,17.89-2.4,6.94-5.88,14.69-10.42,23.24l-22.7,42.47h36.32v23.77h-65.7Zm214.46,1.6c-10.15,0-18.43-2.94-24.04-9.08-5.88-5.88-8.55-14.42-8.55-25.11v-76.65c0-10.95,2.67-19.23,8.55-25.11,5.88-6.14,13.89-9.08,24.04-9.08s18.43,2.94,24.3,9.08c5.88,5.88,8.55,14.16,8.55,25.11v76.65c0,10.68-2.67,19.23-8.55,25.11-5.61,6.14-13.89,9.08-24.3,9.08Zm0-24.04c2.67,0,4.81-.8,6.41-2.67,1.6-1.87,2.4-4.27,2.4-7.48v-76.65c0-3.2-.8-5.88-2.4-7.48-1.6-1.87-3.74-2.94-6.41-2.94-2.4,0-4.54,1.07-6.14,2.94-1.6,1.6-2.4,4.27-2.4,7.48v76.65c0,3.2,.8,5.61,2.4,7.48,1.6,1.87,3.47,2.67,6.14,2.67Zm149.83,22.43v-22.17l28.58-49.68c4.27-7.75,7.48-14.42,9.61-20.3,1.87-5.88,2.94-10.95,2.94-15.49v-1.87c0-3.47-.8-5.88-1.87-7.48-1.34-1.87-3.47-2.67-6.41-2.67-3.2,0-5.61,1.07-6.94,3.2-1.6,2.14-2.14,5.34-2.14,9.88v5.07h-24.57v-5.07c0-12.55,2.67-21.63,8.28-27.78,5.34-6.14,13.62-9.08,24.84-9.08s19.76,2.94,25.11,8.55c5.61,5.61,8.28,14.16,8.28,25.64v1.87c0,5.07-1.07,11.22-3.47,17.89-2.14,6.94-5.61,14.69-10.42,23.24l-22.43,42.47h36.06v23.77h-65.43Zm214.46,1.6c-10.42,0-18.43-2.94-24.04-9.08-5.88-5.88-8.81-14.42-8.81-25.11v-76.65c0-10.95,2.94-19.23,8.81-25.11,5.61-6.14,13.62-9.08,24.04-9.08s18.43,2.94,24.3,9.08c5.61,5.88,8.55,14.16,8.55,25.11v76.65c0,10.68-2.94,19.23-8.55,25.11-5.88,6.14-13.89,9.08-24.3,9.08Zm0-24.04c2.67,0,4.81-.8,6.41-2.67,1.34-1.87,2.14-4.27,2.14-7.48v-76.65c0-3.2-.8-5.88-2.14-7.48-1.6-1.87-3.74-2.94-6.41-2.94s-4.54,1.07-6.14,2.94c-1.6,1.6-2.4,4.27-2.4,7.48v76.65c0,3.2,.8,5.61,2.4,7.48,1.34,1.87,3.47,2.67,6.14,2.67Z"/>
</svg>