<?xml version="1.0" encoding="UTF-8"?>
<svg xmlns="http://www.w3.org/2000/svg" viewBox="0 0 15360 5120">
	<style>
		.light {fill: #f0f0f0;}
		.brand {fill: #f0cc90;}
	</style>
	<path class="brand" d="M1472.36,1927.8h-341.39l-108.12-261.09c138.02,5.56,223.19,8,362.6-17.73,278.47-51.45,530.52-171.74,723.12-382.42,63.97-70.23,119.59-155.75,166.87-244.4,47.63,88.65,102.9,174.17,167.22,244.4,192.25,210.68,444.65,330.96,723.12,382.42,139.41,25.73,224.24,23.29,362.6,17.73l-108.12,261.09h-341.39c-15.64,92.82-23.99,159.92-30.94,253.09h541.29l371.99-898.33c-198.16,72.31-335.83,135.24-557.29,135.24-64.66,0-129.33-5.91-192.25-17.38-243.01-44.85-439.08-147.4-582.32-304.54-168.96-184.6-277.43-549.98-278.47-553.46l-75.09-257.96-75.44,257.96c-1.04,3.48-109.51,368.86-278.47,553.46-143.23,157.14-339.31,259.7-582.66,304.54-184.26,34.07-375.81,18.43-551.72-45.89l-197.47-71.96,371.99,898.33h541.29c-6.95-93.17-15.3-160.27-30.94-253.09h0Zm2319.88,459.94c-262.48-45.89-512.09-64.32-765.53-15.3-17.03,99.78-26.07,168.61-33.37,266.3,190.17-45.89,365.38-54.23,560.41-32.68,1.74,78.57-1.04,157.14-9.73,235.36,86.57-6.26,173.13-20.16,256.91-43.8,10.08-139.06,3.48-269.08-8.69-409.88h0Zm-924.41,709.9l-1693.41,1551.57,171.04,186.34,1664.21-1525.15c-42.07-6.95-83.78-14.25-125.85-21.55-5.56-63.62-11.12-127.59-15.99-191.21Zm369.55-136.28c-5.56-80.31-5.21-156.79,1.04-235.36-100.12,8-158.88,21.9-254.48,44.85-4.87,136.97,5.91,273.6,17.38,409.88,426.22,73.7,888.25,67.1,1262.32-178-93.52,324.71-363.99,572.93-695.65,637.59,74.4-94.56,133.15-201.99,178-313.58-95.95,15.3-191.56,22.6-288.9,22.95-145.67,267-386.94,420.66-718.25,356.34,452.99,311.84,1032.52,257.96,1437.19-100.47,405.01-371.29,485.32-964.39,225.28-1422.94,71.27,681.05-644.89,810.72-1163.94,778.74h0ZM758.98,2387.74c262.48-45.89,512.09-64.32,765.53-15.3,17.03,99.78,26.07,168.61,33.37,266.3-190.17-45.89-365.38-54.23-560.41-32.68-1.74,78.57,1.04,157.14,9.73,235.36-86.57-6.26-173.13-20.16-256.91-43.8-10.08-139.06-3.48-269.08,8.69-409.88h0Zm924.41,709.9l498.53,456.81-187.04,171.39-453.34-415.44c42.07-6.95,83.78-14.25,125.85-21.55,5.56-63.62,11.12-127.59,15.99-191.21h0Zm872.95,799.95l820.46,751.62-171.04,186.34-836.45-766.57,187.04-171.39h0Zm-1242.51-936.23c5.56-80.31,5.21-156.79-1.04-235.36,100.12,8,158.88,21.9,254.48,44.85,4.87,136.97-5.91,273.6-17.38,409.88-426.22,73.7-888.25,67.1-1262.32-178,93.17,324.71,363.99,572.93,695.65,637.59-74.4-94.56-133.5-201.99-178-313.58,95.95,15.3,191.56,22.6,288.9,22.95,145.67,267,386.94,420.66,718.25,356.34-452.99,311.84-1032.53,257.96-1437.19-100.47C-29.84,3234.27-110.15,2641.18,149.9,2182.62c-71.27,681.05,644.89,810.72,1163.94,778.74h0Z"/>
	<rect class="brand" x="5072.64" y=".07" width="142.19" height="5119.86"/>
	<path class="light" d="M6885.3,2718.01v-253.44c0-280.55-98.39-405.01-295.5-537.82-30.59-19.12-49.37-49.37-57.01-83.44-7.65-44.85-15.3-98.04-15.3-98.04-3.82-3.82-3.82-11.47-7.65-11.47-7.3-3.82-11.13-3.82-14.95-3.82,0,0-117.51,19.12-166.87,26.77-15.3,0-30.25-3.82-41.72-11.47-185.99-125.15-155.4-178.35-155.4-333.05v-193.64c0-124.46,90.74-135.58,140.1-135.58h68.49c49.02,0,140.1,11.12,140.1,135.58v276.38c0,7.65,3.82,15.3,7.65,19.12,7.65,0,15.3,3.48,19.12,0,75.79-38.24,272.91-139.76,333.75-170.35,7.3-7.3,14.95-18.77,14.95-30.25v-64.32s26.77-538.16-508.27-538.16h-83.44c-534.69,0-507.92,538.16-507.92,538.16v189.47c0,333.05,52.84,442.56,337.22,613.26,30.59,18.77,53.19,53.19,57.01,87.26,7.65,41.02,15.3,82.74,15.3,82.74,0,7.65,3.82,11.47,7.65,15.3,3.48,0,11.13,3.48,14.95,0,0,0,102.56-15.3,148.1-22.94,18.77,0,37.89,3.82,49.02,15.3,148.1,106.03,117.85,166.87,117.85,279.86v238.84c0,128.63-83.44,139.76-132.8,139.76h-117.51c-45.54,0-132.8-11.12-132.8-139.76v-272.21c0-3.82-3.82-11.47-11.47-15.3-3.82-3.82-11.47-3.82-18.77,0-72.31,37.89-273.25,139.76-333.75,170-11.47,7.65-19.12,15.3-19.12,30.59v52.84s-22.6,541.64,508.27,541.64h132.8c530.86,0,507.92-537.82,507.92-537.82h0Zm1943.72,503.75s-64.32-63.62-106.03-105.34c-19.12-19.12-30.25-41.72-34.07-68.49-30.59-150.19-125.15-675.49-159.22-865.3-7.65-41.72,7.3-83.44,37.89-113.68,30.25-30.25,68.14-68.14,68.14-68.14,3.82-3.82,7.65-7.65,7.65-15.3,0-3.82-3.82-7.65-7.65-11.47,0,0-94.91-98.39-144.28-147.75-18.77-19.12-34.07-41.72-37.89-68.49-26.42-143.93-117.51-644.55-147.75-826.72-7.65-41.72,3.82-83.44,34.07-113.68,34.07-34.07,71.96-71.96,71.96-71.96,3.82-3.82,7.65-15.3,3.82-22.94-3.82-7.65-11.13-11.47-18.77-11.47h-773.87c-7.65,0-14.95,3.82-18.77,11.47-3.82,7.65,0,19.12,3.82,22.94,0,0,34.07,30.25,60.49,60.49,30.25,30.25,45.54,71.96,37.89,113.68-34.07,185.99-125.15,690.44-151.58,838.19-3.82,26.77-19.12,49.37-37.89,68.49-49.37,49.37-144.28,147.75-144.28,147.75-3.82,3.82-7.65,7.65-7.65,11.47,0,7.65,3.82,11.47,7.65,15.3,0,0,37.89,37.89,68.49,68.14,30.25,30.25,45.54,71.96,37.89,113.68-34.07,189.82-128.98,715.12-155.75,865.3-7.3,26.77-18.77,49.37-37.89,68.49-41.72,41.72-106.03,105.34-106.03,105.34-7.65,7.65-7.65,15.3-7.65,22.95,3.82,7.65,11.47,11.12,19.12,11.12h587.88c7.3,0,14.95-3.48,18.77-11.12,0-7.65,0-15.3-3.82-22.95,0,0-26.42-22.6-49.37-45.54-30.25-29.55-45.54-71.27-37.89-112.99,19.12-120.64,60.84-365.38,72.31-448.82,3.48-15.3,18.77-29.55,34.07-29.55h383.11c18.77,0,30.25,14.25,34.07,29.55,11.13,83.44,52.84,328.18,71.96,448.82,7.65,41.72-7.65,83.44-37.89,112.99-22.95,22.95-45.54,45.54-45.54,45.54-7.65,7.65-7.65,15.3-7.65,22.95,3.82,7.65,11.47,11.12,19.12,11.12h587.88c7.3,0,14.95-3.48,18.77-11.12,0-7.65,0-15.3-7.65-22.95h0Zm-678.62-1016.19c-3.82,7.3-15.3,11.12-22.95,11.12h-246.48c-7.65,0-18.77-3.82-22.6-11.12-7.65-7.65-11.47-15.3-7.65-26.77,22.6-143.93,109.86-678.62,140.1-879.91,0-7.3,7.65-11.12,15.3-11.12,3.82,0,11.47,3.82,11.47,11.12,34.07,201.29,117.51,735.98,140.1,879.91,3.82,11.47,0,19.12-7.3,26.77h0Zm2364.38-1483.08c-3.48-7.65-11.13-11.47-18.77-11.47h-587.88c-7.65,0-15.3,3.82-19.12,11.47,0,7.65,0,19.12,7.65,22.94,0,0,22.95,22.6,45.54,49.02,30.25,29.9,45.54,71.62,37.89,113.33-45.54,287.51-235.01,1446.23-284.38,1763.98,0,3.82-7.65,11.47-11.47,11.47-7.3,0-14.95-7.65-14.95-11.47-49.37-317.75-239.18-1476.48-284.38-1763.98-7.65-41.72,7.3-83.44,37.89-113.68,22.6-26.07,49.02-48.67,49.02-48.67,3.82-3.82,3.82-15.3,3.82-22.94-3.82-7.65-11.13-11.47-18.77-11.47h-587.88c-7.65,0-15.3,3.82-19.12,11.47,0,7.65,0,19.12,3.82,22.94,0,0,68.49,67.44,110.21,105.34,18.77,19.12,30.25,45.54,37.89,72.31,26.42,147.75,121.33,673.75,155.4,863.22,7.65,41.72-7.65,83.44-37.89,113.33-30.25,34.07-68.14,71.96-68.14,71.96-3.82,3.82-7.65,7.65-7.65,11.47,0,7.3,3.82,11.12,7.65,14.95,0,0,94.56,94.91,143.93,144.28,19.12,18.77,34.07,45.54,37.89,71.96,26.77,143.58,117.51,639.68,148.1,821.85,7.3,41.72-3.82,87.26-34.42,117.51-34.07,30.25-71.96,68.14-71.96,68.14-3.82,7.65-7.65,15.3-3.82,22.95,3.82,7.65,11.47,11.12,19.12,11.12h773.52c7.65,0,15.3-3.48,19.12-11.12,3.82-7.65,0-15.3-3.82-22.95,0,0-34.07-30.25-60.84-60.49-30.25-30.59-45.54-72.31-37.89-114.03,34.07-181.82,125.15-689.39,151.92-832.97,3.82-26.42,18.77-53.19,37.89-71.96,49.37-49.37,143.93-144.28,143.93-144.28,3.82-3.82,7.65-7.65,7.65-14.95,0-3.82-3.82-7.65-7.65-11.47,0,0-37.89-37.89-68.14-71.96-30.25-29.9-45.54-71.62-37.89-113.33,34.07-189.47,128.98-715.47,159.22-863.22,3.82-26.77,15.3-53.19,34.07-72.31,41.72-37.89,106.38-105.34,106.38-105.34,7.3-3.82,7.3-15.3,7.3-22.94h0Zm1666.99,2499.27s-64.32-63.62-106.03-105.34c-19.12-19.12-30.59-41.72-34.42-68.49-30.25-150.19-125.15-675.49-159.22-865.3-7.65-41.72,7.65-83.44,37.89-113.68,30.59-30.25,68.49-68.14,68.49-68.14,3.82-3.82,7.3-7.65,7.3-15.3,0-3.82-3.48-7.65-7.3-11.47,0,0-94.91-98.39-144.28-147.75-18.77-19.12-34.07-41.72-37.89-68.49-26.42-143.93-117.51-644.55-147.75-826.72-7.65-41.72,3.48-83.44,34.07-113.68,34.07-34.07,71.96-71.96,71.96-71.96,3.82-3.82,7.65-15.3,3.82-22.94-3.82-7.65-11.47-11.47-19.12-11.47h-773.52c-7.65,0-15.3,3.82-19.12,11.47-3.82,7.65,0,19.12,3.82,22.94,0,0,34.07,30.25,60.84,60.49,30.25,30.25,45.54,71.96,37.89,113.68-34.07,185.99-125.15,690.44-151.58,838.19-3.82,26.77-19.12,49.37-38.24,68.49-49.02,49.37-143.93,147.75-143.93,147.75-3.82,3.82-7.65,7.65-7.65,11.47,0,7.65,3.82,11.47,7.65,15.3,0,0,37.89,37.89,68.14,68.14,30.59,30.25,45.54,71.96,37.89,113.68-34.07,189.82-128.98,715.12-155.4,865.3-7.65,26.77-18.77,49.37-37.89,68.49-41.72,41.72-106.03,105.34-106.03,105.34-7.65,7.65-7.65,15.3-7.65,22.95,3.82,7.65,11.13,11.12,18.77,11.12h587.88c7.65,0,15.3-3.48,19.12-11.12,0-7.65,0-15.3-3.82-22.95,0,0-26.77-22.6-49.37-45.54-30.25-29.55-45.54-71.27-37.89-112.99,18.77-120.64,60.49-365.38,71.96-448.82,3.82-15.3,19.12-29.55,34.07-29.55h383.11c19.12,0,30.25,14.25,34.07,29.55,11.47,83.44,53.19,328.18,72.31,448.82,7.3,41.72-7.65,83.44-37.89,112.99-22.95,22.95-45.54,45.54-45.54,45.54-7.65,7.65-7.65,15.3-7.65,22.95,3.82,7.65,11.47,11.12,18.77,11.12h587.88c7.65,0,15.3-3.48,19.12-11.12,0-7.65,0-15.3-7.65-22.95h0Zm-678.96-1016.19c-3.82,7.3-14.95,11.12-22.6,11.12h-246.48c-7.65,0-19.12-3.82-22.95-11.12-7.65-7.65-11.13-15.3-7.65-26.77,22.95-143.93,110.21-678.62,140.45-879.91,0-7.3,7.65-11.12,15.3-11.12,3.82,0,11.13,3.82,11.13,11.12,34.42,201.29,117.85,735.98,140.45,879.91,3.82,11.47,0,19.12-7.65,26.77h0Zm2311.53-386.94c-3.82-3.82-11.13-11.47-18.77-11.47h-599.35c-11.47,0-18.77,7.65-18.77,15.3-19.12,52.5-91.08,256.57-117.85,328.53,0,3.82,0,11.47,3.82,19.12,3.82,3.82,7.65,7.65,15.3,7.65h200.94c15.3,0,30.25,14.95,30.25,30.25v540.25c0,128.63-90.74,139.76-140.1,139.76h-148.1c-49.02,0-136.28-11.12-136.28-139.76V1219.28c0-125.15,87.26-136.28,136.28-136.28h148.1c49.37,0,140.1,11.12,140.1,136.28v367.82c0,7.65,3.82,15.3,11.47,19.12,3.82,0,11.47,3.82,19.12,0,71.96-37.89,269.08-140.45,329.92-170.7,11.47-7.65,18.77-18.77,18.77-30.25v-155.4s26.77-538.86-504.44-538.86h-170.35c-535.04,0-508.27,538.86-508.27,538.86v553.46c0,34.07-15.3,67.79-37.89,94.21-34.42,30.25-76.14,75.79-76.14,75.79-3.48,3.82-7.3,7.65-7.3,11.47,0,7.65,3.82,11.47,7.3,15.3,0,0,41.72,41.72,76.14,75.09,22.6,22.94,37.89,57.01,37.89,91.08v551.72s-26.77,537.82,508.27,537.82h170.35c531.21,0,504.44-537.82,504.44-537.82v-702.95c0-34.07,11.47-68.14,37.89-90.74,34.42-34.42,83.44-83.09,83.44-83.09,3.82-3.82,7.65-14.95,3.82-22.6h0Zm870.52-735.63h466.55c34.07,0,68.14,11.12,91.08,37.89,37.89,34.07,87.26,83.44,87.26,83.44,3.48,3.82,11.13,7.3,18.77,3.82,7.65-3.82,11.47-11.47,11.47-19.12v-443.6c0-19.12-15.3-34.42-30.25-34.42h-1164.63c-7.3,0-14.95,3.82-18.77,11.47,0,7.65,0,19.12,7.65,22.94,0,0,45.54,45.54,79.61,79.61,22.6,22.6,37.89,56.67,37.89,91.08v883.38c0,34.42-15.3,68.49-37.89,94.91-34.07,34.07-79.61,79.61-79.61,79.61-3.82,3.82-7.65,7.65-7.65,11.47,0,7.65,3.82,11.47,7.65,15.3,0,0,45.54,45.19,79.61,79.61,22.6,22.6,37.89,56.67,37.89,90.74v879.91c0,34.42-15.3,68.49-37.89,91.08-34.07,34.07-79.61,79.61-79.61,79.61-7.65,7.65-7.65,15.3-7.65,22.95,3.82,7.65,11.47,11.12,18.77,11.12h1164.63c14.95,0,30.25-14.95,30.25-30.25v-446.73c0-11.47-3.82-15.3-11.47-19.12-7.65-3.82-15.3-3.82-18.77,3.82,0,0-53.19,49.37-87.26,87.26-26.77,22.25-57.02,37.2-94.91,37.2h-462.72c-7.65,0-19.12-3.82-22.6-11.12-7.65-3.82-11.47-10.78-11.47-22.25v-653.58c0-11.47,3.82-18.43,11.47-22.25,3.48-7.65,14.95-11.12,22.6-11.12h322.27c34.07,0,68.49,14.95,91.08,37.2,37.89,37.89,87.26,87.26,87.26,87.26,7.65,7.65,15.3,7.65,22.6,3.82,7.65-3.82,11.47-7.65,11.47-15.3v-587.18c0-7.65-3.82-15.3-11.47-19.12-7.3-3.82-14.95,0-22.6,3.82,0,0-45.54,49.37-83.44,83.44-22.6,22.94-57.02,37.89-91.08,37.89h-326.1c-19.12,0-34.07-14.95-34.07-30.25v-656.02c0-19.12,14.95-30.25,34.07-30.25h0Z"/>
	<path class="light" d="M5993.22,4285.57h47.63c15.3,0,27.46-4.87,35.81-14.6,8-9.39,12.52-22.6,12.52-39.28v-345.22c0-17.03-4.52-30.25-12.52-39.63-8.34-9.39-20.51-13.91-35.81-14.25h-47.63v452.99Zm-38.59-563.2h97.69c48.67,0,86.22,13.21,112.99,39.63,26.42,26.42,39.98,63.62,39.98,111.25v371.64c0,31.29-6.26,58.41-18.08,81-12.17,22.95-29.55,39.98-52.5,51.8-22.95,11.82-50.41,18.08-82.74,18.08h-173.48v-673.4h76.14Zm705.04,673.4v-673.4h298.98v112.29h-184.26v170.7h160.96v111.6h-160.96v166.53h184.26v112.29h-298.98Zm889.99,6.95c-35.46,0-66.05-6.61-91.08-19.82-25.03-13.21-44.5-31.98-57.71-56.67-13.56-24.68-20.16-54.58-20.16-90.04v-35.81l114.38-1.04v36.16c0,17.03,4.52,30.25,14.25,39.98,9.39,9.73,22.95,14.6,39.98,14.6s29.55-4.87,38.59-14.25c9.04-9.73,13.56-22.6,13.56-39.63v-58.75c0-13.91-4.17-25.38-12.17-34.77-8.34-9.39-19.12-17.73-32.68-25.38-13.56-7.65-28.16-15.3-44.15-22.95-14.95-7.65-30.59-16.34-45.89-26.07-15.64-9.39-29.9-21.21-42.76-34.42-12.86-13.56-22.95-29.9-30.94-49.37-8-19.47-11.82-42.76-11.82-70.23v-34.77c0-51.8,14.6-92.13,43.8-120.98,29.2-28.51,70.23-43.11,123.42-43.11s91.78,14.6,120.64,43.8c29.2,28.86,43.8,69.53,43.8,122.03v37.89l-114.38,1.39v-38.24c0-17.38-4.52-30.94-13.21-40.68-9.04-9.73-21.21-14.6-36.85-14.6-16.69,0-29.55,4.52-38.59,13.21-9.39,9.04-13.56,20.86-13.56,36.5v44.85c0,15.99,4.52,28.51,13.91,38.59,9.39,10.08,21.55,18.77,36.5,26.42,14.95,7.65,30.94,15.99,47.63,24.68,14.6,7.65,28.86,15.64,43.11,24.34,14.25,8.34,27.46,19.12,39.63,31.29,11.82,12.52,21.21,27.81,28.51,45.89,7.3,18.08,10.78,40.68,10.78,67.79v55.62c0,52.5-14.6,93.52-43.8,122.72-28.86,29.2-70.23,43.8-122.72,43.8h0Zm717.21-680.35v673.4h-114.73v-673.4h114.73Zm612.21,309.76h168.96v201.64c0,35.46-6.61,65.71-19.82,90.74-12.86,25.03-31.98,44.5-56.67,58.06-25.03,13.21-54.93,20.16-90.04,20.16s-65.71-6.61-91.08-19.47c-25.38-13.21-44.85-31.98-58.41-56.32-13.56-24.68-20.16-53.89-20.16-88.65v-349.04c0-36.5,6.61-67.79,20.16-93.52,13.21-26.07,32.33-45.89,57.36-59.45,24.68-13.91,54.58-20.86,89-20.86s64.32,6.61,88.65,20.16c24.34,13.21,43.11,32.33,55.97,57.36,13.21,25.38,19.47,55.62,19.47,91.08v51.8h-118.2v-51.8c0-16.34-3.82-29.2-12.17-38.24-8-9.39-19.47-13.91-33.72-13.91-15.64,0-27.81,4.87-36.5,15.3-8.69,10.43-13.21,24.34-13.21,42.07v349.04c0,14.95,4.52,26.42,13.91,34.77,9.39,8.69,22.25,12.86,38.94,12.86s29.9-4.52,39.63-13.56c9.73-9.04,14.6-21.9,14.6-37.89v-92.13h-56.67v-110.21h0Zm613.95,362.95v-672.71h90.39l146.01,414.4v-414.4h104.3v672.71h-91.08l-144.28-391.11v391.11h-105.34Z"/>
</svg>