<?xml version="1.0" encoding="UTF-8"?>
<svg xmlns="http://www.w3.org/2000/svg" viewBox="0 0 15360 5120">
	<style>
		.light {fill: #f0f0f0;}
		.brand {fill: #f0cc90;}
	</style>
	<path class="brand" d="M1471.9,1927.99h-340.94l-108.25-261.67c138.08,5.97,223.31,8.52,362.25-17.05,278.72-51.99,531.01-172.17,723.64-382.7,63.93-69.89,119.33-155.98,167.06-244.62,46.88,88.64,103.13,173.88,167.06,244.62,192.63,210.53,444.07,330.71,722.79,382.7,139.78,25.57,224.17,23.01,363.1,17.05l-108.25,261.67h-341.79c-15.34,92.91-23.87,159.39-30.68,253.15h541.24l372.47-898.37c-198.6,71.6-335.82,135.52-557.43,135.52-64.78,0-129.56-5.97-192.63-17.9-242.92-45.17-438.96-147.46-582.15-304.29-168.76-184.96-277.01-549.76-278.72-554.02l-75.01-257.41-75.86,257.41c-.85,4.26-109.1,369.07-277.86,554.02-143.19,156.83-339.23,259.11-583,304.29-184.11,34.09-375.88,18.75-551.47-46.03l-197.74-71.6,372.47,898.37h541.24c-7.67-93.76-15.34-160.24-31.54-253.15Zm2320.08,459.41c-262.52-45.17-512.26-63.93-765.41-15.34-17.05,100.58-25.57,168.76-33.24,266.78,190.07-46.03,365.66-54.55,560.84-32.39,1.7,78.42-1.7,156.83-10.23,235.25,86.94-6.82,173.03-20.46,257.41-44.32,9.38-138.93,2.56-268.49-9.38-409.98Zm-923.94,710l-1693.61,1552.12,170.47,185.81,1664.63-1524.84c-41.77-6.82-83.53-14.49-126.15-21.31-5.11-63.93-11.08-127.85-15.34-191.78Zm369.07-136.38c-5.11-80.12-5.11-155.98,1.7-235.25-100.58,8.52-159.39,22.16-254.85,45.17-5.11,136.38,5.97,273.6,17.05,409.98,426.17,73.3,888.14,67.34,1262.32-178.14-92.91,324.74-363.95,572.78-695.51,637.55,75.01-94.61,133.82-202.01,178.14-313.66-95.46,15.34-191.78,23.01-288.94,23.01-145.75,266.78-386.96,421.06-718.53,356.28,453.45,311.96,1033.04,258.26,1437.05-100.58,405.72-370.77,485.84-964,225.87-1422.56,71.6,681.02-645.22,810.58-1164.3,778.19h0ZM758.48,2387.4c262.52-45.17,512.26-63.93,766.26-15.34,17.05,100.58,25.57,168.76,33.24,266.78-190.07-46.03-365.66-54.55-560.84-32.39-1.7,78.42,1.7,156.83,10.23,235.25-86.94-6.82-173.88-20.46-257.41-44.32-10.23-138.93-3.41-268.49,8.52-409.98h0Zm924.79,710l498.62,456.86-186.66,172.17-454.3-415.94c42.62-6.82,84.38-14.49,126.15-21.31,5.97-63.93,11.08-127.85,16.19-191.78Zm872.8,800.35l820.81,751.77-171.32,185.81-836.15-766.26,186.66-171.32h0Zm-1241.87-936.73c5.11-80.12,4.26-155.98-1.7-235.25,100.58,8.52,158.54,22.16,254.85,45.17,5.11,136.38-5.97,273.6-17.9,409.98-426.17,73.3-888.14,67.34-1262.32-178.14,93.76,324.74,363.95,572.78,695.51,637.55-74.15-94.61-132.97-202.01-177.29-313.66,95.46,15.34,191.78,23.01,288.94,23.01,145.75,266.78,386.96,421.06,717.67,356.28-452.59,311.96-1032.19,258.26-1437.05-100.58C-29.94,3234.63-110.06,2641.4,149.91,2182.84c-71.6,681.02,644.37,810.58,1164.3,778.19Z"/>
	<path class="light" d="M6885.99,2575.77v-253.15c0-281.27-98.87-405.72-296.62-537.83-29.83-19.6-48.58-49.44-56.26-83.53-7.67-45.17-15.34-98.02-15.34-98.02-4.26-4.26-4.26-11.93-7.67-11.93-7.67-3.41-11.08-3.41-15.34-3.41,0,0-117.62,18.75-167.06,26.42-14.49,0-29.83-3.41-41.76-11.08-185.81-125.29-155.13-178.14-155.13-333.27v-193.48c0-124.44,91.2-135.52,140.64-135.52h68.19c49.44,0,139.78,11.08,139.78,135.52v276.16c0,7.67,4.26,15.34,7.67,18.75,7.67,0,15.34,4.26,19.6,0,75.86-37.5,272.75-139.78,333.27-169.62,7.67-7.67,15.34-18.75,15.34-30.68v-63.93s26.42-538.68-508-538.68h-83.53c-535.27,0-508.85,538.68-508.85,538.68v189.22c0,333.27,53.7,442.37,338.38,612.84,29.83,19.6,52.85,53.7,56.26,87.79,7.67,40.91,15.34,82.68,15.34,82.68,0,7.67,4.26,11.08,7.67,15.34,3.41,0,11.08,3.41,15.34,0,0,0,102.28-15.34,147.46-23.01,19.6,0,38.36,4.26,49.44,15.34,148.31,105.69,117.62,167.06,117.62,279.57v239.51c0,127.85-83.53,139.78-132.97,139.78h-117.62c-45.17,0-132.11-11.93-132.11-139.78v-272.75c0-3.41-4.26-11.08-11.93-15.34-3.41-3.41-11.08-3.41-18.75,0-71.6,38.36-272.75,139.78-334.12,170.47-11.08,7.67-18.75,15.34-18.75,29.83v53.7s-22.16,541.24,508.85,541.24h132.11c531.01,0,508.85-537.83,508.85-537.83h0Zm1943.35,503.74s-64.78-63.93-106.54-105.69c-18.75-18.75-29.83-41.77-34.09-68.19-29.83-150.01-124.44-675.91-159.39-865.13-6.82-41.76,7.67-83.53,38.36-114.21,30.68-29.83,68.19-68.19,68.19-68.19,4.26-3.41,7.67-7.67,7.67-14.49,0-4.26-3.41-7.67-7.67-11.93,0,0-94.61-98.02-144.05-147.46-18.75-19.6-34.09-41.76-38.36-68.19-26.42-144.05-116.77-645.22-147.46-826.77-7.67-41.76,3.41-83.53,34.09-114.21,34.09-34.09,72.45-71.6,72.45-71.6,3.41-4.26,6.82-15.34,3.41-23.01-3.41-7.67-11.08-11.93-18.75-11.93h-773.93c-7.67,0-15.34,4.26-18.75,11.93-4.26,7.67,0,18.75,3.41,23.01,0,0,34.09,29.83,60.52,60.52,30.68,29.83,46.03,71.6,38.36,113.36-34.09,185.81-125.29,690.4-151.72,838.71-4.26,26.42-18.75,48.58-38.36,68.19-48.58,49.44-144.05,147.46-144.05,147.46-3.41,4.26-7.67,7.67-7.67,11.93,0,6.82,4.26,11.08,7.67,14.49,0,0,38.36,38.36,68.19,68.19,30.68,30.68,46.03,72.45,38.36,114.21-34.09,189.22-128.7,715.12-155.98,865.13-6.82,26.42-18.75,49.44-37.5,68.19-41.76,41.77-106.54,105.69-106.54,105.69-7.67,7.67-7.67,15.34-7.67,23.01,4.26,7.67,11.93,11.08,19.6,11.08h587.27c7.67,0,15.34-3.41,19.6-11.08,0-7.67,0-15.34-4.26-23.01,0,0-26.42-22.16-49.44-45.17-29.83-29.83-45.17-71.6-37.5-113.36,18.75-121.03,60.52-365.66,71.6-448.33,4.26-15.34,19.6-29.83,34.09-29.83h383.56c18.75,0,30.68,14.49,34.09,29.83,11.08,82.68,52.85,327.3,71.6,448.33,7.67,41.77-6.82,83.53-37.5,113.36-23.01,23.01-45.17,45.17-45.17,45.17-7.67,7.67-7.67,15.34-7.67,23.01,3.41,7.67,11.08,11.08,18.75,11.08h588.12c7.67,0,14.49-3.41,18.75-11.08,0-7.67,0-15.34-7.67-23.01h0Zm-678.47-1015.99c-4.26,7.67-15.34,11.08-23.01,11.08h-246.33c-7.67,0-19.6-3.41-23.01-11.08-7.67-7.67-11.08-15.34-7.67-26.42,23.01-144.9,109.95-679.32,140.64-880.47,0-7.67,7.67-11.08,14.49-11.08,4.26,0,11.93,3.41,11.93,11.08,34.09,201.15,117.62,735.57,139.78,880.47,4.26,11.08,0,18.75-6.82,26.42h0Zm2364.4-1483.08c-4.26-7.67-11.08-11.93-18.75-11.93h-588.12c-7.67,0-15.34,4.26-18.75,11.93,0,7.67,0,18.75,7.67,23.01,0,0,22.16,22.16,45.17,48.58,30.68,29.83,45.17,71.6,38.36,113.36-46.03,288.09-235.25,1446.43-284.68,1764.35,0,3.41-7.67,11.08-11.93,11.08-6.82,0-14.49-7.67-14.49-11.08-49.44-317.92-239.51-1476.26-284.68-1764.35-7.67-41.76,7.67-83.53,37.5-113.36,23.01-26.42,49.44-48.58,49.44-48.58,4.26-4.26,4.26-15.34,4.26-23.01-4.26-7.67-11.93-11.93-19.6-11.93h-587.27c-7.67,0-15.34,4.26-19.6,11.93,0,7.67,0,18.75,4.26,23.01,0,0,68.19,67.34,109.95,104.84,18.75,19.6,30.68,46.03,37.5,72.45,27.28,147.46,121.89,673.35,155.98,863.43,7.67,41.76-7.67,83.53-38.36,113.36-29.83,34.09-68.19,71.6-68.19,71.6-3.41,4.26-7.67,7.67-7.67,11.93,0,7.67,4.26,11.08,7.67,14.49,0,0,95.46,95.46,144.05,144.9,19.6,18.75,34.09,45.17,38.36,71.6,26.42,143.19,117.62,640.11,147.46,821.66,7.67,41.77-3.41,87.79-34.09,117.62-34.09,30.68-71.6,68.19-71.6,68.19-4.26,7.67-7.67,15.34-4.26,23.01,4.26,7.67,11.93,11.08,19.6,11.08h773.08c7.67,0,15.34-3.41,19.6-11.08,3.41-7.67,0-15.34-4.26-23.01,0,0-34.09-29.83-60.52-60.52-30.68-30.68-45.17-72.45-37.5-113.36,34.09-182.4,124.44-690.4,151.72-833.59,3.41-26.42,18.75-52.85,37.5-71.6,49.44-49.44,144.05-144.9,144.05-144.9,4.26-3.41,7.67-6.82,7.67-14.49,0-4.26-3.41-7.67-7.67-11.93,0,0-37.5-37.5-68.19-71.6-30.68-29.83-45.17-71.6-38.36-113.36,34.95-190.07,129.56-715.97,159.39-863.43,4.26-26.42,15.34-52.85,34.09-72.45,41.76-37.5,106.54-104.84,106.54-104.84,7.67-4.26,7.67-15.34,7.67-23.01h0Zm1667.19,2499.07s-64.78-63.93-106.54-105.69c-18.75-18.75-30.68-41.77-34.09-68.19-30.68-150.01-125.29-675.91-159.39-865.13-7.67-41.76,7.67-83.53,38.36-114.21,29.83-29.83,68.19-68.19,68.19-68.19,3.41-3.41,7.67-7.67,7.67-14.49,0-4.26-4.26-7.67-7.67-11.93,0,0-95.46-98.02-144.05-147.46-19.6-19.6-34.09-41.76-38.36-68.19-26.42-144.05-117.62-645.22-147.46-826.77-7.67-41.76,3.41-83.53,34.09-114.21,34.09-34.09,71.6-71.6,71.6-71.6,4.26-4.26,7.67-15.34,4.26-23.01-4.26-7.67-11.93-11.93-19.6-11.93h-773.08c-7.67,0-15.34,4.26-19.6,11.93-3.41,7.67,0,18.75,4.26,23.01,0,0,34.09,29.83,60.52,60.52,30.68,29.83,45.17,71.6,37.5,113.36-34.09,185.81-124.44,690.4-151.72,838.71-3.41,26.42-18.75,48.58-37.5,68.19-49.44,49.44-144.05,147.46-144.05,147.46-4.26,4.26-7.67,7.67-7.67,11.93,0,6.82,3.41,11.08,7.67,14.49,0,0,37.5,38.36,68.19,68.19,30.68,30.68,45.17,72.45,37.5,114.21-34.09,189.22-128.7,715.12-155.13,865.13-7.67,26.42-18.75,49.44-37.5,68.19-41.76,41.77-106.54,105.69-106.54,105.69-7.67,7.67-7.67,15.34-7.67,23.01,4.26,7.67,11.08,11.08,18.75,11.08h588.12c7.67,0,15.34-3.41,18.75-11.08,0-7.67,0-15.34-3.41-23.01,0,0-26.42-22.16-49.44-45.17-30.68-29.83-45.17-71.6-38.36-113.36,19.6-121.03,61.37-365.66,72.45-448.33,3.41-15.34,18.75-29.83,34.09-29.83h382.7c19.6,0,30.68,14.49,34.95,29.83,11.08,82.68,52.84,327.3,71.6,448.33,7.67,41.77-7.67,83.53-37.5,113.36-23.01,23.01-46.03,45.17-46.03,45.17-7.67,7.67-7.67,15.34-7.67,23.01,4.26,7.67,11.93,11.08,19.6,11.08h587.27c7.67,0,15.34-3.41,18.75-11.08,0-7.67,0-15.34-6.82-23.01h0Zm-679.32-1015.99c-3.41,7.67-15.34,11.08-23.01,11.08h-246.33c-7.67,0-18.75-3.41-23.01-11.08-6.82-7.67-11.08-15.34-6.82-26.42,22.16-144.9,109.95-679.32,139.78-880.47,0-7.67,7.67-11.08,15.34-11.08,3.41,0,11.08,3.41,11.08,11.08,34.09,201.15,117.62,735.57,140.64,880.47,3.41,11.08,0,18.75-7.67,26.42h0Zm2311.56-386.96c-3.41-4.26-11.08-11.93-18.75-11.93h-599.2c-11.08,0-18.75,7.67-18.75,15.34-19.6,52.85-91.2,256.56-117.62,329.01,0,3.41,0,11.08,3.41,18.75,4.26,4.26,7.67,7.67,15.34,7.67h201.15c15.34,0,29.83,15.34,29.83,30.68v540.39c0,127.85-90.35,139.78-139.78,139.78h-148.31c-49.44,0-136.38-11.93-136.38-139.78V1077.35c0-125.29,86.94-136.38,136.38-136.38h148.31c49.44,0,139.78,11.08,139.78,136.38v367.36c0,7.67,4.26,15.34,11.93,19.6,3.41,0,11.08,3.41,18.75,0,72.45-38.36,269.34-140.64,329.86-171.32,11.08-7.67,18.75-18.75,18.75-29.83v-155.98s27.28-538.68-503.74-538.68h-171.32c-534.42,0-508,538.68-508,538.68v554.02c0,34.09-15.34,67.34-37.5,94.61-34.09,29.83-75.86,75.01-75.86,75.01-4.26,4.26-7.67,7.67-7.67,11.93,0,7.67,3.41,11.08,7.67,15.34,0,0,41.77,41.76,75.86,75.01,22.16,23.01,37.5,57.11,37.5,91.2v551.47s-26.42,537.83,508,537.83h171.32c531.01,0,503.74-537.83,503.74-537.83v-703.18c0-34.09,11.93-68.19,38.36-90.35,34.09-34.09,83.53-83.53,83.53-83.53,3.41-3.41,7.67-14.49,3.41-22.16h0Zm870.24-735.57h467.08c34.09,0,68.19,11.08,91.2,37.5,37.5,34.09,86.94,83.53,86.94,83.53,3.41,3.41,11.08,7.67,18.75,3.41,7.67-3.41,11.08-11.08,11.08-18.75v-443.22c0-19.6-14.49-34.95-29.83-34.95h-1164.3c-7.67,0-15.34,4.26-18.75,11.93,0,7.67,0,18.75,6.82,23.01,0,0,46.03,45.17,80.12,79.27,23.01,23.01,37.5,57.11,37.5,91.2v883.88c0,34.09-14.49,68.19-37.5,94.61-34.09,34.09-80.12,79.27-80.12,79.27-3.41,4.26-6.82,7.67-6.82,11.93,0,6.82,3.41,11.08,6.82,14.49,0,0,46.03,46.03,80.12,80.12,23.01,23.01,37.5,57.11,37.5,91.2v879.62c0,34.09-14.49,68.19-37.5,91.2-34.09,34.09-80.12,79.27-80.12,79.27-6.82,7.67-6.82,15.34-6.82,23.01,3.41,7.67,11.08,11.08,18.75,11.08h1164.3c15.34,0,29.83-15.34,29.83-29.83v-447.48c0-11.08-3.41-14.49-11.08-18.75-7.67-3.41-15.34-3.41-18.75,4.26,0,0-52.84,48.58-86.94,86.94-27.28,22.16-57.11,37.5-95.46,37.5h-462.82c-6.82,0-18.75-4.26-22.16-11.93-7.67-3.41-11.93-10.23-11.93-22.16v-653.75c0-11.08,4.26-17.9,11.93-21.31,3.41-7.67,15.34-11.93,22.16-11.93h323.04c34.09,0,68.19,15.34,90.35,37.5,38.36,37.5,87.79,86.94,87.79,86.94,7.67,7.67,15.34,7.67,22.16,4.26,7.67-4.26,11.93-7.67,11.93-15.34v-587.27c0-7.67-4.26-15.34-11.93-18.75-6.82-4.26-14.49,0-22.16,3.41,0,0-46.03,49.44-83.53,83.53-23.01,23.01-57.11,38.36-91.2,38.36h-326.45c-18.75,0-34.09-15.34-34.09-30.68V970.8c0-18.75,15.34-29.83,34.09-29.83h0Z"/>
	<path class="light" d="M6344.75,3821.04s8.52-196.04-184.11-196.04h-297.47c-3.41,0-5.97,1.7-7.67,4.26,0,3.41,0,5.97,3.41,8.52,0,0,15.34,16.19,27.28,28.98,9.38,8.52,13.64,19.6,13.64,32.39v778.19c0,12.79-4.26,25.57-13.64,34.09-11.93,11.08-27.28,28.13-27.28,28.13-3.41,1.7-3.41,4.26-3.41,7.67,1.7,2.56,4.26,4.26,7.67,4.26h297.47c192.63,0,184.11-196.04,184.11-196.04v-534.42h0Zm-138.93,545.5c0,46.88-31.54,51.14-48.58,51.14h-106.54c-5.97,0-11.08-5.97-11.08-11.93v-634.14c0-2.56,.85-5.97,2.56-8.52,2.56-2.56,5.97-2.56,8.52-2.56h106.54c17.05,0,48.58,4.26,48.58,49.44v556.58h0Zm1010.88-606.02h169.62c12.79,0,25.57,4.26,34.09,12.79,12.79,12.79,29.83,31.54,29.83,31.54,2.56,.85,5.97,2.56,8.52,.85,2.56-.85,4.26-4.26,4.26-6.82v-161.95c0-5.97-5.97-11.93-11.08-11.93h-424.47c-2.56,0-5.11,1.7-6.82,4.26,0,3.41,0,5.97,2.56,8.52,0,0,16.19,16.19,28.98,28.98,8.52,8.52,13.64,21.31,13.64,32.39v778.19c0,12.79-5.11,23.87-13.64,32.39-12.79,12.79-28.98,29.83-28.98,29.83-2.56,1.7-2.56,4.26-2.56,7.67,1.7,2.56,4.26,4.26,6.82,4.26h424.47c5.11,0,11.08-4.26,11.08-11.93v-162.8c0-3.41-1.7-4.26-4.26-5.97-2.56-1.7-5.97-1.7-8.52,1.7,0,0-17.05,17.9-31.54,30.68-8.52,8.52-19.6,14.49-32.39,14.49h-169.62c-2.56,0-6.82-1.7-8.52-4.26-2.56-1.7-4.26-4.26-4.26-8.52v-237.8c0-6.82,7.67-11.08,12.79-11.08h116.77c12.79,0,25.57,4.26,34.09,13.64,12.79,12.79,31.54,31.54,31.54,31.54,1.7,1.7,5.97,2.56,6.82,1.7,3.41-1.7,5.97-4.26,5.97-7.67v-213.09c0-2.56-2.56-5.11-5.97-6.82-.85,0-5.11,0-6.82,2.56,0,0-17.05,17.05-29.83,29.83-8.52,8.52-21.31,12.79-34.09,12.79h-118.48c-6.82,0-12.79-4.26-12.79-11.08v-237.8c0-6.82,5.97-11.08,12.79-11.08h0Zm1328.81,594.94v-92.05c0-109.95-41.76-153.42-123.59-206.27h-1.7c-6.82-4.26-83.53-49.44-83.53-49.44-78.42-50.29-65.63-68.19-65.63-127v-70.74c0-45.17,32.39-49.44,51.14-49.44h23.87c18.75,0,51.14,4.26,51.14,49.44v100.58c0,3.41,1.7,4.26,3.41,5.97,2.56,1.7,5.11,1.7,6.82,0,27.28-12.79,99.72-51.14,121.03-61.37,4.26-2.56,6.82-6.82,6.82-11.08v-23.01s8.52-196.04-185.81-196.04h-29.83c-195.19,0-186.66,196.04-186.66,196.04v68.19c0,127.85,23.01,164.5,142.34,234.39l78.42,46.88c64.78,44.32,53.7,65.63,53.7,109.1v86.94c0,46.88-32.39,51.14-49.44,51.14h-42.62c-17.05,0-48.58-4.26-48.58-51.14v-98.02c0-2.56-1.7-5.11-4.26-6.82-1.7-1.7-4.26-1.7-5.97,0-27.28,14.49-100.58,51.14-121.89,62.22-4.26,1.7-7.67,5.97-7.67,10.23v21.31s-8.52,196.04,184.96,196.04h48.58c193.48,0,184.96-196.04,184.96-196.04h0Zm855.75,155.98c-8.52-8.52-13.64-21.31-13.64-34.09v-778.19c0-12.79,5.11-23.87,13.64-32.39,11.93-12.79,28.98-28.98,28.98-28.98,.85-2.56,2.56-5.11,.85-8.52-.85-2.56-4.26-4.26-6.82-4.26h-213.09c-3.41,0-5.97,1.7-7.67,4.26,0,3.41,0,5.97,3.41,8.52,0,0,15.34,16.19,27.28,28.98,9.38,8.52,13.64,19.6,13.64,32.39v778.19c0,12.79-4.26,25.57-13.64,34.09-11.93,11.08-27.28,28.13-27.28,28.13-3.41,1.7-3.41,4.26-3.41,7.67,1.7,2.56,4.26,4.26,7.67,4.26h213.09c2.56,0,5.97-1.7,6.82-4.26,1.7-3.41,0-5.97-.85-7.67,0,0-17.05-17.05-28.98-28.13Zm1173.68-482.43c-1.7-2.56-2.56-4.26-5.97-4.26h-219.05c-2.56,0-5.11,1.7-6.82,4.26-6.82,19.6-32.39,93.76-42.62,121.03,0,4.26,1.7,8.52,6.82,8.52h72.45c7.67,0,11.93,5.11,11.93,12.79v195.19c0,46.88-33.24,51.14-50.29,51.14h-55.4c-17.05,0-47.73-4.26-47.73-51.14v-556.58c0-45.17,30.68-49.44,47.73-49.44h55.4c17.05,0,50.29,4.26,50.29,49.44v133.82c0,3.41,.85,5.97,4.26,5.97,.85,1.7,4.26,1.7,6.82,1.7,27.28-14.49,98.02-51.99,121.03-63.07,2.56-2.56,5.97-5.97,5.97-11.08v-55.4s9.38-196.89-184.11-196.89h-62.22c-193.48,0-184.96,196.89-184.96,196.89v533.57s-8.52,196.04,184.96,196.04h62.22c193.48,0,184.11-196.04,184.11-196.04v-255.7c0-12.79,5.11-23.87,13.64-34.09,12.79-12.79,29.83-28.98,29.83-28.98,1.7-1.7,3.41-4.26,1.7-7.67h0Zm1156.63,482.43c-8.52-8.52-12.78-21.31-12.78-34.09v-778.19c0-12.79,4.26-25.57,12.78-34.09,12.78-11.08,28.13-28.13,28.13-28.13,2.56-1.7,2.56-4.26,1.71-7.67-1.71-2.56-3.41-4.26-5.97-4.26h-214.79c-2.56,0-4.26,1.7-5.97,4.26-.85,3.41,0,5.97,1.71,7.67,0,0,15.34,17.05,28.13,29.83,8.52,8.52,14.49,19.6,14.49,32.39v456c0,.85-1.71,4.26-4.26,4.26s-4.26-1.7-5.97-3.41c-28.13-92.05-120.18-377.59-150.01-467.94-5.97-16.19-1.71-34.09,11.08-46.88,2.56-3.41,4.26-4.26,4.26-4.26,1.71-1.7,2.56-4.26,1.71-7.67-1.71-2.56-4.26-4.26-7.67-4.26h-213.09c-2.56,0-5.97,1.7-6.82,4.26,0,3.41,0,5.97,2.56,7.67,0,0,15.34,17.05,28.13,28.13,8.52,10.23,12.78,21.31,12.78,34.09v778.19c0,12.79-4.26,23.87-12.78,32.39-12.78,12.79-28.13,29.83-28.13,29.83-2.56,1.7-2.56,4.26-2.56,7.67,.85,2.56,4.26,4.26,6.82,4.26h213.09c3.41,0,5.97-1.7,7.67-4.26,.85-3.41,0-5.97-1.71-7.67,0,0-15.34-17.05-28.13-28.13-8.52-8.52-14.49-21.31-14.49-34.09v-471.35c0-3.41,1.71-4.26,4.26-5.97,2.56,0,4.26,1.7,5.97,4.26,29.83,88.64,130.41,377.59,161.94,470.49,6.82,17.05,2.56,34.95-10.23,47.73-8.52,8.52-17.05,17.05-17.05,17.05-1.71,1.7-2.56,4.26-1.71,7.67,1.71,2.56,3.41,4.26,5.97,4.26h214.79c2.56,0,4.26-1.7,5.97-4.26,.85-3.41,.85-5.97-1.71-7.67,0,0-15.34-17.05-28.13-28.13h0Z"/>
	<rect class="brand" x="5072.2" y="-.02" width="142.34" height="5120.03"/>
</svg>