<?xml version="1.0" encoding="UTF-8"?>
<svg xmlns="http://www.w3.org/2000/svg" viewBox="0 0 8640 8640">
	<style>
		.light {fill: #f0f0f0;}
		.brand {fill: #f0cc90;}
		g > path {transform: translate(-50%,-50%);}
		#outer_ring {animation: spin 9s linear infinite;}
		#name {animation: spin 6s linear infinite;}
		#inner_ring {animation: spin 3s linear infinite;}
		@keyframes spin {0% {transform: translate(50%,50%) rotate(0deg);} 100% {transform: translate(50%,50%) rotate(360deg);}}
	</style>
	<g id="outer_ring">
		<path class="brand" d="M4320,0h0V60h0C1967.2,60,60,1967.2,60,4320H0C0,1934,1934,0,4320,0Zm4320,4320c0,2386-1934,4320-4320,4320h0v-60h0c2352.8,0,4260-1907.2,4260-4260h60Z"/>
	</g>
	<g id="name">
		<path class="brand" d="M4320,8160.8l-135.6-135.6,135.6-136,135.6,136-135.6,135.6ZM479.2,4320l136-135.6,135.6,135.6-135.6,135.6s-136-135.6-136-135.6Zm7410,0l136-135.6,135.6,135.6-135.6,135.6-136-135.6ZM4320,750.8l-135.6-135.6,135.6-136,135.6,136s-135.6,135.6-135.6,135.6Z"/>
		<path class="light" d="M3391.2,7926c11.2,17.2,25.2,30,21.6,49.6l-25.6,143.6s-30.8,138.4,108,163.2l211.6,37.6c15.2,2.8-4-22.4-11.6-32.4-5.6-7.2-7.2-16.4-5.6-25.2l41.2-230c5.2-28.8,46.8-34.8,38.8-46-10.8-15.2-25.2-29.2-21.6-49.6l40.8-230c4.8-24.8,57.2-43.6,36-47.2l-211.6-38c-138.8-24.8-158,116-158,116l-25.2,142.4c-5.6,31.2-46.8,34.4-38.8,46Zm1450-233.2c7.2,5.6,13.2,12.4,15.2,21.2l52.8,228.8c6,27.2-30.4,50.4-18.8,57.2,12.8,7.6,35.6,16.8,40,36l52.8,228.8c6.4,27.2-26.8,47.2-20,55.6,1.6,1.6,3.6,2.4,5.6,2,252.8-58.4,124.8-24,111.6-81.2l-74-321.2c-.8-3.6,3.6-6.8,6.8-2.4,35.2,59.6,147.2,246.8,182.4,305.2,28.8,48.4-87.6,67.6,154.4,11.6,22-5.2-32-18.4-38.4-46.4l-52.4-226.8c-7.2-30.4,30-50.4,17.2-58.4-16.4-10.4-34.4-16.8-39.2-36.8l-52.4-226.8c-5.6-24.8,35.2-63.6,14.4-58.8-193.2,44.8-168.8,30.8-128,59.6,7.2,5.2,13.2,12,15.2,22l76.8,332.8c.8,3.6-3.2,7.2-6.4,2.4-36-57.2-154.4-245.2-191.6-305.2-18-29.2,15.6-48,8.4-56.4-1.2-1.6-2.4-2.4-5.6-1.6l-150,34.4c-17.2,4,15.6,19.6,23.2,24.4ZM7615.2,2602c6.4-19.6,7.2-38.8,24-48.4l202.8-116.4c24.8-14.4,49.6,10.4,59.6,1.2,1.6-.8,1.6-3.2,.4-4.8l-77.2-134.4c-12-20.8-9.6,36.4-33.2,50.4l-419.2,240.8c-40,22.8-52-16.8-74.8-56.4-6-10.4-14.8-31.6,14.8-48.4l418.8-241.2c22-12.4,71.2,16,60-3.2l-77.2-134.4c-7.6-13.6-14.4,17.2-17.2,29.6-2,9.2-8,16-16,20.4l-202.4,116.8c-25.2,14.4-56.4-13.6-60-.4-4.8,18-6,38.4-24,48.4l-125.6,72.4s-126,65.6-56,186.8l26.8,46.8c70.4,122.4,190.4,46.4,190.4,46.4l125.2-72.4c27.6-15.6,56.4,14,60,.4h0Zm231.2,405.6c.4-1.2,1.6-4,.8-5.6l-65.2-144c-1.2-2.8-4-3.6-5.6-2.8-12.4,2.8-92,3.6-96,10.4-5.2,9.2,34,56,17.6,63.2-173.6,78.4-157.2,87.6-194.8,4.8-5.2-12-12-34,18.8-48l367.6-166c39.6-18.4,48.4,19.6,63.6,53.2,5.2,12,12.4,35.2-17.6,48.8l-88.4,40c-4.8,2-3.2,7.6-1.2,9.2,102,80.4,68.4,67.6,123.6,45.2,0,0,132-52.4,74.4-180l-18.4-40.8c-58-128.4-184.8-63.6-184.8-63.6l-132.8,60c-27.6,12.4-54.8-18.8-59.6-6-6,15.6-10,37.6-27.6,45.6l-132.8,60s-132,52-74,180.4l18.8,41.2c57.6,127.2,184,62.4,184,62.4l168.8-76c26-12,53.6,17.6,60.8,8.4h0Zm-262.4,338.8c4.8-8,11.2-14,19.6-17.2l221.2-74.8c19.6-6.4,41.6,9.2,52.4,15.2,2-.8,4.8-1.6,6.8-2.4,0,0,7.6-15.2,13.2-26.8,3.6-7.6,10.8-14,19.6-16.8l221.2-75.2c24-8,66.8,29.6,59.6,8.4l-49.6-146.8c-4.8-14.8-17.6,14.4-22.8,25.6-3.6,8.8-11.2,14.4-19.6,17.2l-221.2,74.8c-28,9.6-52.8-24-58.8-11.6-8.4,16.8-13.6,36-33.2,42.8l-221.2,74.8c-24,8.4-65.6-28.8-58.8-8.4l49.6,146.8c5.6,16.8,18.4-18,22-25.6h0Zm108.8,452c5.6-7.2,12.4-12.8,21.2-15.2l228.8-52.4c27.2-6.4,50.4,30,57.2,18.4,7.6-12.8,16.8-35.6,36-40l228.8-52.8c27.2-6.4,47.2,26.8,55.6,20,1.6-1.6,2.4-3.6,2-5.6-58.4-252.8-24-124.8-81.2-111.6l-321.2,74c-3.6,.8-6.8-3.6-2.4-6.8,59.6-35.2,246.8-147.2,305.2-182,48.4-29.2,67.6,87.2,11.6-154.8-5.2-22-18.4,32-46.4,38.4l-226.8,52.4c-30.4,7.2-50.4-30-58.4-17.2-10.4,16.4-16.8,34.8-36.8,39.2l-226.8,52.4c-24.8,5.6-63.6-34.8-58.8-14,44.4,192.8,30.8,168.4,59.2,127.6,5.6-7.2,12.4-12.8,22.4-15.2l332.8-76.8c3.2-.8,6.8,3.2,2.4,6.8-57.6,35.6-245.2,154-305.2,191.2-29.2,18-48-15.6-56.4-8.4-1.6,1.6-2.4,2.8-2,5.6l34.8,150c4,17.6,19.6-15.6,24.4-23.2h0Zm232.8,1451.6c17.6-11.2,30.4-25.2,49.6-22l143.6,26s138.4,30.8,163.2-108l38-212c2.8-15.2-22.4,4-32.4,11.6-7.2,6-16.8,7.2-25.6,5.6l-230-40.8c-28.8-5.2-34.4-46.8-46-38.8-14.8,10.4-28.8,25.2-49.2,21.6l-230-41.2c-25.2-4.4-43.6-56.8-47.6-35.6l-37.6,211.6c-24.8,138.8,115.6,157.6,115.6,157.6l142.8,25.6c31.2,5.6,34,46.8,45.6,38.8h0Zm-178.4-165.2c-33.2-6-32-29.2-30-42l13.6-75.6c.8-4.8,6.4-7.2,10.4-6.4l452,80.8,6.4,9.2-13.6,76c-2.4,12.8-9.2,34.8-41.6,28.8l-397.2-70.8h0Zm320,478.4l-39.6,116.4c-8.4,25.2-64.8,36.4-44,43.2l110.8,37.6c4.8,1.6,9.6-.8,11.2-4.8l98.4-290.8c7.2-21.6-34.4,18-60.4,9.2l-220.4-74.8c-29.6-9.6-28-52.4-40.4-46,0,0-15.2,7.2-26.8,12.8-7.6,4-17.2,4.8-26,2l-219.6-74.4c-26-8.8-34.8-65.2-42-44l-98.4,290.8c-1.6,4,1.2,9.2,4.8,10.4,148.4,50,124,49.6,103.6,2.4-3.2-8.8-4.4-17.6-1.2-26.8l39.2-115.6c1.2-4.4,6.8-7.2,11.2-6l163.2,55.2,5.6,11.6c-34,100-19.2,87.6-73.6,114.4-4.8,2.4-3.2,8.4,0,9.6l146.8,49.6c22.4,7.6-18-34.8-9.2-61.2l27.6-81.2c1.6-4.8,6.8-7.2,10.4-6l164,55.2c4.8,1.6,6.4,6.4,4.8,11.2h0Zm-764.4,399.2c9.2-2,18-2,26,2.4l208.8,106.8c24.8,12.8,19.2,55.6,32,51.2,14-4.8,35.6-16.4,53.2-7.6l209.2,107.2c24.8,12.8,18.8,50.8,29.6,51.2,2.4,0,4-1.6,4.8-3.2,117.2-229.2,63.2-110.4,10-137.6l-293.2-150c-3.2-2-3.2-7.2,2.4-6.8,68,11.2,283.6,46.4,350.8,57.2,56,8.8-4.8,110.4,108.4-110.8,10.8-20.8-34,12.8-60.4-.4l-206.8-106c-27.6-14.4-19.2-55.6-33.6-51.2-18.8,6-35.2,16-53.6,6.4l-207.2-106c-22.8-11.6-26-67.6-35.6-48.8-90.4,176.4-85.6,148.8-37.2,136,9.2-2,18-2,26.8,2.8l304,155.6c3.2,1.6,3.6,7.2-2.4,6.8-66.8-9.6-286.8-40.4-356.8-50.4-33.6-4.8-26.4-42.8-37.6-42.8-2,0-3.6,.4-4.8,3.2l-70.4,136.8c-8,16,25.2,.8,33.6-2h0Zm-119.2,196.8c9.2-1.2,18-.4,25.6,4.4l196.8,126c17.6,11.2,18.8,38,21.2,50.4,17.2,11.2,36-13.6,60.4,2l196.8,126c20.8,13.6,18.8,70.4,30.8,52l83.6-130.8c12.8-20-36,9.2-60-6l-196.8-126.4c-24.4-15.6-14-56-27.6-53.2-18,4-36.4,12.4-54,1.2l-196.4-126c-21.6-14-18.8-69.6-30-51.6l-84,130.4c-9.2,15.2,25.6,3.2,33.6,1.6h0Zm-128,381.6c77.6,55.2,117.6,95.6,215.2,57.2,28.4-11.2,49.2,21.6,56.4,9.6,7.2-11.6,16.4-42.4,28.8-47.2,55.2-20.8,62-6,95.2,17.6,62.8,44.4,74.4,45.2,39.2,95.2-38,52.8-95.6-37.6-115.2-34-1.2,1.6-3.2,2.4-3.2,4,.4,26.4-22,97.2-10,105.6l13.6,9.6s111.6,88,193.2-26.8l12.8-18c82-114.8-38-191.2-38-191.2-91.6-62-112-98-224-50.4-25.6,11.2-52-21.6-54-8-.4,.4-16,40.4-28.8,43.6-45.2,15.6-53.6,0-78-17.6-82.4-58.4-85.2-52.4-43.2-111.6,38.8-54,112.4,60,116.8,30.4,16.4-114.4,22.4-97.6-.4-114.4,0,0-113.2-88-194.4,26.4l-20,28.4c-81.2,114,38,191.6,38,191.6h0Zm-440.8,449.2c65.6,69.2,97.6,116.4,200.4,97.2,30-5.6,44.4,30.8,54,20.4,8.8-10.4,24-38.8,36.8-41.2,58.4-9.6,62,6,90.4,35.6,52.8,55.2,64.4,58.4,20,100.8-34.4,32.8-56.8-6.4-101.6-53.2-4.8-5.2-8.4,.4-8.8,1.2-4.8,26.4-40,91.2-30,101.6,10.8,11.2,102.4,122,206.8,22.4l15.6-15.2c108-102.8-4.4-198.8-35.2-231.2-60.8-63.6-90.8-74.8-176-55.6-24.4,5.2-39.6-20.4-48.8-20.8-15.2,14.4-24.4,39.2-39.2,40-47.6,6.8-52.8-10.4-73.6-32-67.6-71.2-74.8-66.4-20.8-117.6,48-46,98.8,80,108.8,51.6,38-108.8,40.4-91.6,21.2-112.4,0,0-94.4-107.6-195.6-10.8l-25.2,24c-101.6,96.8,.8,195.2,.8,195.2h0Zm-299.2,220.8c10.8-2-1.2-43.2,20.8-60.8l77.2-60.4c3.2-2.4,8.8-2,11.6,2l112.4,142.8c12,15.6,4.8,42.4,2.8,53.6,1.6,2.4,2.8,4,4.8,6.4,11.6,.8,39.6,0,51.6,15.6l144.4,183.6c18,23.2-3.6,52,6.4,59.6,2,1.2,4,.8,5.6-.4l122-96c18.4-14.4-36.4-2.4-54.8-25.6l-144-183.6c-18.4-23.2,6-58-8.8-59.6-17.6-2-38.4-.4-50.4-16l-144.4-183.6c-17.2-21.6,4.4-72.4-12.4-59.2,0,0-184,144.8-221.6,174.4-3.2,2.4-5.2,8-2,11.6l74,94.4c1.2,1.6,3.2,2.4,4.8,1.2h0Zm-278,404.8c19.6,6,38.8,6.8,48.8,24l116.4,202.4c14,24.8-10.8,49.6-1.6,59.6,.8,1.6,3.2,1.6,4.8,.4l134.4-77.2c20.8-12-36.4-9.2-50-33.2l-241.2-418.8c-22.8-40,16.8-52.4,56.4-74.8,10.4-6,31.6-14.8,48.8,14.4l240.8,418.8c12.4,22-16,71.2,3.2,60.4l134.4-77.2c13.6-8-17.2-14.8-29.6-17.6-8.8-1.6-16-8-20.4-15.6l-116.4-202.8c-14.8-25.2,13.2-56.4,0-60-17.6-4.8-38-6-48.4-24l-72.4-125.6s-65.2-125.6-186.8-56l-46.8,26.8c-122,70.4-46.4,190.4-46.4,190.4l72.4,125.6c15.6,27.2-14,56-.4,60h0Zm-405.6,230.8c1.2,.8,4,1.6,5.6,.8l144-65.2c2.8-1.2,4-3.6,3.2-5.6-3.2-12-3.6-92-10.8-96-9.2-5.2-55.6,34-63.2,17.6-78.4-173.2-87.6-157.2-4.4-194.4,11.6-5.6,34-12.4,47.6,18.4l166.4,367.6c18,40-20,48.4-53.6,63.6-12,5.6-34.8,12.4-48.4-17.6l-40-88.4c-2.4-4.8-8-3.2-9.6-1.2-80,102-67.6,68.8-44.8,123.6,0,0,52,132.4,179.6,74.4l40.8-18.4c128.4-58,63.6-184.4,63.6-184.4l-60-133.2c-12.4-27.6,19.2-54.8,6-59.6-15.2-5.6-37.6-10-45.6-27.6l-59.6-132.4s-52.4-132.4-180.8-74l-40.8,18.4c-127.6,57.6-62.8,184-62.8,184l76.4,168.8c11.6,26.4-17.6,53.6-8.8,60.8h0Zm-338.8-262.4c8,4.8,14.4,11.2,17.2,19.6l74.8,221.6c6.8,19.2-8.8,41.2-14.8,52.4,.4,1.6,1.6,4.4,2,6.4,0,0,15.2,7.6,26.8,13.2,7.6,4,14,11.2,17.2,19.6l74.8,221.2c8,24-29.2,66.8-8.4,59.6l146.8-49.6c14.8-4.8-14.4-17.6-25.6-22.8-8.4-3.2-14.4-10.8-17.2-19.6l-74.8-221.2c-9.6-27.6,24-52.8,11.6-58.8-16.8-8.4-36-13.6-42.8-32.8l-74.8-221.6c-8-24,28.8-65.6,8.4-58.8l-146.8,49.6c-16.4,6,18,18.4,25.6,22h0ZM1456,2481.6c-9.2,1.2-18,.4-25.6-4.8l-196.8-126c-17.2-11.2-18.8-38-21.2-50.4-17.2-10.8-36,14-60.4-2l-196.8-126c-20.8-13.2-18.8-70-30.8-51.6l-83.6,130.4c-12.8,20.4,36-9.2,60,6.4l196.8,126c24.4,15.6,14,56.4,27.6,53.2,18.4-4,36.4-12,54-.8l196.4,126c21.6,13.6,18.8,69.2,30.4,51.2l83.6-130.4c9.2-14.8-25.6-3.2-33.6-1.2h0Zm128.4-381.6c-78-55.6-118-96-215.6-57.6-28.4,11.6-49.2-21.6-56.4-9.6s-16.4,42.8-28.8,47.2c-55.2,20.8-62,6.4-95.2-17.6-62.8-44.4-74.4-45.2-39.2-94.8,38-53.2,95.6,37.2,115.6,34,.8-1.6,2.8-2.8,2.8-4-.4-26.8,22-97.2,10-105.6l-13.6-10s-111.6-88-193.2,27.2l-12.8,17.6c-81.6,115.2,38,191.6,38,191.6,91.6,62,112,98,224,50,25.6-10.8,52,21.6,54.4,8,0,0,15.6-40.4,28.4-43.6,45.2-15.6,53.6,.4,78,17.6,82.8,58.8,85.2,52.8,43.2,111.6-38.8,54.4-112.4-59.6-116.8-30.4-16.4,114.4-22.4,97.6,.4,114.8,0,0,113.2,87.6,194.4-26.4l20-28.8c81.2-114-37.6-191.2-37.6-191.2h0Zm440.4-449.6c-66-68.8-97.6-116.4-200.4-97.2-30,5.6-44.4-30.8-54-20-8.8,10-24,38.4-36.8,40.8-58.4,10-62.4-6-90.4-35.2-52.8-55.6-64.4-58.8-20-100.8,34.4-33.2,56.8,6,101.6,52.8,4.8,5.2,8.4-.4,8.4-1.2,5.2-26,40.4-91.2,30.4-101.6-10.8-11.2-102.4-121.6-206.8-22.4l-16,15.2c-108,102.8,4.8,199.2,35.6,231.2,60.4,63.6,90.4,74.8,176,55.6,24-5.2,39.6,20.8,48.8,20.8,14.8-14.4,24.4-39.2,39.2-40,47.6-6.8,52.8,10.4,73.2,32,68,71.2,75.2,66.4,21.2,118-48,45.6-98.8-80.4-108.8-52-38,109.2-40.4,91.6-21.2,112.4,0,0,94.4,107.6,195.6,11.2l25.2-24.4c101.6-96.4-.8-195.2-.8-195.2h0Zm299.2-220.8c-11.2,2.4,1.2,43.6-20.8,60.8l-77.2,60.4c-3.2,2.4-8.8,2-12-2l-112-142.8c-12.4-15.6-4.8-42.4-2.8-53.6-2-2.4-3.2-4-4.8-6.4-11.6-.8-39.6,0-51.6-15.6l-144.4-183.6c-18-23.2,3.6-52-6.4-59.6-2-1.2-4-.8-5.6,.4l-122,96c-18.4,14.4,36.4,2.4,54.4,25.6l144.4,183.6c18.4,23.2-6,58,8.4,59.6,17.6,2,38.8,.4,50.8,16l144.4,183.6c16.8,21.6-4.8,72.4,12,59.2,0,0,184-144.8,222-174.4,3.2-2.4,5.2-8,2-11.6l-74-94.4c-1.2-1.6-3.2-2.4-4.8-1.2h0Zm277.6-404.8c-19.6-6-38.4-6.8-48.4-24l-116.4-202.4c-14.4-24.8,10.8-49.6,1.6-59.6-1.2-1.6-3.2-1.6-5.2-.8l-134.4,77.6c-20.8,11.6,36.8,9.2,50.4,33.2l240.8,418.8c23.2,40-16.8,52.4-56,74.8-10.4,6-32,14.8-48.8-14.4l-240.8-419.2c-12.8-21.6,15.6-71.2-3.6-60l-134.4,77.2c-13.6,8,17.6,14.8,29.6,17.6,9.2,1.6,16.4,8,20.8,15.6l116.4,202.8c14.4,25.2-13.6,56.4,0,60,17.6,4.4,38,6,48.4,24l72,125.2s65.6,126,186.8,56.4l46.8-26.8c122.4-70.4,46.4-190.4,46.4-190.4l-72-125.6c-16-27.2,13.6-56.4,0-60h0Zm406-231.2c-1.6-.4-4-1.2-6-.4l-144,64.8c-2.8,1.6-3.6,4-2.8,6,3.2,12,3.6,92,10.4,95.6,9.2,5.6,56-34,63.2-17.6,78.8,173.6,87.6,157.2,4.8,194.8-12,5.2-34,12-48-18.8l-166-367.2c-18-40,20-48.4,53.6-63.6,11.6-5.6,34.8-12.8,48.4,17.2l40,88.4c2,5.2,7.6,3.2,9.2,1.6,80.4-102.4,67.6-68.8,45.2-123.6,0,0-52-132.4-179.6-74.8l-41.2,18.8c-128.4,58-63.6,184.4-63.6,184.4l60.4,133.2c12.4,27.2-19.2,54.4-6,59.6,15.2,5.6,37.2,9.6,45.2,27.6l60,132.4s52,132,180.4,74l41.2-18.4c127.6-57.6,62.8-184,62.8-184l-76.4-168.8c-12-26.4,17.6-54,8.8-61.2h0Zm338.8,262.4c-8-4.8-14.4-10.8-17.2-19.6l-75.2-221.2c-6.4-19.6,9.2-41.6,15.2-52.4-.8-2-1.6-4.8-2.4-6.8,0,0-15.2-7.2-26.4-13.2-7.6-3.6-14.4-10.8-17.2-19.2l-74.8-221.6c-8.4-23.6,29.2-66.8,8-59.6l-146.8,49.6c-14.8,5.2,14.4,18,25.6,22.8,8.8,3.6,14.4,11.2,17.2,19.6l75.2,221.6c9.2,27.6-24.4,52.4-12,58.8,16.8,8,36.4,13.2,42.8,32.8l74.8,221.2c8.4,24.4-28.8,65.6-8.4,58.8l146.8-49.6c16.8-5.6-18-18.4-25.2-22h0Zm451.6-108.8c-7.2-5.6-12.8-12.4-14.8-21.2l-52.8-228.4c-6.4-27.2,30-50.8,18.4-57.6-12.8-7.6-35.6-16.4-40-36l-52.8-228.4c-6.4-27.6,26.8-47.6,20-56-1.6-1.6-3.6-2-5.6-1.6-252.8,58-124.8,24-111.6,80.8l74,321.2c.8,3.6-3.2,7.2-6.4,2.4-35.6-59.2-147.2-246.8-182.4-305.2-29.2-48.4,87.2-67.6-154.4-11.6-22.4,5.2,31.6,18.4,38.4,46.4l52,226.8c7.2,30.4-30,50.4-17.2,58.4,16.8,10.4,34.8,16.8,39.2,37.2l52.4,226.4c6,25.2-34.8,63.6-14,58.8,192.8-44.4,168.4-30.4,128-59.2-7.6-5.6-13.2-12.4-15.6-22l-76.8-332.8c-.8-3.6,3.2-7.2,6.8-2.8,35.6,57.6,154,245.6,191.6,305.2,18,29.2-15.6,48-8.8,56.4,1.6,2,2.8,2.8,5.6,2l150-34.8c17.6-4-15.2-19.6-23.2-24.4h0Zm1451.6-232.8c-11.2-17.6-25.2-30.4-21.6-49.6l25.6-143.6s30.8-138.4-108-163.2l-211.6-38c-15.6-2.8,4,22.4,11.2,32.4,6,7.2,7.2,16.4,5.6,25.6l-40.8,230c-5.2,28.4-46.8,34.4-38.8,45.6,10.4,15.2,25.2,29.2,21.6,49.6l-41.2,230c-4.4,25.2-56.8,43.6-35.6,47.6l211.6,37.6c138.8,24.8,157.6-116,157.6-116l25.6-142.4c5.6-31.2,46.8-34,38.8-45.6h0Zm-165.2,178.4c-6,33.2-28.8,32-41.6,30l-76-13.6c-4.8-1.2-6.8-6.4-6.4-10.4l80.8-452,9.2-6.4,76,13.6c12.8,2.4,34.8,9.2,29.2,41.6l-71.2,397.2h0Zm478.4-320l116.8,39.2c24.8,8.8,36,65.2,42.8,44.4l37.6-110.8c1.6-4.8-.8-10-4.8-11.2l-290.8-98.4c-21.6-7.2,18,34.4,9.2,60l-74.4,220.8c-10,29.6-52.8,27.6-46.4,40.4,0,0,7.6,15.2,13.2,26.4,3.6,7.6,4.4,17.6,1.6,26l-74.4,220c-8.8,25.6-65.2,34.8-43.6,42l290.8,98.4c3.6,1.2,8.8-1.2,10-4.8,50.4-148.8,50-124,2.4-103.6-8.4,3.2-17.6,4.4-26.8,1.2l-115.6-39.2c-4.4-1.2-7.2-6.8-5.6-11.2l55.2-163.2,11.2-5.6c100,34,87.6,19.2,114.4,73.6,2.4,4.4,8.4,3.2,9.6,0l49.6-146.8c7.6-22.8-34.8,18-61.2,8.8l-81.2-27.2c-4.8-1.6-7.2-6.8-6-10.8l55.6-163.6c1.6-4.8,6-6.4,10.8-4.8h0Zm399.6,764c-2.4-8.8-2-17.6,2-25.6l106.8-209.2c12.8-24.8,55.6-19.2,51.2-32-4.8-13.6-16.4-35.6-7.6-53.2l107.2-208.8c12.8-24.8,51.2-18.8,51.2-29.6,0-2.4-1.2-4.4-3.2-5.2-229.2-116.8-110.4-62.8-137.6-10l-150,293.2c-1.6,3.6-7.2,3.6-6.8-2,11.2-68.4,46.4-283.6,57.2-351.2,8.8-55.6,110.4,4.8-110.8-108-20.8-10.8,13.2,33.6-.4,60l-106,207.2c-14.4,27.6-55.6,19.2-50.8,33.6,6,18.4,15.6,34.8,6,53.6l-106,206.8c-11.6,22.8-67.6,26-48.8,36,176.4,90,148.8,85.2,136.4,36.8-2.4-8.8-2.4-17.6,2.4-26.8l155.6-303.6c1.6-3.6,7.2-3.6,6.8,2-9.6,67.2-40.4,286.8-50.4,356.8-4.8,34-42.8,26.8-42.8,37.6,0,2.4,.4,3.6,3.2,5.2l137.2,70c15.6,8.4,.8-24.8-2-33.6h0Zm196.4,119.2c-1.2-9.2-.4-18,4.4-25.6l126.4-196.8c10.8-17.2,38-18.8,50-20.8,11.2-17.2-13.6-36,2-60.4l126.4-196.8c13.2-20.8,70-19.2,51.6-30.8l-130.4-83.6c-20.4-13.2,8.8,36-6.4,59.6l-126,196.8c-16,24.8-56.4,14-53.6,27.6,4,18.4,12.4,36.8,1.2,54l-126,196.8c-14,21.2-69.2,18.4-51.6,30l130.8,83.6c14.8,9.6,2.8-25.6,1.2-33.6h0Zm381.6,128.4c55.2-78,96-117.6,57.2-215.2-11.2-28.4,22-49.6,9.6-56.8-11.6-6.8-42.4-16.4-46.8-28.8-20.8-55.2-6.4-62,17.2-95.2,44.4-62.4,45.2-74.4,95.2-38.8,53.2,37.6-37.2,95.6-34,115.2,1.6,1.2,2.8,3.2,4,2.8,26.8,0,97.2,22.4,105.6,10.4l10-14s87.6-111.6-27.2-193.2l-18-12.8c-114.8-81.6-191.2,38-191.2,38-62,92-98,112-50,224,10.8,26-21.6,52.4-8,54.4,0,0,40.4,16,43.6,28.4,15.2,45.6-.4,54-17.6,78.4-58.8,82.4-52.8,84.8-111.6,42.8-54.4-38.4,59.6-112.4,30-116.4-114-16.8-97.6-22.4-114.4,.4,0,0-87.6,112.8,26.4,194l28.4,20.4c114.4,81.2,191.6-38,191.6-38h0Zm449.2,440.8c69.2-66,116.8-98,97.2-200.8-5.6-30,30.8-44.4,20.4-53.6-10-9.2-38.8-24-40.8-37.2-10-58,5.6-62,35.2-90.4,55.6-52.8,58.4-64.4,100.8-20,32.8,34.8-6.4,57.2-53.2,102-4.8,4.8,.8,8.4,1.2,8.4,26.4,4.8,91.2,40,102,30,10.8-10.4,121.6-102.4,22.4-206.4l-15.2-16c-102.8-108-199.2,4.8-231.2,35.2-63.6,60.8-74.8,90.8-55.6,176,5.2,24.4-20.8,39.6-21.2,49.2,14.4,14.8,39.6,24.4,40.4,38.8,6.4,47.6-10.4,52.8-32,73.6-71.6,68-66.8,74.8-118,21.2-46-48.4,80-99.2,52-108.8-109.2-38.4-91.6-40.4-112.8-21.2,0,0-107.2,94-10.8,195.2l24,25.6c96.8,101.2,195.2-.8,195.2-.8h0Zm221.2,299.2c-2.4-11.2-43.6,.8-60.8-21.2l-60.8-76.8c-2.4-3.2-1.6-8.8,2.4-12l142.8-112.4c15.2-12,42.4-4.4,53.6-2.4,2.4-2,4-3.2,6.4-5.2,.8-11.2,0-39.6,15.2-51.6l184-144.4c22.8-18,51.6,3.6,59.6-6,.8-2,.4-4.4-.8-6l-95.6-121.6c-14.4-18.4-2.8,36.4-25.6,54.4l-184,144.4c-23.2,18-57.6-6.4-59.2,8.4-2,17.6-.8,38.8-16,50.8l-183.6,144.4c-21.6,16.8-72.8-4.8-59.2,12,0,0,144.4,184,174,221.6,2.8,3.2,8,5.2,12,2.4l94.4-74c1.2-1.2,2.4-3.2,1.2-4.8h0ZM3556,7747.6c6-33.6,29.2-32.4,42-30l76,13.6c4.8,.8,6.8,6,6,10l-80.4,452-9.2,6.4-76-13.6c-12.8-2-34.8-9.2-29.2-41.6l70.8-396.8h0Zm-478,320l-116.8-39.6c-24.8-8.4-36-64.8-43.2-44l-37.2,110.8c-1.6,4.8,.8,9.6,4.4,10.8l290.8,98.4c22,7.6-18-34-9.2-60l74.8-220.8c10-29.2,52.8-27.6,46.4-40,0,0-7.6-15.2-13.2-26.8-3.6-7.6-4.8-17.2-1.6-26l74-219.6c8.8-26,65.6-34.8,44-42.4l-290.8-98.4c-3.6-1.2-8.8,1.6-10,5.2-50.4,148.4-50,124-2.4,103.6,8.4-3.2,17.2-4.4,26.8-1.2l115.6,38.8c4.4,1.6,7.2,7.2,5.6,11.6l-55.2,163.2-11.2,5.2c-100-33.6-87.6-18.8-114.8-73.2-2-4.8-8.4-3.2-9.2,0l-49.6,146.4c-8,22.8,34.8-17.6,60.8-8.8l81.6,27.6c4.8,1.6,7.2,6.8,6,10.4l-55.6,164c-1.6,4.8-6.4,6.4-10.8,4.8Zm-399.6-764.4c2,9.2,2,18-2,26l-107.2,208.8c-12.4,25.2-55.6,19.2-51.2,32,4.8,14,16.8,35.6,7.6,53.6l-106.8,208.8c-12.8,24.8-51.2,18.8-51.2,29.6,0,2.4,1.2,4,2.8,5.2,229.2,116.8,110.4,62.8,137.6,10l150.4-293.6c1.6-3.2,7.2-3.2,6.8,2.4-11.6,68.4-46.4,283.6-57.6,351.2-8.8,55.6-110-5.2,110.8,108,21.2,10.8-12.8-34,.8-60l106-207.2c14-27.6,55.6-19.2,50.8-33.6-6-18.4-15.6-35.2-6.4-53.6l106.4-206.8c11.6-22.8,67.6-26.4,48.4-36-176-90-148.4-85.2-136-37.2,2,9.2,2,18-2.4,26.8l-155.6,304c-1.6,3.2-7.2,3.6-6.8-2,9.6-67.2,40-287.2,50-357.2,5.2-33.6,42.8-26.4,43.2-37.6,0-2-.8-3.6-3.2-4.8l-137.2-70c-16-8.4-.8,24.8,2,33.2h0Zm-196.4-118.8c1.2,9.2,0,18-4.8,25.6l-126,196.8c-11.2,17.2-38,18.8-50.4,20.8-10.8,17.2,14,36-2,60.4l-126,196.8c-13.2,20.8-70.4,18.8-51.6,30.8l130.4,83.6c20.4,13.2-9.2-36,6.4-60l126-196.4c15.6-24.8,56.4-14.4,53.2-27.6-4-18.4-12-36.8-1.2-54l126.4-196.8c13.6-21.6,69.2-18.4,51.2-30l-130.4-83.6c-14.8-9.6-3.2,25.6-1.2,33.6h0Zm-381.6-128.4c-55.6,78-96,117.6-57.6,215.2,11.2,28.4-21.6,49.6-9.6,56.8,11.6,6.8,42.4,16.4,47.2,28.8,20.8,55.2,6,62-17.6,95.2-44.4,62.4-45.2,74.4-95.2,38.8-52.8-37.6,37.6-95.6,34.4-115.2-1.6-1.2-2.8-3.2-4.4-2.8-26.4,0-96.8-22.4-105.6-10.4l-9.6,14s-88,111.6,26.8,193.2l18,12.8c114.8,81.6,191.6-38,191.6-38,61.6-92,97.6-112,50-224-11.2-26,21.6-52.4,8-54.4-.4,0-40.4-16-43.6-28.4-15.6-45.6,.4-54,17.6-78.4,58.8-82.4,52.4-84.8,111.6-42.8,54.4,38.4-60,112.4-30.4,116.4,114.4,16.8,97.6,22.4,114.8-.4,0,0,87.6-112.8-26.8-194l-28.4-20.4c-114-81.2-191.2,38-191.2,38h0Zm-449.6-440.4c-69.2,65.6-116.4,97.6-97.2,200.4,5.6,30-30.8,44.4-20.4,53.6,10.4,9.2,38.8,24.4,40.8,37.2,10,58.4-5.6,62-35.2,90.4-55.2,52.8-58.4,64.4-100.8,20-32.8-34.4,6.4-57.2,53.2-101.6,5.2-4.8-.4-8.4-1.2-8.8-26.4-4.8-91.2-40-101.6-30-11.2,10.8-122,102.4-22.8,206.4l15.2,16c103.2,108,199.2-4.8,231.6-35.2,63.6-60.8,74.8-90.8,55.6-176-5.2-24.4,20.4-39.6,20.8-48.8-14.4-15.2-39.2-24.4-40-39.2-6.8-47.6,10.4-52.8,32-73.6,71.2-68,66.4-74.8,117.6-20.8,46,48-80,98.8-51.6,108.8,108.8,38,91.2,40.4,112.4,21.2,0,0,107.6-94.4,10.8-195.6l-24-25.6c-96.8-101.2-195.2,1.2-195.2,1.2h0Zm-221.2-299.2c2.4,10.8,43.6-1.2,60.8,20.8l60.8,77.2c2.4,3.2,1.6,8.8-2.4,11.6l-142.8,112.4c-15.2,12-42.4,4.8-53.6,2.8-2.4,1.6-4,3.2-6.4,4.8-.8,11.6,0,39.6-15.2,51.6l-183.6,144.4c-23.2,18-52-3.6-60,6.4-.8,2-.4,4,.8,5.6l95.6,122c14.8,18.4,2.8-36.4,26-54.4l183.6-144.4c23.2-18.4,57.6,6,59.2-8.8,2-17.6,.8-38.4,16-50.4l184-144.4c21.2-17.2,72.4,4.8,58.8-12.4,0,0-144.4-184-174-221.6-2.4-3.2-8-5.2-12-2l-94,74c-1.6,1.2-2.8,3.2-1.6,4.8Zm-404.4-277.6c-6.4,19.6-7.2,38.4-24,48.4l-202.8,116.4c-24.8,14.4-49.6-10.8-59.6-1.6-1.6,1.2-1.6,3.2-.4,5.2l77.2,134.4c12,20.4,9.6-36.8,33.2-50.4l419.2-240.8c40-23.2,52,16.8,74.8,56,6,10.4,14.8,32-14.8,48.8l-418.8,240.8c-22,12.8-71.2-15.6-60,3.6l77.2,134.4c7.6,13.2,14.4-17.6,17.2-29.6,1.6-9.2,8-16.4,16-20.8l202.4-116.4c25.2-14.8,56.4,13.2,60,0,4.8-17.6,6-38,24-48.4l125.6-72s126-65.6,56-186.8l-26.8-47.2c-70.4-122-190.4-46-190.4-46l-125.2,72c-27.6,15.6-56.4-13.6-60,0h0Zm-231.2-406c-.4,1.6-1.6,4-.8,6l65.2,144c1.2,2.4,4,3.6,5.6,2.8,12-3.2,92-3.6,96-10.4,5.2-9.2-34-56-17.6-63.6,173.6-78.4,157.2-87.2,194.4-4.4,5.6,12,12.4,34-18.4,48l-367.6,166c-40,18-48.4-20-63.6-53.6-5.2-11.6-12.4-34.8,17.6-48.4l88.4-40c4.8-2.4,3.2-8,1.2-9.2-102-80.4-68.8-67.6-123.6-45.2,0,0-132.4,52-74.4,179.6l18.4,41.2c58,128.4,184.4,63.6,184.4,63.6l133.2-60.4c27.6-12.4,54.8,19.2,59.6,6,6-15.2,10-37.2,27.6-45.2l132.4-60s132.4-52,74.4-180.4l-18.8-41.2c-57.6-127.6-184-62.8-184-62.8l-168.8,76.4c-26,12-53.6-17.6-60.8-8.8h0Zm262-338.8c-4.4,8-10.8,14.4-19.2,17.2l-221.6,75.2c-19.6,6.4-41.2-9.2-52.4-15.2-2,.8-4.8,1.6-6.4,2.4,0,0-7.6,15.2-13.2,26.4-4,7.6-11.2,14.4-19.6,17.2l-221.2,74.8c-24,8-66.8-29.2-60-8l50,146.8c4.8,14.4,17.6-14.4,22.8-26,3.2-8.4,10.8-14,19.6-16.8l221.2-75.2c27.6-9.2,52.8,24.4,58.8,12,8.4-16.8,13.2-36.4,32.8-42.8l221.6-75.2c24-8,65.6,28.8,58.8,8.8l-50-146.8c-5.6-16.8-18,18-22,25.2h0Zm-108.8-452c-5.2,7.6-12.4,13.2-20.8,15.2l-228.8,52.8c-27.2,6.4-50.4-30-57.6-18.4-7.6,12.4-16.4,35.6-36,40l-228.4,52.8c-27.6,6.4-47.6-26.8-56-20-1.6,1.6-2,3.6-1.6,5.6,58,252.8,24,124.8,80.8,111.6l321.2-74c3.6-.8,7.2,3.2,2.4,6.4-59.2,35.2-246.4,147.2-305.2,182.4-48,29.2-67.2-87.6-11.2,154.4,5.2,22.4,18-31.6,46.4-38.4l226.4-52c30.4-7.2,50.8,30,58.4,17.2,10.4-16.8,16.8-34.8,37.2-39.2l226.8-52.4c24.8-6,63.2,34.8,58.4,14-44.4-193.2-30.4-168.4-59.2-128-5.6,7.6-12.4,13.2-22,15.6l-332.8,76.8c-3.6,.8-7.2-3.6-2.4-6.8,57.2-35.6,245.2-154,305.2-191.6,28.8-18,47.6,15.6,56.4,8.8,1.6-1.6,2.4-2.8,1.6-5.6l-34.8-150c-4-17.6-19.6,15.2-24.4,22.8Zm-233.2-1451.2c-17.2,11.2-30,25.2-49.2,21.6l-143.6-25.6s-138.4-30.8-163.2,108l-38,211.6c-2.8,15.6,22.4-4,32.4-11.6,7.2-5.6,16.4-7.2,25.6-5.6l230,41.2c28.4,5.2,34.4,46.8,45.6,38.8,15.2-10.8,29.2-25.2,49.6-21.6l230,40.8c25.2,4.8,43.6,57.2,47.6,36l37.6-211.6c24.8-138.8-116-158-116-158l-142.4-25.2c-31.2-5.6-34.4-46.8-46-38.8h0Zm178.8,165.2c33.2,5.6,32,28.8,29.6,41.6l-13.2,76c-1.2,4.8-6.4,6.8-10.4,6.4l-452-80.8-6.4-9.2,13.6-76c2.4-12.8,9.2-34.8,41.6-29.2l397.2,71.2Zm-320-478.4l39.2-116.8c8.4-24.8,64.8-36,44.4-42.8l-110.8-37.6c-4.8-1.6-10,.8-11.2,4.8l-98.4,290.8c-7.6,21.6,34-18,60-9.6l220.8,74.8c29.2,10,27.6,52.8,40.4,46.4,0,0,15.2-7.6,26.4-13.2,7.6-3.6,17.6-4.4,26-1.6l219.6,74.4c26,8.4,35.2,65.2,42.4,43.6l98.4-290.8c1.2-3.6-1.2-8.8-5.2-10-148.4-50.4-123.6-50-103.6-2.4,3.6,8.4,4.8,17.2,1.6,26.8l-39.2,115.6c-1.6,4.4-6.8,7.2-11.2,5.6l-163.2-55.2-5.6-11.2c34-100,18.8-87.6,73.2-114.8,4.8-2,3.6-8,.4-9.2l-146.8-49.6c-22.8-7.6,17.6,34.8,8.8,60.8l-27.6,81.6c-1.6,4.8-6.4,7.2-10.4,6l-164-55.6c-4.4-1.6-6-6.4-4.4-10.8h0Zm764-399.6c-8.8,2-18,2-26-2l-208.8-106.8c-24.8-12.8-19.2-56-32-51.6-14,5.2-35.6,16.8-53.2,7.6l-208.8-106.8c-25.2-12.8-19.2-51.2-30-51.2-2,0-4,1.2-4.8,3.2-117.2,228.8-63.2,110.4-10,137.6l293.2,150c3.2,1.6,3.2,7.2-2.4,6.8-68-11.6-283.6-46.4-350.8-57.2-55.6-8.8,4.8-110.4-108.4,110.8-10.4,20.8,34-13.2,60.4,.4l207.2,106c27.6,14,19.2,55.6,33.2,50.8,18.8-6,35.2-15.6,53.6-6l207.2,106c22.8,11.6,26,67.6,35.6,48.4,90.4-176,85.6-148.4,37.2-136-8.8,2.4-18,2-26.8-2.4l-304-155.6c-3.2-1.6-3.2-7.2,2.4-6.8,66.8,9.6,286.8,40.4,356.8,50.4,34,4.8,26.4,42.4,37.6,42.8,2.4,0,3.6-.4,4.8-3.2l70.4-137.2c8-16-25.2-.8-33.6,2h0Z"/>
	</g>
	<g id="inner_ring">
		<path class="brand" d="M4320,1140c1756.4,0,3180,1423.6,3180,3180h-60c0-1723.2-1396.8-3120-3120-3120h0v-60h0Zm0,6360h0c-1756.4,0-3180-1423.6-3180-3180h60c0,1723.2,1396.8,3120,3120,3120h0v60Z"/>
	</g>
	<path class="brand" d="M3367.2,3450h-405.2l-128.4-310c164,6.8,264.8,9.6,430-21.2,330.4-60.8,630-203.6,858-453.6,76.4-83.2,142-184.8,198.4-290,56,105.2,122,206.8,198,290,228.4,250,527.6,392.4,858.4,453.6,165.2,30.8,266,28,430,21.2l-128.4,310h-404.8c-18.8,110-28.4,189.6-36.8,300h642l441.6-1066c-234.8,86-398.4,160.8-661.2,160.8-76.8,0-153.6-7.2-228-20.8-288.4-53.2-521.2-174.8-691.2-361.2-200.4-219.2-328.8-652.4-330-656.8l-89.6-306-89.6,306c-1.2,4.4-129.6,437.6-330,656.8-170.4,186.4-402.8,308-691.6,361.2-218.4,40.4-445.6,22-654.4-54.4l-234.4-85.6,441.6,1066h642c-8.4-110.4-18-190-36.4-300h0Zm2752.4,545.6c-311.6-54.4-607.6-76.4-908.4-18.4-20.4,118.4-30.8,200-39.6,316,225.6-54.4,433.6-64,665.2-38.4,2,93.2-1.6,186.4-12,278.8,103.2-7.2,205.6-24,305.2-51.6,11.6-164.8,4-319.2-10.4-486.4h0Zm-1097.2,842.4l-2008.8,1840.8,202.8,221.2,1974.8-1809.6c-50-8.4-99.6-17.2-149.6-25.6-6.4-75.6-13.2-151.2-19.2-226.8h0Zm438.8-162c-6.4-95.2-6-185.6,1.2-278.8-118.8,9.2-188.4,25.6-302,52.8-5.6,162.4,6.8,324.8,20.8,486.4,505.6,87.6,1054,79.6,1497.6-211.2-110.8,385.6-432,679.6-825.2,756.4,88.4-112,158-239.6,211.2-372-114,18.4-227.6,26.8-343.2,27.6-172.4,316.8-458.8,498.8-852,422.4,537.2,370.4,1225.2,306.4,1705.2-119.2,480.4-440.4,576-1144,267.2-1688.4,84.8,808.4-764.8,962-1380.8,924h0Zm-2940.8-680.4c311.6-54.4,607.6-76.4,908.4-18.4,20.4,118.4,30.8,200,39.6,316-225.6-54.4-433.6-64-665.2-38.4-2,93.2,1.6,186.4,12,278.8-102.8-7.2-205.6-24-305.2-51.6-11.6-164.8-4-319.2,10.4-486.4h0Zm1097.2,842.4l591.2,542-222,203.2-538-492.8c50-8.4,99.6-17.2,149.6-25.6,6.4-75.6,13.2-151.2,19.2-226.8Zm1035.6,948.8l973.2,892-202.8,221.2-992.4-909.6,222-203.6Zm-1474.4-1110.8c6.4-95.2,6-185.6-1.2-278.8,118.8,9.2,188.4,25.6,302,52.8,6,162.4-6.8,324.8-20.8,486.4-505.6,87.6-1054,79.6-1497.6-211.2,110.8,385.6,432,679.6,825.2,756.4-88.4-112-158-239.6-211.2-372,114,18.4,227.6,26.8,343.2,27.6,172.4,316.8,458.8,498.8,852,422.4-537.2,370.4-1225.2,306.4-1705.2-119.2-480.4-440.4-576-1144-267.2-1688.4-84.8,808.4,764.8,962,1380.8,924h0Z"/>
</svg>