<?xml version="1.0" encoding="UTF-8"?>
<svg xmlns="http://www.w3.org/2000/svg" viewBox="0 0 8640 3296.63">
  <style>path {fill: #202020;}</style>
  <path d="M3735.54,949.3h1.78c2.22-25.51.44-60.37.44-60.37h.88s12.54,38.02,21.04,60.37l62.63,149.86h60.84l62.63-149.86c8.94-22.39,21.01-59.94,21.01-59.94h1.34s-1.78,34.42.47,59.94l15.66,216.08h70.22l-31.77-386.54h-74.69l-76.07,191.04c-8.5,22.79-18.79,56.81-18.79,56.81h-1.34s-10.29-34.02-19.23-56.81l-76.48-191.04h-74.73l-31.77,386.54h70.25l15.66-216.08h0ZM1609.61,1754.56h.47s0-1.34.44-1.78c38.46-105.59,111.84-208.92,212.48-296.59-67.1-3.6-137.79-5.38-213.39-5.85v304.22h0ZM2801.41,1628.4h356.53l-153.86-219.64c-94.86-567.73-520.74-1023.12-1072.8-1160.91L1608.26,0v427.69c654.96,14.76,1182.39,544.87,1193.14,1200.71ZM359.68,1687.46H0l157.92,205.79c96.61,565.48,521.61,1018.21,1071.89,1155.53l319.38,245.6v-425.44c-646.86-16.1-1168.94-535.49-1189.52-1181.48h0ZM1608.7,2868.5v428.13l323.01-248.28c552.03-137.79,977.94-593.21,1072.77-1160.91l153.89-200.42h-357c-20.57,646.86-544,1166.72-1192.68,1181.48h0ZM1549.67,427.69V2.25l-319.41,245.59C679.54,385.17,254.54,837.93,157.92,1403.38L0,1628.4h359.68c10.29-654.93,536.37-1184.61,1189.99-1200.71h0ZM1951.41,2010.91c20.57-3.13,41.58-5.38,63.09-6.28h19.67v636.17c72.04-32.64,140.04-72.01,202.67-118.56v-913.06c-68.44,0-134.23,8.94-195.98,25.92h.91c-20.57,5.85-41.18,12.1-60.84,19.7-175.37,65.31-311.82,195.04-370,355.21-16.98,47.43-27.26,97.08-29.95,148.98h-1.34c-2.25-51.9-12.54-101.55-29.98-148.98-57.72-160.18-194.16-289.9-369.97-355.21-19.7-7.16-40.27-13.85-60.84-19.7-61.75-16.98-127.97-25.92-196.41-25.92v913.06c63.09,46.52,131.07,86.36,202.67,118.56v-67.1l.88.44s-.44-.44-.88-.44v-569.04h19.67c21.48.88,42.52,3.13,63.09,6.25,156.58,25.08,285.43,120.37,341.33,247.41,10.76,24.17,18.79,48.74,23.73,74.73,2.66,12.98,4.47,26.39,5.35,39.8h2.69c.88-13.44,2.69-26.86,5.35-39.8,5.38-25.95,12.98-50.99,23.7-74.73,55.94-126.6,184.78-221.9,341.36-247.41h.06ZM804.79,1228.91c22.39-66.66,49.68-129.72,81.89-188.35-102.02,38.49-174.9,85.45-206.23,137.35v-.44c-61.28,115.4-100.68,243.37-113.65,379.38,30.86-21.04,72.94-40.74,125.72-58.62v-276.02c26.86,0,52.78,1.34,78.29,3.1,11.19.91,22.36,2.25,33.99,3.6h0ZM2024.76,1323.3c82.32-40.27,174.03-70.22,272.45-86.79-28.17-81.42-63.97-157.02-106.93-225.46-76.48-22.36-165.05-41.58-264.82-55.03h-.47c37.58,108.27,66.22,235.31,84.11,375.35,5.38-2.69,10.29-5.82,15.66-8.07h0ZM1901.73,894.27c84.57,10.29,164.21,24.61,236.65,42.52v-.47c-102.43-133.76-233.06-230.84-379.35-275.11,54.12,55.03,102.43,134.23,142.7,233.09v-.03h0ZM1934.87,1373.42c5.82-3.6,12.07-7.16,17.88-10.76-18.35-156.11-50.99-297.93-94.39-414.24-77.38-8.07-160.14-13.01-248.28-13.88v456.77c97.08.44,191.94,4,282.3,10.26,13.85-9.82,27.73-19.23,42.49-28.17v.03h0ZM1551.45,934.98c-85.89.91-169.56,5.82-248.75,14.32-42.49,115.87-75.16,256.79-93.92,412.46,6.25,3.6,12.51,7.6,18.76,11.63,14.32,8.94,28.64,18.79,42.52,28.64,90.36-6.25,184.78-9.82,281.39-10.29v-456.77ZM970.34,1012.4s.13-.03.19-.09c.09-.09.16-.25.25-.38l-.44.44v.03h0ZM1151.97,1330.9c17.45-139.13,46.09-265.73,83.67-373.54-96.99,13.41-186.85,31.74-265.1,54.97-42.37,67.88-78.07,143.35-106.24,223.74,98.43,16.54,189.69,46.49,272.01,86.33,5.38,2.69,10.76,5.82,15.66,8.5h0ZM1260.21,894.27c40.27-98.43,88.61-178.06,142.73-232.65-145.61,44.24-276.49,141.07-378.38,274.45,72.19-17.76,151.05-31.58,235.65-41.8ZM1024.03,936.79c.16-.22.34-.47.53-.69-.34.06-.66.16-1,.22l.47.47ZM1551.45,637.95c-84.54,17.45-161.96,108.71-223.68,248.75,71.57-6.72,146.29-10.29,223.68-11.19v-237.56h0ZM1610.08,637.48v238c76.95.91,151.64,4.47,223.68,11.19-61.75-140.01-139.13-231.28-223.68-249.19h0ZM782.43,1021.34c43.87-22.39,94.86-42.96,151.67-60.41,58.15-88.11,127.03-164.62,203.98-225.46-139.13,67.57-260.79,165.52-355.65,285.87h0ZM2378.19,1019.99c-94.83-119.44-216.08-217.42-354.78-284.52,77.41,60.84,146.29,136.88,204.45,225.46h-.44c56.37,17.45,106.93,37.11,150.76,59.06h0ZM562.35,1652.57v.44c0,180.75,47.43,350.74,130.63,497.91v-589.62c-86.79,32.2-130.63,65.31-130.63,91.27ZM2468.11,1497.77c53.25,17.92,95.3,37.58,126.6,59.06-13.41-143.17-56.81-277.36-123.47-397.24-34.89-42.52-102.46-84.14-197.29-120.37,32.2,59.06,59.5,122.13,81.89,188.78,11.19-.88,22.36-2.22,33.55-3.13,25.95-1.78,51.9-3.13,78.29-3.13v276.02h.44ZM2468.11,1561.3v590.52c83.2-147.61,131.07-317.63,131.07-498.82,0-25.92-43.84-59.5-131.07-91.7h0ZM1550.11,1751.43s.91,2.25,1.38,3.6v-305.09c-75.16.44-145.86,2.69-212.52,5.82,100.21,87.23,173.15,190.13,211.14,295.71v-.03ZM6392.88,2137.07l.44-.44c-37.58,15.63-64.88,52.34-64.88,106.9,0,48.77,21.48,91.27,68.47,112.31v1.34s-4.03,5.35-12.54,20.14l-81.85,135.98h78.29l84.11-144.04h56.37v144.04h70.22v-386.51h-125.25c-38.05,0-57.28,3.13-73.38,10.29h0ZM6521.69,2186.72v123.03h-60.81c-37.58,0-60.84-22.82-60.84-63.53,0-20.57,8.04-39.8,24.17-49.65,9.82-5.82,23.23-9.85,48.31-9.85h49.18ZM6030.94,2349.11h-.44c-14.32,22.82-32.64,60.41-32.64,60.41h-.91s3.6-37.14,3.6-59.97v-223.21h-70.25v386.51h69.79l147.2-222.77c14.29-22.82,32.2-59.94,32.2-59.94h1.34s-4.03,37.11-4.03,59.94v222.77h69.79v-386.51h-69.79l-145.86,222.77ZM5745.08,2126.31l-76.04,191.04c-8.5,22.79-19.23,56.81-19.23,56.81h-.91s-10.29-33.55-19.23-56.81l-76.48-191.04h-74.73l-31.77,386.54h70.25l15.66-216.08c2.22-25.51.44-60.37.44-60.37h.88s12.54,38.02,21.04,60.37l62.63,149.86h60.84l62.63-149.86c8.5-22.39,21.01-59.94,21.01-59.94h.91s-1.81,34.42.44,59.94l15.66,216.08h70.22l-31.77-386.54h-72.47,0ZM5222.56,2348.21h130.19v-60.37h-130.19v-101.11h161.05v-60.41h-231.27v386.54h239.78v-60.41h-169.56v-104.24h0ZM5041.37,2126.31h-240.22v84.57c0,78.26-8.07,169.09-55.94,241.56h-39.36v136.88h64.88v-76.48h250.97v76.48h62.63v-136.88h-42.96v-326.14h0ZM4817.26,2452.45c40.27-65.31,50.09-161.05,50.09-236.65v-29.08h103.37v265.73h.44-153.89ZM4488.43,2126.31l-135.54,386.54h72.01l32.64-98.86h135.57l33.08,98.86h72.04l-135.57-386.54h-74.26.03ZM4475.02,2356.71l34.89-103.33c6.72-21.92,15.23-59.94,15.23-59.94h.88s8.94,38.02,15.23,59.94l34.46,103.33h-100.68ZM4225.83,2310.19l109.62-183.88h-76.51l-90.8,157.49h-50.12v-157.49h-70.25v386.54h70.25v-168.68h50.12l93.92,168.68h79.63l-115.87-201.32v-1.34ZM3787.41,2126.31h-.44l-135.57,386.54h72.04l32.64-98.86h135.54l33.11,98.86h72.01l-135.54-386.54h-73.82.03ZM3773.09,2356.71l34.89-103.33c6.72-21.92,15.23-59.94,15.23-59.94h.88s8.5,38.02,15.23,59.94l34.46,103.33h-100.68ZM8514.72,1453.03l.44-.44c-38.02,0-57.25,3.13-73.38,10.29-37.55,15.66-64.85,52.34-64.85,106.93,0,49.18,21.01,91.27,68.44,112.28v1.34s-4.03,5.38-12.51,20.14l-81.89,136.01h78.29l84.11-144.51h56.37v144.51h70.25v-386.54h-125.28,0ZM8570.18,1636h-60.84c-37.55,0-60.81-22.79-60.81-63.53,0-20.57,8.04-39.8,23.7-49.65,9.82-5.82,23.7-9.85,48.31-9.85h49.65v123.03ZM8128.21,1452.59h-.44l-135.57,386.51h72.04l32.64-99.3h135.54l33.11,99.3h72.01l-135.54-386.51h-73.82.03ZM8114.32,1682.99l34.89-103.33c6.28-21.95,15.23-59.94,15.23-59.94h.88s8.5,38.02,15.23,59.94l34.46,103.33h-100.68ZM7871.39,1616.33h-177.15v-163.74h-70.22v386.51h70.22v-162.4h177.15v162.4h69.38v-386.51h-69.38v163.74ZM7513.52,1453.03v-.44h-240.25v84.54c0,78.29-8.07,169.56-55.9,242.03h-39.36v136.91h64.85v-76.51h251v76.51h62.63v-136.91h-42.96v-326.14h0ZM7443.73,1778.73h-153.89c40.27-65.31,50.12-161.05,50.12-236.65v-29.08h103.77v265.73ZM6962.83,1445.87c-113.65,0-199.98,86.36-199.98,196.85s85.89,202.67,199.98,202.67,199.95-89.01,199.95-202.67-85.89-196.85-199.95-196.85ZM6962.83,1781.41c-70.69,0-127.5-59.94-127.5-138.23s56.81-132.88,127.5-132.88,127.5,57.72,127.5,132.88-56.84,138.23-127.5,138.23ZM6601.8,1452.59h-148.98v386.51h70.25v-133.29h78.73c72.47,0,123.03-52.34,123.03-127.5s-50.56-125.72-123.03-125.72ZM6588.79,1644.5v.47h-65.75v-132.01h67.1c39.8,0,63.53,25.51,63.53,65.35s-24.17,66.19-64.88,66.19ZM6401.38,1839.1l-135.57-386.51h-74.26l-135.54,386.51h72.04l32.64-99.3h135.54l33.11,99.3h72.04ZM6178.58,1682.99h-.44l34.89-103.33c6.69-21.95,15.2-59.94,15.2-59.94h1.34s8.97,38.02,15.23,59.94l34.46,103.33h-100.68ZM5758.05,1676.7h177.15v162.4h69.82v-386.51h-69.82v163.74h-177.15v-163.74h-70.22v386.51h70.22v-162.4ZM5520.96,1757.68l119.44-305.53h-73.38l-62.16,173.12c-8.97,25.08-15.66,50.56-15.66,50.56h-1.34s-9.41-25.48-21.95-50.99l-82.32-172.68h-77.38l151.2,298.84c-8.04,21.48-19.23,33.55-38.46,33.55-17.92,0-34.02-11.16-43.4-18.79l-30.86,52.81c23.26,16.54,47.87,26.86,77.38,26.86,55.9,0,82.76-46.52,98.86-87.7l.03-.03h0ZM4908.52,1915.61v-.44h64.85v-76.51h251v76.51h62.59v-136.91h-42.93v-326.1h-240.25v84.54c0,78.29-8.04,169.56-55.9,242.03h-39.36v136.91-.03h0ZM5070.48,1541.6v-29.08h103.33v265.73h-153.45c40.27-65.31,50.12-161.05,50.12-236.65h0ZM4685.72,1839.1v-169.09h45.65l87.67,169.09h78.73l-109.59-201.76v-.88l101.55-183.88h-75.6l-82.76,157.02h-45.65v-157.02h-69.35v157.02h-45.15l-82.79-157.02h-75.6l100.65,183.88v.88l-109.15,201.76h79.2l87.7-169.09h45.15v169.09h69.35ZM4365.87,1513v-60.41h-231.31v386.51h239.81v-60.37h-170.02v-104.24h130.19v-60.37h-130.19v-101.11h161.52ZM3735.54,1623.05h1.78c2.22-25.51.44-60.41.44-60.41h.88s12.54,38.05,21.04,60.41l62.63,149.86h60.84l62.63-149.86c8.94-22.39,21.01-59.94,21.01-59.94h1.34s-1.78,34.42.47,59.94l15.66,216.05h70.22l-31.77-386.51h-74.69l-76.07,191c-8.5,22.82-18.79,56.84-18.79,56.84h-1.34s-10.29-33.58-19.23-56.84l-76.48-191h-74.73l-31.77,386.51h70.25l15.66-216.05h0ZM7233.03,1165.38l83.64-144.48h56.81v144.48h70.25v-386.51h-125.25c-38.05,0-57.28,3.13-73.38,10.29-37.58,15.63-64.88,52.34-64.88,106.9,0,49.21,21.48,91.27,68.47,112.31v1.34s-3.6,5.35-12.54,20.14l.47-.44-81.89,135.98h78.29ZM7275.96,849.09c9.85-5.82,23.26-9.82,48.31-9.82h49.68v123.03h-60.87c-37.55,0-60.81-22.82-60.81-63.53,0-20.57,8.04-39.83,23.7-49.68h0ZM6901.08,1066.05h135.1l33.11,99.33h72.01l-135.54-386.54h-73.82l-135.54,386.54h72.01l32.64-99.33h.03ZM6953.42,905.47h-.44c6.72-21.95,15.23-59.94,15.23-59.94h1.34s8.5,38.02,15.2,59.94l34.46,103.33h-100.65l34.89-103.33h-.03ZM6561.53,996.73h50.09l93.95,168.65h79.63l-115.87-201.32v-1.34l109.59-183.84h-76.48l-90.83,157.02h-50.09v-157.02h-70.22v386.51h70.22v-168.65h0ZM6278.79,1171.66c69.35,0,118.56-28.64,152.11-62.63l-37.14-50.56c-29.51,29.08-70.69,49.21-112.28,49.21-84.11,0-130.19-65.78-130.19-138.26s44.74-132.85,129.75-132.85c37.55,0,78.26,17.45,105.55,40.71l33.58-52.34c-37.58-36.24-92.17-52.78-142.73-52.78-116.31,0-198.63,85.89-198.63,198.16s78.29,201.32,199.98,201.32h0ZM6030.07,1053.1c0-39.36-20.14-78.29-62.63-90.83v-.88c29.51-15.66,46.96-46.99,46.96-82.76,0-63.97-49.65-99.77-119.87-99.77h-137.79v386.51h140.01c71.13,0,133.32-34.89,133.32-112.28h0ZM5894.06,839.24c32.2,0,49.18,20.14,49.18,47.87s-17.45,49.68-47.87,49.68h-68v-97.55h66.69ZM5826.96,993.17h75.16c35.33,0,55.9,23.26,55.9,55.47s-20.14,56.37-55.9,56.37h-75.16v-111.84ZM5486.07,1171.66c113.62,0,199.95-88.61,199.95-202.67s-85.89-197.29-199.95-197.29-199.54,86.36-199.54,197.29,85.89,202.67,199.54,202.67ZM5486.07,836.12c70.69,0,127.5,57.72,127.5,132.88s-56.37,138.23-127.5,138.23-127.5-59.94-127.5-138.23,56.37-132.88,127.5-132.88ZM5042.28,996.73h50.09l93.95,168.65h79.63l-115.87-201.32v-1.34l109.15-183.84h-76.04l-90.83,157.02h-50.09v-157.02h-70.22v386.51h70.22v-168.65ZM4759.54,1171.66c69.35,0,118.56-28.64,152.11-62.63l-37.14-50.56c-29.51,29.08-70.69,49.21-112.28,49.21-83.64,0-130.19-65.78-130.19-138.26s44.74-132.85,129.75-132.85c37.55,0,78.29,17.45,105.55,40.71l33.58-52.34c-37.58-36.24-92.17-52.78-142.7-52.78-116.34,0-198.66,85.89-198.66,198.16s78.29,201.32,199.98,201.32h0ZM4311.28,1171.66c113.65,0,199.98-88.61,199.98-202.67s-85.89-197.29-199.98-197.29-199.98,86.36-199.98,197.29,85.89,202.67,199.98,202.67ZM4311.28,836.12c70.69,0,127.5,57.72,127.5,132.88s-56.81,138.23-127.5,138.23-127.5-59.94-127.5-138.23,56.81-132.88,127.5-132.88Z"/>
</svg>