<?xml version="1.0" encoding="UTF-8"?>
<svg xmlns="http://www.w3.org/2000/svg" viewBox="0 0 8640 8640">
	<style>path {fill: #f0cc90;}</style>
	<path d="M6108.8,6040.56c185.09,171.55,432.44,259.67,684.3,243.78,197.57,4.99,391.31-55.12,551.36-171.07,130.2-84.66,228.81-209.95,280.49-356.41h930.58c-99.15,416.93-341.28,785.93-684.3,1042.84-329.07,218.42-717.94,329.03-1112.7,316.49-281.74,3.7-561.35-49.27-822.23-155.75-235.98-98.41-447.63-247.17-620.15-435.88-171.87-197.74-303.9-426.83-388.84-674.68-95.34-277.03-142.01-568.48-137.93-861.43-1.74-288.04,46.5-574.2,142.56-845.75,264.77-783.74,1004.38-1307.61,1831.57-1297.32,297.69-6.22,592.06,63.45,855.37,202.44,238.02,130.52,443.35,313.3,600.54,534.61,160.8,232.22,276.06,492.85,339.66,768.06,69.74,295.52,94.61,599.85,73.78,902.78h-2771.77c-22.46,284.6,66.33,566.82,247.7,787.3Zm1216.06-2127.39c-156.93-156.97-374.12-238.33-595.55-223.11-145.2-5.54-289.35,26.63-418.42,93.38-102.32,56.33-192.64,132.12-265.88,223.11-64.9,85.31-113.26,182.02-142.56,285.12-26.41,85.99-42.91,174.72-49.18,264.45h1716.81c-14.96-233.93-100.17-457.89-244.49-642.6l-.71-.36Zm-1692.93-2122.4h2151.27v549.93h-2151.27v-549.93Zm-3131.03-267.42c233.45-4.33,466.58,19.6,694.28,71.28,191.72,41.86,373.74,119.75,536.39,229.53,150.22,109.16,269.08,255.92,344.64,425.55,86.85,208.58,128.74,433.13,122.96,658.99,9.86,248-53.48,493.43-182.12,705.68-135.34,200.47-322.41,360.57-541.38,463.33,297.15,80.11,555.97,263.61,729.92,517.5,166.98,269.01,250.92,581.31,241.29,897.79,5.51,252.33-46.67,502.59-152.54,731.7-97.87,199.86-241.16,374.04-418.42,508.59-182.5,133.07-387.86,231.52-605.89,290.47-226.1,62.55-459.68,93.97-694.28,93.38H0V1523.35H2500.9Zm-148.62,2262.47c183.43,7.56,363.99-47.35,512.16-155.75,143.89-128.09,218.69-316.7,201.73-508.59,4.75-110.53-17.26-220.57-64.15-320.77-39.78-79.78-101.63-146.45-178.2-192.1-77.56-50.25-164.69-83.86-255.9-98.72-98.96-19.17-199.67-27.89-300.45-26.02H1166.87v1306.94h1185.41v-4.99Zm64.15,2381.5c110.93,1.5,221.63-10.47,329.68-35.64,98.74-21.81,192.38-62.34,275.86-119.4,81.78-57.03,147.85-133.77,192.1-223.11,51.31-113.92,74.88-238.38,68.79-363.18,22.54-230.47-62.86-458.39-231.31-617.3-176.17-129.76-392.07-194.03-610.52-181.77H1166.87v1540.39h1249.56Z"/>
</svg>