<?xml version="1.0" encoding="UTF-8"?>
<svg xmlns="http://www.w3.org/2000/svg" viewBox="0 0 8640 8640">
	<style>path {fill: #f0cc90;}</style>
	<path d="M4320,0C1935.1,0,0,1935.1,0,4320s1935.1,4320,4320,4320,4320-1935.09,4320-4320S6700.21,0,4320,0Zm2853.44,1991.32c515.4,627.85,824.66,1429.06,834.03,2295.87-121.82-23.41-1340.06-271.76-2567.65-117.13-28.11-60.91-51.54-126.52-79.65-192.11-74.98-178.04-159.3-360.77-243.65-534.14,1358.77-552.88,1977.26-1349.42,2056.91-1452.5ZM4320,637.22c937.09,0,1794.53,351.41,2445.82,927.72-65.61,93.71-623.19,838.7-1935.12,1330.67-604.42-1110.45-1274.43-2019.43-1377.51-2160,276.43-65.6,566.95-98.39,866.81-98.39Zm-1569.62,346.72c98.39,131.19,754.35,1044.86,1368.14,2131.88-1724.25,459.19-3247.03,449.82-3411.02,449.82,238.96-1143.26,1012.06-2094.41,2042.88-2581.7ZM627.85,4324.7v-112.46c159.31,4.67,1949.15,28.11,3790.54-524.77,107.78,206.15,206.17,416.99,299.89,627.83-46.87,14.07-98.42,28.13-145.26,42.17-1902.3,613.79-2914.36,2291.19-2998.7,2431.76-585.68-651.27-946.46-1518.07-946.46-2464.53Zm3692.15,3687.44c-852.77,0-1639.91-290.49-2263.08-777.79,65.6-135.86,815.26-1578.99,2895.61-2305.23,9.37-4.7,14.07-4.7,23.44-9.37,520.07,1344.71,730.94,2473.9,787.16,2797.2-445.12,192.11-932.42,295.19-1443.12,295.19Zm2056.91-632.53c-37.48-224.91-234.28-1302.56-716.88-2628.56,1157.33-182.74,2169.37,117.15,2295.89,159.33-159.3,1026.11-749.68,1911.65-1579.01,2469.23Z"/>
</svg>