<?xml version="1.0" encoding="UTF-8"?>
<svg xmlns="http://www.w3.org/2000/svg" viewBox="0 0 8640 8640">
	<style>path {fill: #f0cc90;}</style>
	<path d="M2530.87,30.21c-459.65,21.69-773.54,95.04-1047.95,202.87-284,110.68-524.71,259.2-764.21,499.57-239.5,240.37-386.99,481.25-496.89,765.68C115.47,1773.34,43.41,2087.49,23.1,2547.4,2.8,3007.31-1.69,3155.14,.55,4328.28c2.25,1173.14,7.43,1320.2,29.72,1781.06,21.95,459.56,95.04,773.37,202.87,1047.86,110.85,284,259.2,524.62,499.65,764.21,240.45,239.59,481.16,386.73,766.28,496.8,274.75,106.19,588.99,178.59,1048.81,198.72,459.82,20.13,607.83,24.8,1780.62,22.55,1172.8-2.25,1320.46-7.43,1781.23-29.29,460.77-21.86,772.94-95.47,1047.52-202.78,284-111.11,524.8-259.2,764.21-499.74,239.42-240.54,386.81-481.6,496.63-766.2,106.45-274.75,178.76-588.99,198.72-1048.47,20.13-461.12,24.88-608.34,22.64-1781.31-2.25-1172.97-7.52-1320.02-29.38-1780.71-21.86-460.69-95.04-773.54-202.78-1048.21-111.02-284-259.2-524.45-499.57-764.21-240.37-239.76-481.6-387.07-766.11-496.63-274.93-106.36-588.99-178.85-1048.81-198.72C5632.99,3.34,5484.99-1.75,4311.76,.49c-1173.23,2.25-1320.11,7.26-1780.88,29.72m50.46,7809.55c-421.2-18.32-649.9-88.3-802.31-146.88-201.83-77.76-345.6-171.76-497.49-322.19-151.89-150.42-245.2-294.71-324-496.11-59.18-152.41-130.46-380.85-150.16-802.05-21.43-455.24-25.92-591.93-28.43-1745.29-2.51-1153.36,1.9-1289.87,21.86-1745.29,17.97-420.86,88.39-649.82,146.88-802.14,77.76-202.09,171.42-345.6,322.19-497.41s294.63-245.29,496.2-324.09c152.24-59.44,380.68-130.12,801.71-150.16,455.59-21.6,592.1-25.92,1745.29-28.43,1153.19-2.51,1290.04,1.81,1745.8,21.86,420.86,18.32,649.9,88.04,802.05,146.88,201.92,77.76,345.6,171.16,497.41,322.19,151.81,151.03,245.38,294.37,324.17,496.37,59.53,151.81,130.21,380.16,150.08,801.45,21.69,455.59,26.61,592.19,28.68,1745.29,2.07,1153.1-1.99,1290.04-21.95,1745.29-18.4,421.2-88.21,649.99-146.88,802.57-77.76,201.74-171.5,345.6-322.36,497.32-150.86,151.72-294.54,245.2-496.2,324-152.06,59.36-380.77,130.21-801.45,150.25-455.59,21.43-592.1,25.92-1745.72,28.43-1153.62,2.51-1289.7-2.16-1745.29-21.86M6103.09,2011.11c.48,286.3,232.96,518.01,519.27,517.54,286.3-.48,518.01-232.96,517.54-519.27-.48-286.31-232.96-518.01-519.27-517.54-.06,0-.11,0-.17,0-286.24,.57-517.84,233.03-517.37,519.27m-4001.2,2313.2c2.42,1225.16,997.41,2216.08,2222.3,2213.75,1224.9-2.33,2216.51-997.23,2214.18-2222.39-2.33-1225.16-997.58-2216.34-2222.65-2213.92s-2216.17,997.58-2213.83,2222.56m778.12-1.56c-1.57-795.31,641.88-1441.31,1437.18-1442.88,795.31-1.57,1441.31,641.88,1442.88,1437.18,1.57,795.31-641.87,1441.3-1437.18,1442.88-795.21,1.67-1441.21-641.62-1442.88-1436.83v-.35"/>
</svg>