<?xml version="1.0" encoding="UTF-8"?>
<svg xmlns="http://www.w3.org/2000/svg" viewBox="0 0 8640 8640">
	<style>path {fill: #f0cc90;}</style>
	<path d="M4320,0C1886.83,0,.12,1783.03,.12,4190.28c0,1259.24,516.23,2347.86,1356.44,3099.51,70.2,62.64,113.4,151.2,115.56,246.23l23.76,768.94c5.83,190.78,165.22,340.7,355.99,334.87,44.45-1.36,88.22-11.29,128.91-29.23l857.5-377.99c72.36-32.4,154.44-37.8,231.11-17.28,394.19,108,813.22,166.32,1250.61,166.32,2433.17,0,4319.88-1783.03,4319.88-4190.28S6753.17,0,4320,0Zm2595.17,3224.79l-1270.04,2011.98c-190.73,302.81-590.82,393.68-893.63,202.95-15-9.45-29.61-19.51-43.79-30.16l-1009.77-757.06c-92.62-69.34-219.98-68.9-312.11,1.08l-1362.92,1034.61c-181.43,138.24-419.03-78.84-296.99-272.15h0l1268.96-2013.06c190.73-302.81,590.82-393.68,893.63-202.95,15,9.45,29.61,19.51,43.78,30.16l1009.77,757.06c92.62,69.34,219.98,68.9,312.11-1.08l1362.92-1034.61c181.43-138.24,419.03,79.92,298.07,273.23Z"/>
</svg>