<?xml version="1.0" encoding="UTF-8"?>
<svg xmlns="http://www.w3.org/2000/svg" viewBox="0 0 8640 8640">
	<style>path {fill: #f0cc90;}</style>
	<path d="M0,4320c0,1844.28,1155.96,3418.92,2782.8,4038.48-39.6-337.32-81.72-893.52,9-1283.76,78.12-335.52,504.36-2137.68,504.36-2137.68,0,0-128.52-257.4-128.52-638.64,0-597.6,346.32-1044,777.96-1044,367.2,0,544.32,275.4,544.32,605.52,0,369-235.08,920.52-356.4,1432.08-101.16,428.04,214.92,777.24,636.84,777.24,764.28,0,1352.16-806.04,1352.16-1969.56,0-1029.96-740.16-1749.6-1796.76-1749.6-1223.28,0-1941.48,917.64-1941.48,1866.24,0,369.72,142.2,765.72,320.04,981.36,30.83,33.12,42.16,79.93,29.88,123.48-32.76,136.08-105.48,428.04-119.52,487.8-19.08,78.48-62.28,95.4-144,57.24-537.12-249.84-872.64-1035-872.64-1665.72,0-1356.84,985.32-2602.44,2841.12-2602.44,1491.84,0,2651.4,1063.08,2651.4,2483.64s-934.2,2675.16-2231.64,2675.16c-435.96,0-845.28-226.8-985.68-494.28,0,0-215.64,821.52-267.84,1022.4-101.52,390.24-383.04,884.16-557.64,1164.6,402.48,123.84,829.44,190.44,1272.24,190.44,2385.72,0,4320-1934.28,4320-4320S6705.72,0,4320,0,0,1934.28,0,4320"/>
</svg>