<?xml version="1.0" encoding="UTF-8"?>
<svg xmlns="http://www.w3.org/2000/svg" viewBox="0 0 8640 8640">
	<style>path {fill: #f0cc90;}</style>
	<path d="M4320,0C1934.13,0,0,1934.13,0,4320s1934.13,4320,4320,4320,4320-1934.13,4320-4320S6705.87,0,4320,0Zm2002.39,2937.95c-65.01,683.09-346.32,2340.78-489.44,3105.86-60.56,323.73-179.8,432.28-295.23,442.9-250.87,23.09-441.37-165.79-684.35-325.07-380.22-249.24-595.01-404.39-964.08-647.6-426.52-281.07-150.02-435.55,93.05-688.02,63.61-66.07,1168.95-1071.46,1190.35-1162.67,2.68-11.41,5.16-53.93-20.1-76.38-25.26-22.45-62.54-14.77-89.44-8.67-38.13,8.66-645.53,410.12-1822.2,1204.41-172.41,118.39-328.57,176.07-468.49,173.05-154.25-3.33-450.95-87.21-671.53-158.91-270.54-87.94-485.56-134.44-466.84-283.79,9.75-77.79,116.88-157.35,321.38-238.67,1259.37-548.69,2099.14-910.41,2519.33-1085.18,1199.71-499,1449-585.68,1611.48-588.54,35.74-.63,115.64,8.23,167.4,50.23,43.7,35.46,55.73,83.37,61.48,116.99,5.75,33.62,12.92,110.22,7.22,170.06Z"/>
</svg>