<?xml version="1.0" encoding="UTF-8"?>
<svg xmlns="http://www.w3.org/2000/svg" viewBox="0 0 8640 8640">
	<style>path {fill: #f0cc90;}</style>
	<path d="M8032.66,607.35C7425.31,0,6447.82,0,4492.8,0h-345.61C2192.18,0,1214.68,0,607.35,607.35,0,1214.68,0,2192.18,0,4147.2v345.61c0,1955.02,0,2932.5,607.35,3539.86,607.34,607.34,1584.83,607.34,3539.85,607.34h345.61c1955.02,0,2932.5,0,3539.86-607.34,607.34-607.36,607.34-1584.84,607.34-3539.86v-345.61c0-1955.02,0-2932.51-607.34-3539.85Zm-1833.49,5617.07c-219.59-684-766.75-1213.2-1490.34-1285.19v1285.19h-111.64c-1969.2,0-3092.38-1350-3139.18-3596.4h986.4c32.4,1648.8,759.58,2347.2,1335.59,2491.2V2628.02h928.84v1422c568.8-61.2,1166.33-709.2,1367.93-1422h928.82c-154.81,878.4-802.8,1526.4-1263.6,1792.8,460.8,215.99,1198.84,781.19,1479.64,1803.59h-1022.44Z"/>
</svg>