<?xml version="1.0" encoding="UTF-8"?>
<svg xmlns="http://www.w3.org/2000/svg" viewBox="0 0 8640 8640">
	<style>path {fill: #f0cc90;}</style>
	<path d="M7366.41,1255.52C6558.22,446.29,5483.33,.41,4338.06,0,1978.12,0,57.48,1920.44,56.66,4281c-.41,754.62,196.87,1491.18,571.51,2140.29L20.73,8640l2269.62-595.33c625.29,341.19,1329.41,520.81,2045.86,521.02h1.84c2359.53,0,4280.4-1920.65,4281.21-4281.21,.41-1144.04-444.45-2219.53-1252.85-3028.76v-.21Zm-3028.36,6587.16h-1.43c-638.44-.19-1264.75-171.83-1811.21-495.97l-129.95-77.17-1346.87,353.28,359.45-1313.21-84.58-134.66c-356.17-566.57-544.41-1221.45-544-1893.73,.82-1961.91,1597.11-3558.2,3560.05-3558.2,950.45,.41,1843.86,370.95,2515.74,1043.67,671.9,672.51,1041.62,1566.74,1041.21,2517.4-.84,1962.11-1597.11,3558.41-3558.41,3558.41v.19Zm1951.84-2665c-106.96-53.57-632.88-312.25-731.02-347.95-98.12-35.73-169.34-53.57-240.59,53.57-71.22,107.17-276.3,348.17-338.71,419.39-62.41,71.44-124.82,80.28-231.78,26.68-106.93-53.57-451.61-166.48-860.33-530.86-317.98-283.7-532.73-633.9-595.11-741.07-62.41-107.15-6.57-165.04,46.79-218.21,48.03-48.03,106.96-125.01,160.53-187.42,53.6-62.41,71.25-107.15,106.96-178.4,35.73-71.44,17.87-133.83-8.81-187.42-26.7-53.57-240.59-580.14-329.9-794.24-86.85-208.56-175.1-180.23-240.59-183.72-62.41-3.08-133.64-3.7-205.08-3.7s-187.23,26.69-285.35,133.85c-98.12,107.15-374.44,366.01-374.44,892.36s383.28,1035.26,436.85,1106.7c53.57,71.44,754.4,1151.85,1827.43,1615.38,255.19,110.23,454.5,176.13,609.9,225.4,256.21,81.49,489.4,70.01,673.74,42.49,205.5-30.79,632.9-258.86,721.99-508.7,89.09-249.84,89.09-464.15,62.41-508.7-26.68-44.55-98.12-71.44-205.08-125.01l.19-.41Z"/>
</svg>