<?xml version="1.0" encoding="UTF-8"?>
<svg xmlns="http://www.w3.org/2000/svg" viewBox="0 0 8640 8640">
	<style>path {fill: #f0cc90;}</style>
	<path d="M8079.29,8640c-951.5,0-1907.26-244.25-2867.26-732.74-960-488.5-1826.55-1119.29-2599.65-1892.39-773.1-773.1-1401.77-1637.52-1886.02-2593.27C242.12,2465.84,0,1512.21,0,560.71,0,407.79,53.1,276.11,159.29,165.66,265.49,55.22,399.29,0,560.71,0H2013.45c135.93,0,250.62,42.48,344.07,127.43,93.45,84.96,157.17,199.65,191.15,344.07l305.84,1363.54c16.99,127.43,12.74,242.12-12.74,344.07-25.49,101.95-76.46,186.9-152.92,254.87l-1197.88,1172.39c484.25,815.58,1025.84,1518.58,1624.78,2109.03,598.94,590.44,1284.96,1098.05,2058.05,1522.83l1146.9-1197.88c84.95-93.45,180.53-159.29,286.73-197.52,106.2-38.23,218.76-44.6,337.7-19.12l1236.11,280.35c135.93,25.49,246.37,89.2,331.33,191.15,84.96,101.95,127.43,225.13,127.43,369.56v1401.77c0,161.42-53.1,297.35-159.29,407.79-106.2,110.44-240,165.66-401.42,165.66Z"/>
</svg>