<?xml version="1.0" encoding="UTF-8"?>
<svg xmlns="http://www.w3.org/2000/svg" viewBox="0 0 8640 8640">
	<style>path {fill: #f0cc90;}</style>
	<path d="M736.94,8640c-203.29,0-376.94-72-520.94-216C72,8280,0,8106.35,0,7903.06V736.94C0,533.65,72,360,216,216,360,72,533.65,0,736.94,0H3926.12V571.76H736.94c-42.35,0-80.47,16.94-114.35,50.82-33.88,33.88-50.82,72-50.82,114.35V7903.06c0,42.35,16.94,80.47,50.82,114.35,33.88,33.88,72,50.82,114.35,50.82H7903.06c42.35,0,80.47-16.94,114.35-50.82,33.88-33.88,50.82-72,50.82-114.35v-3189.18h571.76v3189.18c0,203.29-72,376.94-216,520.94s-317.65,216-520.94,216H736.94Zm2363.29-2693.65l-406.59-406.59L7661.65,571.76h-2706.35V0h3684.71V3684.71h-571.76V991.06L3100.24,5946.35Z"/>
</svg>