<?xml version="1.0" encoding="UTF-8"?><svg id="a" xmlns="http://www.w3.org/2000/svg" viewBox="0 0 6720 15360"><defs><style>.c{fill:#F0F0F0;fill-rule:evenodd;}</style></defs><g id="b"><path class="c" d="M0,9125.36l477.38,477.7,477.38-477.7-477.38-489.95L0,9125.36Zm5753.01-2890.72l477.38,489.95,489.62-489.95-489.62-477.7-477.38,477.7Zm-2876.5,0l477.38,489.95,489.62-489.95-489.62-477.7-477.38,477.7Zm-2876.5,0l477.38,489.95,477.38-489.95-477.38-477.7L0,6234.64ZM5753.01,3356.17l477.38,489.95,489.62-489.95-489.62-477.7-477.38,477.7Zm-2876.5,0l477.38,489.95,489.62-489.95-489.62-477.7-477.38,477.7ZM0,3356.17l477.38,489.95,477.38-489.95-477.38-477.7L0,3356.17ZM5753.01,477.7l477.38,477.7,489.62-477.7L6230.38,0l-477.38,477.7Zm-2876.5,0l477.38,477.7,489.62-477.7L3353.88,0l-477.38,477.7ZM0,477.7l477.38,477.7,477.38-477.7L477.38,0,0,477.7ZM5753.01,14882.3l477.38,477.7,489.62-477.7-489.62-477.7-477.38,477.7Zm-2876.5,0l477.38,477.7,489.62-477.7-489.62-477.7-477.38,477.7Zm-2876.5,0l477.38,477.7,477.38-477.7-477.38-477.7L0,14882.3Zm5753.01-2878.47l477.38,477.7,489.62-477.7-489.62-477.7-477.38,477.7Zm-2876.5,0l477.38,477.7,489.62-477.7-489.62-477.7-477.38,477.7Zm-2876.5,0l477.38,477.7,477.38-477.7-477.38-477.7L0,12003.83Zm5753.01-2878.47l477.38,477.7,489.62-477.7-489.62-489.95-477.38,489.95Zm-2876.5,0l477.38,477.7,489.62-477.7-489.62-489.95-477.38,489.95Z"/></g></svg>