<?xml version="1.0" encoding="UTF-8"?><svg id="a" xmlns="http://www.w3.org/2000/svg" viewBox="0 0 15360 15360"><style>path{fill:#edbf81;}</style><g id="b"><path class="c" d="M11959.58,0L0,11959.58v770.18L12729.76,0h-770.18Zm3400.42,15360h-712.05l712.05-712.05v712.05Zm-2949.93,0h-770.18l3720.11-3720.11v770.18l-2949.93,2949.93Zm-3008.06,0h-770.18l6728.17-6728.17v770.18l-5957.99,5957.99h0Zm-3008.06,0h-770.18L15360,5623.77v770.18L6393.94,15360Zm-3008.06,0h-770.18L15360,2615.7v770.18L3385.89,15360h0Zm-2993.53,0H0v-392.36L14967.64,0h392.36V392.36L392.36,15360h0ZM0,9721.7v-770.18L8951.52,0h770.18L0,9721.7h0ZM0,6728.17v-770.18L5957.99,0h770.18L0,6728.17H0ZM0,3720.11v-770.18L2949.93,0h770.18S0,3720.11,0,3720.11ZM0,712.05V0H712.05L0,712.05Z"/></g></svg>