<?xml version="1.0" encoding="UTF-8"?><svg id="a" xmlns="http://www.w3.org/2000/svg" viewBox="0 0 15360 15360"><defs><style>.c{fill:#202020;}.c,.d{fill-rule:evenodd;}.d{fill:#edbf81;}</style></defs><g id="b"><path class="d" d="M7680.15,0c4241.58,0,7679.85,3438.57,7679.85,7680.15s-3438.27,7679.85-7679.85,7679.85S0,11921.73,0,7680.15,3438.57,0,7680.15,0Z"/><path class="c" d="M5585.54,6152.66v-523.5h-731.4l-399.25-879.42c346.29,45.73,652.27,41.22,993.45-21.66,669.72-123.96,1276.26-411.58,1739.29-917.94,196.76-215.72,360.43-493.12,492.51-769.61,131.78,276.19,295.45,553.89,492.21,769.31,462.73,506.35,1069.27,794.28,1738.99,917.94,341.48,63.18,647.46,67.69,993.75,21.96l-398.95,879.42h-731.4v523.5h1047.31l1047.01-2232.41-491.31,179.32c-437.16,159.76-912.82,198.27-1371.04,113.43-604.13-111.32-1091.53-365.85-1447.76-756.67-419.71-458.52-688.98-1366.52-691.69-1375.55l-186.84-640.84-187.74,640.84c-2.71,9.03-271.68,917.03-691.69,1375.85-356.22,390.52-843.32,645.05-1448.06,756.37-457.91,84.84-933.88,46.03-1370.74-113.43l-491.31-179.32,1047.31,2232.41h1047.31Zm4968.46,6421.34l-353.82,386.01-2326.28-2131.62,387.51-355.02,2292.58,2100.63Zm-3455.12-2455.95l-1572.31-1440.54,326.14-56.26,27.98-329.45,1605.71,1471.22-387.51,355.02h0Zm-3382.61-3487.91c651.97-114.03,1228.73-132.68,1877.99,8.42,20.46,205.49,46.33,307.18,44.53,522.6l-50.24-12.64c-457.01-114.93-945.61-123.96-1412.25-63.48-8.42,206.69-3.31,414.29,17.75,620.08-181.12-18.95-360.43-52.95-533.43-104.7-21.36-328.24-3.61-634.82,24.97-965.17l30.69-5.11h0Zm-239.79,1186.31c520.8,178.71,1098.45,203.08,1642.11,132.08,8.72-206.69,3.61-414.29-17.75-620.08,210.3,21.96,337.27,52.35,533.13,101.69,21.36,329.14,3.91,636.93-24.67,967.88-795.18,139.3-1525.98,179.92-2302.51-86.65-301.16-103.5-593.3-253.93-837.91-460.02,157.35,1022.03,1003.38,1797.06,2035.04,1864.75-276.49-275.29-476.57-627.3-611.66-993.15,195.26,29.48,390.22,43.93,586.08,45.73,321.92,676.94,886.95,1077.39,1683.33,922.75l191.05-37.31-160.36,110.42c-1030.76,710.34-2419.55,624.89-3357.34-209.7v.3l-59.87-54.76v-.3c-912.82-861.67-1118.91-2237.52-501.84-3326.65l95.98-169.09-20.16,193.46c-85.75,820.76,375.78,1360.51,1127.34,1618.65h0Zm1329.82,4757.56l353.51,386.01,4673.62-4282.5-325.84-56.26-27.98-329.45-4673.32,4282.2Zm6837.43-5943.87c-651.67-114.03-1228.43-132.68-1877.69,8.42-20.76,205.49-46.33,307.18-44.53,522.6l49.94-12.64c457.31-114.93,945.92-123.96,1412.56-63.48,8.42,206.69,3.31,414.29-18.05,620.08,181.42-18.95,360.44-52.95,533.43-104.7,21.36-328.24,3.61-634.82-24.67-965.17l-30.99-5.11h0Zm240.09,1186.31c-520.8,178.71-1098.45,203.08-1642.12,132.08-9.03-206.69-3.91-414.29,17.45-620.08-210.3,21.96-336.97,52.35-533.13,101.69-21.36,329.14-3.61,636.93,24.97,967.88,795.18,139.3,1525.98,179.92,2302.51-86.65,300.86-103.5,593.3-253.93,837.91-460.02-157.65,1022.03-1003.38,1797.06-2035.34,1864.75,276.49-275.29,476.87-627.3,611.66-993.15-195.26,29.48-390.22,43.93-585.78,45.73-322.22,676.94-887.25,1077.39-1683.33,922.75l-191.05-37.31,160.06,110.42c1031.06,710.34,2419.55,624.89,3357.34-209.7l.3,.3,59.87-54.76-.3-.3c913.12-861.67,1119.21-2237.52,501.84-3326.65l-95.98-169.09,20.46,193.46c85.75,820.76-376.08,1360.51-1127.34,1618.65h0Z"/></g></svg>