<svg id="eVfiOJbdmGq1" xmlns="http://www.w3.org/2000/svg" xmlns:xlink="http://www.w3.org/1999/xlink" viewBox="0 0 15360 15360" shape-rendering="geometricPrecision" text-rendering="geometricPrecision">
<style><![CDATA[
#eVfiOJbdmGq5_tr {animation: eVfiOJbdmGq5_tr__tr 6000ms linear infinite normal forwards}@keyframes eVfiOJbdmGq5_tr__tr { 0% {transform: translate(7680.000305px,7679.724731px) rotate(0deg)} 100% {transform: translate(7680.000305px,7679.724731px) rotate(360deg)}} #eVfiOJbdmGq6_tr {animation: eVfiOJbdmGq6_tr__tr 6000ms linear infinite normal forwards}@keyframes eVfiOJbdmGq6_tr__tr { 0% {transform: translate(7679.451294px,7678.873779px) rotate(0deg)} 100% {transform: translate(7679.451294px,7678.873779px) rotate(360deg)}}
]]></style>
<g><path d="M7680,0c4241.28,0,7680,3438.17,7680,7680s-3438.72,7680-7680,7680-7680-3438.72-7680-7680s3438.72-7680,7680-7680Zm5346.3,2333.7c-2952.45-2953-7740.16-2953-10692.61,0-2953,2952.45-2953,7739.61,0,10692.61c2952.45,2952.44,7739.61,2952.44,10692.61,0c2952.44-2953,2952.44-7740.16,0-10692.61Z" fill="#f0f0f0"/><path d="M7680,1905.37c3189.24,0,5774.63,2585.39,5774.63,5774.63s-2585.39,5774.63-5774.63,5774.63-5774.63-2585.39-5774.63-5774.63s2585.39-5774.63,5774.63-5774.63v0Zm3998.96,1775.11c-2208.4-2208.4-5789.53-2208.4-7998.48,0-2208.4,2208.95-2208.4,5790.08,0,7998.48c2208.95,2208.95,5790.08,2208.95,7998.48,0c2208.95-2208.4,2208.95-5789.53,0-7998.48v0Z" fill="#f0f0f0"/><g id="eVfiOJbdmGq5_tr" transform="translate(7680.000305,7679.724731) rotate(0)"><path d="M14347.7,7917.9l238.45-237.9-238.45-238.45L14109.8,7680l237.9,237.9ZM4552.03,13573.3l-325.11,87.21-87.21-325.11l325.11-87.21l87.21,325.11ZM11220.28,2024.6l-325.66,87.21-87.21-325.66l325.66-87.21l87.21,325.66Zm-412.87,11548.7l325.66,87.21l87.21-325.11-325.66-87.21-87.21,325.11ZM4139.72,2024.6l325.11,87.21l87.21-325.66-325.11-87.21-87.21,325.66ZM1012.3,7917.9L1250.2,7680l-237.9-238.45L773.85,7680l238.45,237.9Z" transform="translate(-7680.000305,-7679.724731)" fill="#f0f0f0" fill-rule="evenodd"/></g><g id="eVfiOJbdmGq6_tr" transform="translate(7679.451294,7678.873779) rotate(0)"><path d="M14369.78,9242.05c101.01-58.51,194.29-337.25,28.7-367.05-182.15-32.01-137.44,431.63-419.49,381.41-257.21-46.36-194.84-428.87-3.86-600.53l81.69,66.79c-124.74,80.59-230.17,387.48-67.34,416.73c183.8,32.57,150.69-423.35,412.31-376.44c246.73,43.6,224.1,388.03,46.92,543.13l-78.93-64.03v0Zm-26.49,677.26l-36.43,107.63-814.7,36.43l40.29-119.78l219.68-4.42l97.15-288.12-171.66-136.89l40.85-120.33l624.82,525.47v0Zm-496.77,18.21l353.81-6.62-277.09-220.78-76.72,227.41Zm229.06,672.84l-650.21-75.62l442.12,482.42-58.51,113.7-540.37-612.68l51.88-101.01l813.59,79.48-58.51,113.7Zm-512.77,913.5l-61.27,96.04-799.24-161.72l67.89-106.53l214.16,49.12l164.48-256.11-134.13-174.42l69-107.08l479.1,660.7v0Zm-486.28-102.11l344.98,78.93-215.26-280.95-129.71,202.02Zm-720.31,421.15c201.47-232.38,623.72-96.59,663.46,238.45c27.6,229.62-184.91,438.81-401.83,383.61l10.49-113.15c221.34,59.61,407.9-231.82,173.87-434.39-161.72-140.2-384.72-77.27-423.91,113.7-7.73,36.98-7.73,78.38-.55,123.64l60.72,52.44l104.87-120.33l66.79,57.96-170,197.05-290.88-251.69l66.24-76.17l71.2,61.82c-8.28-91.63,14.9-169.45,69.55-232.93v0Zm-737.42,853.88l-70.1-79.48l393.55-340.56l498.42,574.04-386.37,333.94-70.1-78.93l296.96-257.77-142.41-162.83-256.11,220.78-65.68-73.41l258.32-222.44-153.45-175.52-303.03,262.18v0ZM9676.45,14241.72c99.9,60.16,389.13,7.18,335.59-151.79-59.06-174.97-444.33,87.76-535.96-183.8-83.9-247.83,281.5-377.54,523.81-293.09l-19.32,103.77c-130.26-70.1-450.4-14.35-397.41,141.85c60.16,177.18,443.78-71.76,528.78,179.94c80.59,237.34-231.82,383.61-453.16,303.03l17.66-99.9Zm-600.53,322.9l-112.05,20.42-424.46-696.58l124.19-22.08l109.84,189.88l299.16-52.99l36.98-216.92l125.3-22.08-158.97,800.35v0Zm-255.56-426.12l176.08,306.89L9056.6,14096l-236.24,42.5Zm-442.67,530.43l-274.88-594.46-181.04,629.24-126.95,9.38l240.66-780.47l113.15-8.83L8505.2,14659l-127.5,9.93v0Zm-1089.02,22.63l-113.15-8.83-236.79-780.47l125.85,9.93l58.51,211.4l303.03,23.18l89.97-200.36l126.95,9.38-354.36,735.77v0Zm-140.75-476.9l94.39,341.11l145.17-322.9-239.55-18.21v0Zm-717-402.93c302.48,54.09,402.38,486.28,134.68,691.61-183.25,141.3-471.93,66.24-535.4-148.48l102.66-49.13c61.82,220.78,407.9,231.82,461.99-73.41c37.53-210.3-130.26-369.81-314.62-305.79-35.88,12.69-71.2,33.67-105.98,62.92l-14.35,79.48l156.76,28.15-15.45,87.21-256.11-45.81l67.34-378.09l99.35,17.66-16.56,92.73c74.51-54.09,152.89-73.96,235.69-59.06v0Zm-1108.89-207.54l33.12-101.01l492.9,166.69-242.31,720.86-484.07-163.93l33.12-100.46l372.02,125.85l68.44-205.33-320.14-109.29l30.36-93.83l322.35,110.39l73.96-221.89-379.75-128.06v0Zm-2308.86-904.11c-1.1,116.46,190.43,339.46,300.27,212.51c121.43-139.65-300.27-338.9-112.6-555.27c171.66-197.6,468.06,51.33,517.74,303.58l-99.35,35.88c-5.52-148.48-215.27-395.76-323.45-271.01-121.98,141.3,286.47,346.63,113.15,546.99-164.48,189.88-448.19-6.07-491.25-237.9l95.49-34.77v0Zm-577.35-353.81l-73.96-85.55l380.85-721.41l82.79,95.49-107.63,191.53l199.26,229.62l204.78-78.93l83.35,96.59-769.44,272.67v0Zm235.69-437.71l-173.32,308.55l330.63-126.95-157.31-181.6v0Zm-675.05-108.74l367.05-542.58-632,170-73.96-104.32l792.62-197.05l65.68,92.73-445.43,684.99-73.96-103.77v0Zm-566.87-923.98l-51.88-101.01l542.03-609.37l57.4,112.05-150.13,160.62l139.09,270.46l217.47-27.6l58.51,113.15-812.49,81.69Zm332.83-368.71l-241.76,258.32l351.6-44.71-109.84-213.61Zm-10.49-830.7c98.8,291.44-231.82,586.74-540.92,452.06-212.51-92.73-285.36-381.96-127.5-540.92l92.18,66.24c-163.38,160.62-6.62,468.62,287.02,369.81c202.02-69,261.08-293.09,115.91-423.35-28.15-25.39-63.48-46.36-105.98-62.92l-76.72,25.94l51.33,151.24-83.9,28.15-83.9-246.18l364.29-123.64l32.57,95.49-89.42,30.36c83.35,39.19,138.54,98.25,165.04,177.73v0ZM1379.36,8610.59l104.32-19.87l91.63,512.22-748.46,134.68-89.97-502.84l104.32-19.32l69,386.37l213.06-38.64-58.51-333.38l96.59-18.21l59.06,335.04l229.62-41.95-70.65-394.1v0ZM989.12,6168.71c-100.46,58.51-194.29,337.25-28.7,367.05c182.15,32.57,137.44-431.63,419.49-380.85c257.21,45.81,194.84,428.32,3.86,599.98l-81.69-66.79c124.74-80.59,230.17-387.48,67.34-416.73-183.8-32.57-150.69,423.35-412.32,376.99-246.73-44.16-224.1-388.03-46.92-543.68l78.93,64.03v0Zm18.21-679.47l36.43-107.63l814.7-35.88-40.29,119.22-219.68,4.42-97.15,288.12L1673,5894.38l-40.85,120.33-624.82-525.47v0Zm496.77-18.22l-353.81,6.62l277.08,220.78l76.72-227.41Zm-244.52-638.07l653.52,43.61-464.75-460.34l52.44-116.46l569.62,585.63-46.92,103.22-816.35-39.74l52.44-115.91v0Zm514.98-954.34l61.27-95.49l799.79,161.17-68.44,106.53-213.61-49.12-164.48,256.11l133.57,174.42-68.44,107.08-479.65-660.7v0Zm486.83,102.11l-344.98-78.93l215.27,280.95l129.71-202.02Zm713.14-426.11c-201.47,232.38-623.17,96.59-663.46-238.45-27.05-229.62,184.91-438.81,401.83-383.61l-9.94,113.15c-221.34-59.61-407.9,231.82-173.87,434.39c161.72,140.2,384.72,77.27,423.91-113.7c7.18-36.98,7.73-78.38.55-123.09l-61.27-52.99-104.32,120.33-67.34-57.96l170.56-197.05l290.33,251.69-65.68,76.17-71.2-61.82c8.28,91.63-14.9,169.45-70.1,232.93v0Zm731.9-859.96l70.1,79.48-393.55,341.11-498.42-574.04l385.82-334.49l70.65,79.48-296.96,257.21l142.41,162.83l256.11-220.78l65.68,73.96-258.32,221.89l153.45,175.52l303.03-262.18v0ZM5637.19,1130.94c-99.35-60.16-389.13-7.73-335.04,151.24c59.06,174.97,443.78-87.21,535.96,183.8c83.9,247.83-281.5,377.54-523.81,293.09l18.77-103.77c130.82,70.1,450.4,14.35,397.41-141.85-59.61-176.63-443.23,71.76-528.78-179.39-80.03-237.9,232.38-384.17,453.71-303.58l-18.21,100.46v0Zm562.45-321.79l110.39-25.39l458.68,673.95-123.09,28.7-118.67-184.91-296.4,68.44-25.94,218.03-124.19,28.7l119.22-807.52v0Zm276.53,412.87L6284.09,924.51l-41.95,351.6l234.03-54.09v0Zm457.02-533.2l274.88,594.46L7389.11,654.6l126.95-9.94-240.1,781.03-113.15,8.28-356.57-735.21l126.95-9.94v0Zm1050.38-30.91l113.7,2.76l275.98,767.78-125.85-3.31-69-208.64-304.13-7.73-80.03,204.78-127.5-3.31l316.83-752.32v0Zm165.04,469.17l-111.5-336.14-128.61,330.07l240.1,6.07Zm732.45,404.59c-303.03-54.09-402.38-486.28-134.68-692.16c183.25-141.3,471.93-65.68,534.85,149.03l-102.11,49.12c-61.82-220.78-407.9-231.82-462.54,72.86-37.53,210.3,130.81,370.37,315.17,305.79c35.33-12.14,71.2-33.12,105.98-62.37l14.35-79.48-157.31-28.15l16.01-87.21l256.11,45.26L9199,1583.01l-98.8-17.66l16.56-92.73c-74.52,54.09-152.89,73.96-235.69,59.06v0Zm1110.55,199.26l-32.57,100.46-492.9-166.69l242.31-720.31l484.07,163.38-33.12,101.01-372.02-125.85-68.44,204.78l320.14,109.84-30.36,93.28-322.35-109.84-73.96,221.34l379.2,128.61Zm2320.45,884.24c1.1-116.46-190.43-339.46-300.27-212.51-121.43,140.2,300.27,338.9,112.6,555.27-171.66,198.15-468.06-51.33-517.74-303.58l99.35-35.88c4.97,148.48,215.26,395.76,323.45,271.01c121.98-140.75-286.47-346.08-113.15-546.99c164.48-189.32,448.19,6.07,491.25,237.9l-95.49,34.77v0Zm582.87,348.29l74.52,85.55-381.41,720.86-82.24-95.49l107.63-190.98-199.26-230.17-205.33,78.93-83.35-96.04l769.44-272.67v0Zm-235.69,437.15l173.32-308.55-330.07,127.5l156.76,181.04Zm680.02,105.98l-367.61,542.03l632.55-169.45l73.96,103.77-793.17,197.05-65.68-92.73l445.99-684.43l73.96,103.77v0Zm574.04,919.02l51.33,101.01-541.47,609.92-57.96-112.6l150.13-160.07-138.54-271.01-218.02,28.15-57.96-113.7l812.49-81.69Zm-333.38,369.26l241.76-258.32-351.05,44.71l109.29,213.61Zm18.21,826.84c-98.25-291.44,232.38-586.74,541.47-451.5c211.95,92.73,285.37,381.41,127.5,540.37l-92.18-65.68c163.38-160.62,6.62-469.17-287.02-369.81-202.57,68.44-261.08,292.54-115.91,422.8c28.15,25.39,63.48,46.36,105.98,63.48l76.17-25.94-50.78-151.24l83.9-28.7l83.35,246.73-363.74,123.09-32.57-95.49l89.42-29.81c-83.35-39.19-138.54-98.8-165.59-178.28v0Zm381.41,1064.18l-104.32,19.32-91.63-512.22l748.46-134.68l89.97,502.84-104.32,19.87-69-386.93-213.06,39.19l58.51,333.39-96.59,18.21-59.06-335.59-229.62,42.5l70.65,394.1v0Z" transform="translate(-7679.451294,-7678.873779)" fill="#edbf81"/></g><path d="M5947.94,6337.63v-432.74h-604.95L5013.47,5177.4c285.92,38.09,539.27,34.22,821.32-17.66c553.62-102.66,1055.35-340.56,1437.86-758.95c162.83-178.28,298.06-407.9,407.35-636.41c109.29,228.51,244.52,457.58,406.8,635.86c383.06,418.94,884.24,656.83,1437.86,759.5c282.6,51.88,535.4,55.75,821.87,17.66l-330.07,727.49h-604.4v432.74h865.48l866.03-1845.76-406.24,147.93c-361.54,132.47-754.53,164.48-1133.73,93.83-499.53-92.18-902.46-302.48-1196.65-625.37-347.18-379.2-569.63-1129.87-571.83-1137.59l-155.1-529.88-155.1,529.88c-2.21,7.73-224.65,758.4-571.83,1137.59-294.75,322.9-697.13,533.2-1197.21,625.37-378.65,70.65-772.19,38.09-1133.73-93.83l-406.24-147.93l866.03,1845.76h866.03Zm4108.25,5309.32l-292.54,319.59-1923.59-1762.97l320.69-293.64l1895.44,1737.02v0ZM7199.23,9616.28L5899.36,8425.15l269.36-46.36l23.18-272.67L7519.92,9322.64l-320.69,293.64Zm-2796.79-2884c539.27-94.39,1015.61-109.29,1552.67,7.18c17.11,170,38.09,253.9,36.98,432.19l-41.4-10.49c-378.09-95.49-782.13-102.66-1167.95-52.44-7.18,170.56-2.76,342.22,14.9,512.77-150.13-16.01-298.06-44.16-441.02-86.66-17.66-271.57-3.31-524.92,20.42-798.14l25.39-4.42v0Zm-198.15,980.84c430.53,147.93,907.98,167.8,1357.83,109.29c7.18-170.56,2.76-342.22-14.9-512.77c173.87,18.21,278.74,43.6,441.02,84.45c17.66,272.12,2.76,526.57-20.42,800.34-657.94,114.81-1261.79,148.48-1904.27-71.76-248.94-85.55-490.14-210.3-692.71-380.3C3501.1,8587.42,4200.44,9228.25,5053.77,9284c-228.51-227.41-394.1-518.84-505.6-820.77c161.17,24.29,322.35,35.88,484.07,37.53c266.6,559.69,733.56,890.87,1392.05,762.81l157.86-30.91-132.47,91.63c-852.23,587.29-2000.31,516.64-2775.82-173.32v0l-49.68-45.26v0c-754.53-712.58-925.09-1850.18-414.52-2750.98l78.93-139.65-16.56,159.52c-71.2,678.91,310.75,1125.45,932.26,1338.51v0ZM5303.8,11646.95l292.54,319.59L9460.63,8425.15l-269.91-46.36-22.63-272.67L5303.8,11646.96v0Zm5653.75-4914.67c-539.27-94.39-1016.16-109.29-1552.67,7.18-17.11,170-38.64,253.9-36.98,432.19l41.4-10.49c378.09-95.49,782.13-102.66,1167.95-52.44c6.62,170.56,2.76,342.22-14.9,512.77c150.13-16.01,298.06-44.16,441.02-86.66c17.66-271.57,2.76-524.92-20.42-798.14l-25.39-4.42v0Zm198.15,980.84c-430.53,147.93-907.98,167.8-1357.83,109.29-7.18-170.56-2.76-342.22,14.35-512.77-173.87,18.21-278.74,43.6-440.47,84.45-17.66,272.12-3.31,526.57,20.42,800.34c657.39,114.81,1261.79,148.48,1903.72-71.76c248.93-85.55,490.69-210.3,693.26-380.3C11858.89,8587.42,11159,9228.25,10306.22,9284c228.51-227.41,394.1-518.84,505.6-820.77-161.72,24.29-322.9,35.88-484.62,37.53-266.05,559.69-733.56,890.87-1392.05,762.81l-157.86-30.91l132.47,91.63c852.78,587.29,2000.86,516.64,2776.37-173.32v0l49.68-45.26h-.55c755.08-712.58,925.64-1850.18,415.08-2750.98l-78.93-139.65l16.56,159.52c70.65,678.91-310.75,1125.45-932.26,1338.51v0Z" fill="#f0f0f0" fill-rule="evenodd"/></g></svg>
