<?xml version="1.0" encoding="UTF-8"?><svg id="a" xmlns="http://www.w3.org/2000/svg" viewBox="0 0 15360 5585.54"><defs><style>.c{fill:#f0f0f0;fill-rule:evenodd;}</style></defs><g id="b"><path class="c" d="M0,0H349.11V2941.91l698.22-847.35h349.11v3490.89h-349.11V2643.54l-698.22,847.35H0V0ZM14934.78,0h425.22l-971.21,1396.34,971.21,1396.43-971.21,1396.34,971.21,1396.34h-425.22l-971.12-1396.34,971.12-1396.43-971.12-1396.34L14934.78,0ZM12195.37,0h371.86l-1024.48,2792.77,675.47,1841.13v-1841.13h349.11v2792.77h-371.86l-1024.48-2792.77L12195.47,0h-.09ZM9425.45,0h349.11V5585.45h-349.11V1978.18l-698.22,930.86v2676.4h-349.11V1396.34L9425.35,0h.09Zm0,1396.34V581.85l-698.22,930.86v814.59l698.22-930.95ZM3840,0h349.11V5585.45h-349.11V1978.18l-698.22,930.86v2676.4h-349.11V1396.34L3839.91,0h.09Zm0,1396.34V581.85l-698.22,930.86v814.59l698.22-930.95Zm2094.55,4189.11h-349.11V0h349.11V5003.6l698.22-930.86V0h349.11V4189.11l-1047.23,1396.34h-.09Z"/></g></svg>