<svg xmlns="http://www.w3.org/2000/svg" viewBox="0 0 15360 15360"><style>path{fill:#F0F0F0;}</style><path d="M4499.33,53.71c-817.15,38.56-1375.18,169-1863,360.66-504.89,196.76-932.82,460.8-1358.6,888.11S589.74,2158,394.36,2663.69c-189.09,488.91-317.19,1047.4-353.28,1865S-3,5609.14,1,7694.72s13.2,2347,52.83,3166.33c39,817,169,1374.87,360.66,1862.86,197.07,504.89,460.8,932.66,888.27,1358.6s855.4,687.52,1362.28,883.2c488.45,188.78,1047.1,317.49,1864.56,353.28s1080.58,44.09,3165.55,40.09,2347.48-13.21,3166.63-52.07,1374.11-169.73,1862.25-360.5c504.89-197.53,933-460.8,1358.6-888.42s687.67-856.17,882.9-1362.13c189.23-488.45,317.8-1047.1,353.28-1863.94,35.79-819.77,44.24-1081.51,40.24-3166.79s-13.36-2346.71-52.22-3165.7-169-1375.19-360.5-1863.49c-197.38-504.88-460.8-932.35-888.12-1358.59s-856.17-688.13-1362-882.9c-488.75-189.08-1047.09-318-1864.55-353.28S9751.09-3.12,7665.34.87s-2346.86,12.91-3166,52.84M4589,13937.36c-748.8-32.57-1155.38-157-1426.33-261.12-358.81-138.24-614.4-305.36-884.43-572.78s-435.92-523.93-576-882c-105.21-271-231.93-677.08-267-1425.88-38.1-809.32-46.08-1052.32-50.54-3102.73s3.38-2293.1,38.86-3102.73c31.95-748.19,157.14-1155.23,261.12-1426,138.24-359.27,304.75-614.4,572.78-884.27s523.78-436.08,882.13-576.16c270.64-105.68,676.76-231.32,1425.26-267,809.93-38.4,1052.62-46.08,3102.73-50.53s2293.41,3.22,3103.65,38.86c748.19,32.56,1155.38,156.52,1425.87,261.12,359,138.24,614.41,304.28,884.28,572.78s436.23,523.31,576.31,882.43c105.83,269.88,231.48,675.84,266.81,1424.8,38.55,809.93,47.31,1052.78,51,3102.73s-3.53,2293.41-39,3102.73c-32.72,748.8-156.83,1155.54-261.12,1426.8-138.24,358.65-304.9,614.4-573.09,884.12s-523.62,435.92-882.12,576c-270.34,105.53-676.92,231.48-1424.8,267.11-809.94,38.1-1052.63,46.08-3103.5,50.54s-2292.8-3.84-3102.73-38.86M10850,3575.31c.85,509,414.15,920.92,923.14,920.07s920.91-414.16,920.06-923.14S12279,2651.32,11770,2652.17h-.3c-508.87,1-920.61,414.27-919.76,923.14M3736.7,7687.66c4.3,2178,1773.17,3939.7,3950.76,3935.55s3940.47-1772.86,3936.32-3950.91S9850.31,3732.14,7672.41,3736.44,3732.56,5509.91,3736.7,7687.66M5120,7684.89C5117.23,6271,6261.14,5122.57,7675,5119.78s2562.32,1141.11,2565.12,2555-1141.11,2562.31-2555,2565.12C6271.45,10242.86,5123,9099.23,5120,7685.52v-.63"/></svg>